<svg width="27" height="20" viewBox="0 0 27 20" fill="none" xmlns="http://www.w3.org/2000/svg">
<path d="M24.75 0.25H2.25002C1.00907 0.25 0 1.2217 0 2.41668V17.5834C0 18.7783 1.00907 19.75 2.25002 19.75H24.75C25.9909 19.75 27 18.7783 27 17.5833V2.41668C27 1.2217 25.9909 0.25 24.75 0.25ZM2.25002 1.33332H24.75C24.8329 1.33332 24.906 1.36241 24.9838 1.37887C23.0358 3.09563 16.5767 8.78577 14.3163 10.7469C14.1395 10.9003 13.8544 11.0833 13.5001 11.0833C13.1457 11.0833 12.8606 10.9003 12.6832 10.7464C10.4231 8.78557 3.96357 3.09512 2.01593 1.37897C2.09387 1.36252 2.16707 1.33332 2.25002 1.33332ZM1.12498 17.5833V2.41668C1.12498 2.31055 1.15821 2.21427 1.18795 2.11728C2.67885 3.43129 7.18574 7.40157 10.1081 9.96059C7.19524 12.37 2.68719 16.4857 1.18441 17.8657C1.15789 17.7735 1.12498 17.6835 1.12498 17.5833ZM24.75 18.6667H2.25002C2.16016 18.6667 2.08027 18.6365 1.99637 18.6172C3.54923 17.1917 8.08597 13.0523 10.9476 10.6949C11.3206 11.0208 11.6614 11.3179 11.93 11.551C12.3937 11.9541 12.9364 12.1667 13.5 12.1667C14.0636 12.1667 14.6063 11.954 15.0694 11.5515C15.3381 11.3183 15.6791 11.0209 16.0524 10.6949C18.9142 13.0521 23.4503 17.1911 25.0036 18.6172C24.9197 18.6365 24.8399 18.6667 24.75 18.6667ZM25.875 17.5833C25.875 17.6834 25.8421 17.7735 25.8156 17.8657C24.3123 16.485 19.8048 12.3698 16.892 9.96064C19.8144 7.40163 24.3206 3.4317 25.8121 2.11718C25.8418 2.21417 25.875 2.3105 25.875 2.41663V17.5833Z" fill="#898989"/>
</svg>
