<svg width="21" height="28" viewBox="0 0 21 28" fill="none" xmlns="http://www.w3.org/2000/svg">
<path d="M9.12081 19.3765L8.75281 22.6856C8.7346 22.8502 8.78754 23.0154 8.89806 23.1391C9.00859 23.2627 9.16696 23.3333 9.33272 23.3333H11.6661C11.8318 23.3333 11.9902 23.2627 12.1007 23.1391C12.2112 23.0155 12.2642 22.8503 12.246 22.6856L11.878 19.3765C12.4756 18.9418 12.8327 18.2542 12.8327 17.5C12.8327 16.2131 11.7863 15.1666 10.4994 15.1666C9.21246 15.1666 8.16602 16.2131 8.16602 17.5C8.16602 18.2542 8.52324 18.9418 9.12081 19.3765ZM10.4994 16.3333C11.1425 16.3333 11.666 16.8569 11.666 17.5C11.666 17.9472 11.4119 18.3476 11.0029 18.5459C10.7802 18.6541 10.6498 18.89 10.6771 19.1355L11.0144 22.1666H9.98443L10.3217 19.1355C10.349 18.8899 10.2186 18.6541 9.99586 18.5459C9.58685 18.3476 9.33277 17.9472 9.33277 17.5C9.33272 16.8569 9.85624 16.3333 10.4994 16.3333Z" fill="#898989"/>
<path d="M20.4166 10.5H18.6666V8.16665C18.6666 3.66352 15.0032 0 10.5 0C5.99681 0 2.33335 3.66352 2.33335 8.16665V10.5H0.583352C0.260914 10.5 0 10.7609 0 11.0834V25.6667C0 26.9536 1.04645 28 2.33335 28H18.6667C19.9536 28 21 26.9536 21 25.6666V11.0834C21 10.7609 20.7391 10.5 20.4166 10.5ZM3.5 8.16665C3.5 4.30664 6.63999 1.16665 10.5 1.16665C14.36 1.16665 17.5 4.30664 17.5 8.16665V10.5H16.3334V8.16665C16.3334 4.95031 13.7163 2.3333 10.5 2.3333C7.28366 2.3333 4.66665 4.95037 4.66665 8.16665V10.5H3.5V8.16665ZM15.1666 8.16665V10.5H5.83335V8.16665C5.83335 5.59349 7.92684 3.5 10.5 3.5C13.0732 3.5 15.1666 5.59349 15.1666 8.16665ZM19.8334 25.6666C19.8334 26.3098 19.3098 26.8333 18.6667 26.8333H2.33335C1.69023 26.8333 1.1667 26.3098 1.1667 25.6666V11.6666H19.8334V25.6666Z" fill="#898989"/>
</svg>
