<svg width="194" height="137" viewBox="0 0 194 137" fill="none" xmlns="http://www.w3.org/2000/svg">
<path opacity="0.129" d="M97 91.0862C150.572 91.0862 194 101.364 194 114.043C194 126.722 150.571 137 97 137C43.4285 137 0 126.722 0 114.043C0 101.364 43.4285 91.0862 97 91.0862Z" fill="#535461"/>
<path d="M23.7308 51.4575C23.7308 51.4575 32.7656 60.4897 27.6661 73.8981C22.5667 87.3065 36.4095 109.589 36.4095 109.589C36.4095 109.589 36.2609 109.568 35.9864 109.518C17.4306 106.24 8.20875 85.0239 18.5281 69.2616C22.3642 63.4009 25.5048 56.5269 23.7308 51.4575Z" fill="#FF0E0E"/>
<path d="M23.7324 51.4575C23.7324 51.4575 28.8322 62.5281 23.7324 71.5606C18.6325 80.5931 22.8578 105.943 36.4111 109.585" stroke="#535461" stroke-width="2" stroke-miterlimit="10"/>
<path d="M7.64062 87.9964C7.64062 87.9964 17.9505 86.3543 18.8843 95.5921C19.8182 104.83 38.7038 106.109 38.7038 106.109C38.7038 106.109 38.5801 106.192 38.3494 106.345C22.7684 116.574 7.8621 112.857 10.1087 99.2694C10.9434 94.2164 10.8764 89.1393 7.64062 87.9964Z" fill="#FF0E0E"/>
<path opacity="0.2" d="M7.64062 87.9964C7.64062 87.9964 17.9505 86.3543 18.8843 95.5921C19.8182 104.83 38.7038 106.109 38.7038 106.109C38.7038 106.109 38.5801 106.192 38.3494 106.345C22.7684 116.574 7.8621 112.857 10.1087 99.2694C10.9434 94.2164 10.8764 89.1393 7.64062 87.9964Z" fill="#F5F5F5"/>
<path d="M7.64062 87.9959C7.64062 87.9959 15.6446 89.7526 14.9852 97.0262C14.3259 104.3 26.8692 113.029 38.7129 106.108" stroke="#535461" stroke-width="2" stroke-miterlimit="10"/>
<path d="M115.512 105.289C115.512 105.289 123.346 104.667 125.598 107.362C127.851 110.057 135.901 116.232 132.579 117.609C129.258 118.986 111.426 113.492 111.426 113.492L115.512 105.289Z" fill="#FFB9B9"/>
<path d="M83.3121 11.5161C83.2454 10.6161 82.8823 9.76363 82.2796 9.09183C81.6769 8.42004 80.8685 7.9668 79.9808 7.80295C78.7878 7.61228 77.4549 7.94934 76.4298 7.3078C75.9939 6.97748 75.6014 6.59347 75.2617 6.16487C73.7974 4.60072 71.6009 3.87866 69.459 3.81571C67.3171 3.75277 65.2055 4.27098 63.1474 4.86349C59.0386 6.04667 54.6976 7.78209 52.5118 11.4553C49.1882 17.047 52.2555 24.5838 49.6267 30.5333C48.4835 33.1317 46.3031 35.2543 45.5944 38.0053C44.6426 41.6804 46.5206 45.4085 47.9669 48.9178C49.2645 52.0652 50.2501 55.3322 50.9095 58.672C51.4908 61.621 51.8148 64.6863 51.1591 67.6262C50.8714 68.9122 50.397 70.2209 50.6521 71.5128C51.0332 73.4674 52.9236 74.7 54.6424 75.7042L55.0901 75.967C57.5673 77.4148 60.1152 78.8947 62.9531 79.2516C64.7231 79.5161 66.531 79.1914 68.0983 78.3275C68.8724 77.8875 69.5312 77.2703 70.0205 76.5265C70.5098 75.7827 70.8157 74.9335 70.9131 74.0486C71.0595 72.0464 69.943 70.1715 69.7028 68.177C69.6477 67.8765 69.6706 67.5669 69.7694 67.2778C69.9706 66.9144 70.2705 66.6152 70.6345 66.4148C73.0608 64.6695 74.9492 62.2791 76.0851 59.515C77.221 56.7509 77.5589 53.7238 77.0606 50.7773C76.3252 46.7882 74.0383 42.8215 75.1453 38.9177C75.757 36.761 77.333 35.0139 78.2174 32.9546C79.1522 30.7552 79.269 28.2941 78.5469 26.0162C78.0417 24.4425 77.1272 22.8707 77.4417 21.2534C77.9963 18.3806 81.8247 17.4642 83.2711 14.9189C83.7784 13.9526 83.9189 12.8356 83.6668 11.7739C83.4146 10.7121 82.7867 9.77748 81.899 9.1424" fill="#B96B6B"/>
<path opacity="0.1" d="M83.3121 11.5161C83.2454 10.6161 82.8823 9.76363 82.2796 9.09183C81.6769 8.42004 80.8685 7.9668 79.9808 7.80295C78.7878 7.61228 77.4549 7.94934 76.4298 7.3078C75.9939 6.97748 75.6014 6.59347 75.2617 6.16487C73.7974 4.60072 71.6009 3.87866 69.459 3.81571C67.3171 3.75277 65.2055 4.27098 63.1474 4.86349C59.0386 6.04667 54.6976 7.78209 52.5118 11.4553C49.1882 17.047 52.2555 24.5838 49.6267 30.5333C48.4835 33.1317 46.3031 35.2543 45.5944 38.0053C44.6426 41.6804 46.5206 45.4085 47.9669 48.9178C49.2645 52.0652 50.2501 55.3322 50.9095 58.672C51.4908 61.621 51.8148 64.6863 51.1591 67.6262C50.8714 68.9122 50.397 70.2209 50.6521 71.5128C51.0332 73.4674 52.9236 74.7 54.6424 75.7042L55.0901 75.967C57.5673 77.4148 60.1152 78.8947 62.9531 79.2516C64.7231 79.5161 66.531 79.1914 68.0983 78.3275C68.8724 77.8875 69.5312 77.2703 70.0205 76.5265C70.5098 75.7827 70.8157 74.9335 70.9131 74.0486C71.0595 72.0464 69.943 70.1715 69.7028 68.177C69.6477 67.8765 69.6706 67.5669 69.7694 67.2778C69.9706 66.9144 70.2705 66.6152 70.6345 66.4148C73.0608 64.6695 74.9492 62.2791 76.0851 59.515C77.221 56.7509 77.5589 53.7238 77.0606 50.7773C76.3252 46.7882 74.0383 42.8215 75.1453 38.9177C75.757 36.761 77.333 35.0139 78.2174 32.9546C79.1522 30.7552 79.269 28.2941 78.5469 26.0162C78.0417 24.4425 77.1272 22.8707 77.4417 21.2534C77.9963 18.3806 81.8247 17.4642 83.2711 14.9189C83.7784 13.9526 83.9189 12.8356 83.6668 11.7739C83.4146 10.7121 82.7867 9.77748 81.899 9.1424" fill="black"/>
<path d="M91.1874 111.377H50.2148V89.4669L73.0833 98.2304L91.1874 89.4669V111.377Z" fill="#777B9B"/>
<path opacity="0.1" d="M91.1874 111.377H50.2148V89.4669L73.0833 98.2304L91.1874 89.4669V111.377Z" fill="black"/>
<path d="M86.2328 113.481C86.2328 113.481 78.8014 115.257 78.0382 118.51C77.2749 121.764 82.4212 121.469 82.4212 121.469C82.4212 121.469 89.663 119.989 90.6159 114.071C91.5688 108.154 86.2328 113.481 86.2328 113.481Z" fill="#FFB9B9"/>
<path opacity="0.1" d="M86.2328 113.481C86.2328 113.481 78.8014 115.257 78.0382 118.51C77.2749 121.764 82.4212 121.469 82.4212 121.469C82.4212 121.469 89.663 119.989 90.6159 114.071C91.5688 108.154 86.2328 113.481 86.2328 113.481Z" fill="black"/>
<path d="M66.2738 123.399C66.2738 123.399 59.2667 123.854 59.1719 129.538C59.1587 130.3 66.4708 130.521 75.1512 125.855C83.8316 121.189 84.4217 120.697 84.4217 120.697C84.4217 120.697 81.0677 115.294 78.7047 114.559C76.3417 113.823 66.2738 123.399 66.2738 123.399Z" fill="#CBCDDA"/>
<path d="M25.2515 101.658C25.2515 101.658 17.2476 108.326 32.1122 117.661C46.9768 126.996 61.2696 125.281 61.2696 125.281C61.2696 125.281 76.7744 123.447 79.1221 116.171C81.4697 108.895 67.5584 102.801 67.5584 102.801C67.5584 102.801 52.3127 102.801 45.4524 98.4188C38.5921 94.0371 25.2515 101.658 25.2515 101.658Z" fill="#777B9B"/>
<path d="M68.5102 90.2269C68.5102 90.2269 75.3709 94.2277 84.7088 90.2269C91.8934 87.1483 107.653 88.3561 114.539 89.084C116.121 89.2373 117.621 89.8604 118.847 90.8732C120.072 91.886 120.966 93.2421 121.414 94.7671C122.135 97.3143 121.605 100.444 117.294 103.378C107.765 109.856 101.096 111.761 98.6183 114.428C96.141 117.095 89.0896 118.429 89.0896 118.429C89.0896 118.429 80.1328 117.095 80.1328 115.19C80.1328 113.285 88.3293 103.95 88.3293 103.95C88.3293 103.95 76.3219 114.999 63.9364 100.14C51.5509 85.2797 68.5102 90.2269 68.5102 90.2269Z" fill="#777B9B"/>
<path d="M65.0795 63.3644L40.877 46.7896C40.877 46.7896 52.4864 38.9198 53.4847 31.8862C53.7111 30.515 53.43 29.1083 52.6939 27.9293C47.9298 20.3088 69.464 27.9293 69.464 27.9293C69.603 29.9137 69.8736 31.8867 70.2737 33.8354C71.2094 38.4744 73.1837 44.6527 77.2772 47.7422C84.3267 53.0759 65.0795 63.3644 65.0795 63.3644Z" fill="#FFB9B9"/>
<path opacity="0.1" d="M70.2738 33.8258C67.6407 35.3571 64.5828 35.9957 61.5567 35.6461C58.5307 35.2965 55.699 33.9775 53.4847 31.8862C53.7111 30.515 53.43 29.1083 52.694 27.9293C47.9299 20.3088 69.464 27.9293 69.464 27.9293C69.6034 29.9112 69.874 31.8816 70.2738 33.8277V33.8258Z" fill="black"/>
<path d="M63.1743 35.3608C70.9627 35.3608 77.2764 29.0489 77.2764 21.2629C77.2764 13.4768 70.9627 7.16501 63.1743 7.16501C55.386 7.16501 49.0723 13.4768 49.0723 21.2629C49.0723 29.0489 55.386 35.3608 63.1743 35.3608Z" fill="#FFB9B9"/>
<path opacity="0.1" d="M71.9408 39.9317C71.9408 39.9317 69.0821 56.6967 64.3179 55.7441C59.5538 54.7915 44.6892 38.0264 44.6892 38.0264C44.6892 38.0264 29.2532 43.1701 31.73 55.7441C34.2069 68.3181 36.6849 78.9869 31.5393 82.9876C26.3937 86.9884 23.1543 105.659 23.1543 105.659C23.1543 105.659 39.5432 98.8001 48.119 101.467C56.6947 104.134 65.4608 102.801 67.5577 100.324C69.6546 97.8478 72.7029 92.5131 72.7029 92.5131C72.7029 92.5131 68.3199 86.0354 70.416 82.797C72.5122 79.5585 75.1802 79.3678 76.7049 70.223C78.2296 61.0781 90.2355 57.8397 87.9486 52.6956C85.6617 47.5515 81.2787 39.9317 71.9408 39.9317Z" fill="black"/>
<path d="M71.9408 39.1694C71.9408 39.1694 69.0821 55.9344 64.3179 54.9818C59.5538 54.0292 44.6892 37.2641 44.6892 37.2641C44.6892 37.2641 29.2532 42.4078 31.73 54.9818C34.2069 67.5558 36.6849 78.2245 31.5393 82.2253C26.3937 86.2261 23.1543 104.896 23.1543 104.896C23.1543 104.896 39.5432 98.0378 48.119 100.705C56.6947 103.372 65.4608 102.039 67.5577 99.562C69.6546 97.0855 72.7029 91.7511 72.7029 91.7511C72.7029 91.7511 68.3199 85.2735 70.416 82.035C72.5122 78.7966 75.1802 78.6059 76.7049 69.461C78.2296 60.3162 90.2355 57.0777 87.9486 51.9337C85.6617 46.7896 81.2787 39.1694 71.9408 39.1694Z" fill="#CBCDDA"/>
<path d="M83.375 107.945C83.375 107.945 90.9978 106.039 93.6658 108.326C96.3338 110.612 105.291 115.374 102.242 117.28C99.1925 119.185 80.707 116.708 80.707 116.708L83.375 107.945Z" fill="#FFB9B9"/>
<g opacity="0.05">
<path opacity="0.05" d="M62.411 54.9818C62.8564 55.0658 63.3172 54.9986 63.7201 54.7911C58.4259 52.7487 44.6877 37.2638 44.6877 37.2638C44.6877 37.2638 44.1467 37.4449 43.2812 37.82C45.9075 40.7372 58.1671 54.1342 62.411 54.9818Z" fill="black"/>
<path opacity="0.05" d="M86.0428 51.9337C91.2986 49.9125 76.3238 60.3162 74.7991 69.4611C73.2744 78.6059 70.6064 78.7962 68.5103 82.0351C66.4141 85.2739 70.7971 91.7512 70.7971 91.7512C70.7971 91.7512 67.7481 97.0856 65.6519 99.5625C64.4512 100.982 61.0609 102.022 56.7734 102.154C61.9454 102.317 66.1838 101.184 67.5577 99.5625C69.6539 97.0859 72.7029 91.7512 72.7029 91.7512C72.7029 91.7512 68.3199 85.2735 70.4161 82.0351C72.5122 78.7966 75.1802 78.6059 76.7049 69.4611C78.2296 60.3162 84.804 52.4102 86.0428 51.9337Z" fill="black"/>
<path opacity="0.05" d="M23.3007 104.102C23.2037 104.611 23.1543 104.899 23.1543 104.899C23.1543 104.899 33.8108 100.439 42.4363 100.111C35.7792 99.8347 27.1768 102.665 23.3007 104.102Z" fill="black"/>
</g>
<path opacity="0.1" d="M34.1113 83.0828C34.1113 83.0828 48.7852 84.7973 52.025 89.3698C55.2648 93.9422 70.2721 86.714 70.2721 86.714" fill="black"/>
<path opacity="0.1" d="M48.5001 57.0778C48.5001 57.0778 54.7889 80.1298 57.0758 82.9884C59.3627 85.847 77.0856 109.279 85.4706 107.755C85.4706 107.755 82.9934 118.424 81.278 118.805C81.278 118.805 63.9361 101.658 58.0284 101.849C58.0284 101.849 47.1657 92.8949 46.021 88.5131C44.8763 84.1314 35.7302 69.8428 35.7302 69.8428C35.7302 69.8428 31.1564 59.7457 33.0622 55.3639C34.968 50.9822 45.0696 52.8863 48.5001 57.0778Z" fill="black"/>
<path d="M48.6915 56.6967C48.6915 56.6967 54.9804 79.7488 57.2672 82.6074C59.5541 85.466 77.277 108.898 85.662 107.374C85.662 107.374 83.1848 118.043 81.4694 118.424C81.4694 118.424 64.1275 101.277 58.2198 101.468C58.2198 101.468 47.3571 92.5138 46.2124 88.1321C45.0677 83.7503 35.9216 69.4618 35.9216 69.4618C35.9216 69.4618 31.3478 59.3647 33.2536 54.9825C35.1594 50.6004 45.261 52.5053 48.6915 56.6967Z" fill="#CBCDDA"/>
<path opacity="0.1" d="M73.402 7.89657C73.3352 6.99662 72.9721 6.14412 72.3694 5.47232C71.7667 4.80053 70.9583 4.34729 70.0706 4.18344C68.8776 3.99277 67.5447 4.32983 66.5197 3.68792C66.0838 3.35759 65.6913 2.97358 65.3515 2.545C63.8872 0.980842 61.6908 0.258787 59.5488 0.19584C57.4069 0.132893 55.2954 0.651103 53.2373 1.24361C49.1284 2.42679 44.7875 4.16222 42.6016 7.83546C39.278 13.4271 42.3454 20.9639 39.7166 26.9134C38.5733 29.5118 36.393 31.6345 35.6842 34.3855C34.7324 38.0605 36.6104 41.7887 38.0568 45.2979C39.3544 48.4453 40.3399 51.7124 40.9993 55.0521C41.5806 58.0011 41.9046 61.0665 41.249 64.0063C40.9612 65.2923 40.4868 66.601 40.742 67.8929C41.123 69.8475 43.0135 71.0801 44.7322 72.0844L45.1799 72.3471C47.6572 73.7949 50.2051 75.2749 53.0429 75.6317C54.8129 75.8962 56.6209 75.5715 58.1881 74.7076C58.9623 74.2676 59.621 73.6504 60.1103 72.9066C60.5996 72.1628 60.9055 71.3136 61.0029 70.4287C61.1493 68.4265 60.0328 66.5516 59.7926 64.5571C59.7375 64.2566 59.7605 63.947 59.8593 63.6579C60.0605 63.2945 60.3604 62.9953 60.7243 62.7949C63.1507 61.0496 65.039 58.6593 66.1749 55.8951C67.3108 53.131 67.6488 50.1039 67.1504 47.1574C66.415 43.1684 64.1281 39.2016 65.2351 35.2978C65.8468 33.1412 67.4228 31.394 68.3072 29.3347C69.242 27.1354 69.3589 24.6743 68.6367 22.3963C68.1315 20.8226 67.2171 19.2508 67.5315 17.6336C68.0861 14.7607 71.9146 13.8443 73.361 11.299C73.8683 10.3328 74.0088 9.21569 73.7566 8.15398C73.5044 7.09227 72.8765 6.15761 71.9889 5.52253" fill="black"/>
<path d="M73.0211 7.7059C72.9544 6.80594 72.5913 5.95345 71.9886 5.28165C71.3859 4.60985 70.5775 4.15661 69.6898 3.99277C68.4967 3.8021 67.1639 4.13916 66.1388 3.49725C65.7029 3.16692 65.3104 2.78292 64.9707 2.35432C63.5064 0.790168 61.3099 0.0681132 59.168 0.00516645C57.0261 -0.0577803 54.9145 0.46043 52.8564 1.05293C48.7476 2.23611 44.4066 3.97155 42.2208 7.64478C38.8972 13.2364 41.9645 20.7732 39.3357 26.7228C38.1925 29.3212 36.0121 31.4438 35.3034 34.1948C34.3516 37.8699 36.2295 41.598 37.6759 45.1073C38.9735 48.2546 39.9591 51.5217 40.6184 54.8615C41.1998 57.8105 41.5238 60.8758 40.8681 63.8156C40.5804 65.1017 40.1059 66.4104 40.3611 67.7022C40.7422 69.6569 42.6326 70.8895 44.3513 71.8937L44.7991 72.1565C47.2763 73.6042 49.8242 75.0842 52.662 75.441C54.4321 75.7056 56.24 75.3809 57.8073 74.517C58.5814 74.077 59.2402 73.4598 59.7295 72.716C60.2188 71.9721 60.5247 71.1229 60.622 70.2381C60.7685 68.2358 59.6519 66.361 59.4118 64.3664C59.3567 64.0659 59.3796 63.7563 59.4784 63.4672C59.6796 63.1038 59.9795 62.8047 60.3435 62.6043C62.7698 60.859 64.6582 58.4686 65.7941 55.7045C66.9299 52.9404 67.2679 49.9132 66.7696 46.9668C66.0341 42.9777 63.7472 39.0109 64.8543 35.1071C65.466 32.9505 67.0419 31.2033 67.9264 29.144C68.8612 26.9447 68.978 24.4836 68.2559 22.2056C67.751 20.6319 66.8362 19.0601 67.1507 17.4429C67.7053 14.57 71.5337 13.6536 72.9801 11.1083C73.4874 10.1421 73.6279 9.02502 73.3758 7.96331C73.1236 6.9016 72.4957 5.96693 71.608 5.33185" fill="#B96B6B"/>
<path d="M85.9845 128.766C86.3338 128.481 86.5884 128.097 86.7145 127.665C86.771 127.448 86.751 127.217 86.6576 127.013C86.5643 126.809 86.4034 126.643 86.202 126.543C85.733 126.364 85.2319 126.689 84.8526 127.019C84.4733 127.348 84.037 127.722 83.5395 127.651C83.7951 127.419 83.9864 127.125 84.0946 126.798C84.2029 126.47 84.2244 126.12 84.1571 125.782C84.1355 125.642 84.0761 125.51 83.9854 125.401C83.7244 125.123 83.2532 125.243 82.941 125.462C81.95 126.159 81.6736 127.505 81.6681 128.716C81.6141 128.273 81.6077 127.826 81.6491 127.382C81.6681 127.159 81.6323 126.934 81.5446 126.728C81.457 126.521 81.3201 126.339 81.1461 126.197C80.9121 126.072 80.6494 126.009 80.3839 126.016C80.1632 125.985 79.9383 126 79.7238 126.061C79.5093 126.122 79.3102 126.227 79.1392 126.371C78.7581 126.773 78.8592 127.455 79.1887 127.895C79.5579 128.309 79.994 128.658 80.4787 128.927C80.8484 129.147 81.1637 129.447 81.4012 129.806C81.4291 129.855 81.452 129.908 81.4697 129.962H84.2577C84.8845 129.643 85.4653 129.242 85.9842 128.767L85.9845 128.766Z" fill="#FF0E0E"/>
<path opacity="0.1" d="M27.9558 20.5294C31.8847 20.5294 35.0698 17.3453 35.0698 13.4176C35.0698 9.48976 31.8847 6.30566 27.9558 6.30566C24.0268 6.30566 20.8418 9.48976 20.8418 13.4176C20.8418 17.3453 24.0268 20.5294 27.9558 20.5294Z" fill="#FF0E0E"/>
<path d="M27.9573 19.4532C31.2916 19.4532 33.9946 16.7509 33.9946 13.4176C33.9946 10.0842 31.2916 7.38202 27.9573 7.38202C24.6229 7.38202 21.9199 10.0842 21.9199 13.4176C21.9199 16.7509 24.6229 19.4532 27.9573 19.4532Z" fill="#FF0E0E"/>
<path opacity="0.1" d="M27.9559 13.8479C28.1937 13.8479 28.3864 13.6552 28.3864 13.4175C28.3864 13.1798 28.1937 12.9871 27.9559 12.9871C27.7181 12.9871 27.5254 13.1798 27.5254 13.4175C27.5254 13.6552 27.7181 13.8479 27.9559 13.8479Z" fill="#FF0E0E"/>
<path opacity="0.1" d="M30.5443 8.89304L28.1699 13.0461" stroke="#FF0E0E" stroke-miterlimit="10"/>
<path opacity="0.1" d="M30.6516 14.82L28.3457 13.6064" stroke="#FF0E0E" stroke-miterlimit="10"/>
<path d="M110.034 118.911H90.8171C89.944 118.911 89.2363 119.618 89.2363 120.491C89.2363 121.364 89.944 122.071 90.8171 122.071H110.034C110.907 122.071 111.615 121.364 111.615 120.491C111.615 119.618 110.907 118.911 110.034 118.911Z" fill="#535461"/>
<g opacity="0.7">
<path opacity="0.7" d="M148.145 83.6677H113.188C107.483 83.6677 102.857 88.2915 102.857 93.9954V111.786C102.857 117.489 107.483 122.113 113.188 122.113H148.145C153.85 122.113 158.475 117.489 158.475 111.786V93.9954C158.475 88.2915 153.85 83.6677 148.145 83.6677Z" fill="url(#paint0_linear)"/>
</g>
<path d="M146.711 84.3766H113.675C108.249 84.3766 103.85 88.7743 103.85 94.1992V112.289C103.85 117.714 108.249 122.112 113.675 122.112H146.711C152.138 122.112 156.537 117.714 156.537 112.289V94.1992C156.537 88.7743 152.138 84.3766 146.711 84.3766Z" fill="#3E3F49"/>
<path d="M147.44 84.3766H114.404C108.977 84.3766 104.578 88.7743 104.578 94.1992V112.289C104.578 117.714 108.977 122.112 114.404 122.112H147.44C152.866 122.112 157.265 117.714 157.265 112.289V94.1992C157.265 88.7743 152.866 84.3766 147.44 84.3766Z" fill="#535461"/>
<path d="M133.384 104.685C134.323 104.685 135.085 103.924 135.085 102.984C135.085 102.044 134.323 101.282 133.384 101.282C132.444 101.282 131.682 102.044 131.682 102.984C131.682 103.924 132.444 104.685 133.384 104.685Z" fill="#E0E0E0"/>
<path d="M42.4124 119.835C42.4124 119.835 39.386 118.81 37.9301 121.475C37.5459 122.198 37.3505 123.006 37.3618 123.824C37.3731 124.642 37.5909 125.445 37.9949 126.156C38.9467 127.884 40.9235 130.129 44.6648 129.928C47.8321 129.759 48.8861 127.343 49.172 125.095C49.2817 124.252 49.1732 123.395 48.8567 122.606C48.5401 121.817 48.0263 121.123 47.3644 120.589C46.7024 120.056 45.9145 119.701 45.0762 119.559C44.2378 119.417 43.3771 119.493 42.5764 119.779L42.4124 119.835Z" fill="#FF0E0E"/>
<path opacity="0.1" d="M38.6335 126.396C38.2295 125.684 38.0118 124.882 38.0005 124.064C37.9891 123.246 38.1846 122.438 38.5687 121.715C40.0246 119.048 43.0509 120.075 43.0509 120.075L43.2054 120.02C44.3593 119.602 45.6275 119.631 46.7615 120.1C46.1357 119.727 45.4351 119.498 44.7101 119.429C43.9851 119.36 43.2537 119.452 42.5688 119.7L42.4143 119.755C42.4143 119.755 39.3879 118.73 37.9321 121.395C37.5479 122.118 37.3524 122.926 37.3637 123.744C37.3751 124.563 37.5928 125.365 37.9968 126.077C38.7461 127.509 39.9537 128.649 41.427 129.315C40.2461 128.616 39.2797 127.607 38.6331 126.397L38.6335 126.396Z" fill="white"/>
<path opacity="0.2" d="M40.8516 121.117C40.8516 121.117 41.974 121.999 44.6972 121.117H40.8516Z" fill="black"/>
<path d="M40.6113 114.708C40.6113 114.708 42.5343 119.915 42.374 121.277L43.8987 121.117C43.8987 121.117 41.3336 116.545 41.9757 114.708H40.6113Z" fill="#FF0E0E"/>
<path opacity="0.2" d="M40.6113 114.708C40.6113 114.708 42.5343 119.915 42.374 121.277L43.8987 121.117C43.8987 121.117 41.3336 116.545 41.9757 114.708H40.6113Z" fill="black"/>
<path d="M48.4595 115.144C48.4595 115.144 45.4331 113.597 44.0765 114.876C42.7198 116.154 42.5137 119.421 42.5137 119.421C42.5137 119.421 47.4513 120.1 48.4595 115.144Z" fill="#FF0E0E"/>
<path opacity="0.1" d="M48.4595 115.144C48.4595 115.144 45.4331 113.597 44.0765 114.876C42.7198 116.154 42.5137 119.421 42.5137 119.421C42.5137 119.421 47.4513 120.1 48.4595 115.144Z" fill="white"/>
<path d="M42.5156 119.421C42.5156 119.421 43.3104 115.628 48.4596 115.144" stroke="#FF0E0E" stroke-miterlimit="10"/>
<defs>
<linearGradient id="paint0_linear" x1="130.666" y1="122.113" x2="130.666" y2="83.6677" gradientUnits="userSpaceOnUse">
<stop stop-color="#808080" stop-opacity="0.251"/>
<stop offset="0.54" stop-color="#808080" stop-opacity="0.122"/>
<stop offset="1" stop-color="#808080" stop-opacity="0.102"/>
</linearGradient>
</defs>
</svg>
