<svg width="635" height="478" viewBox="0 0 635 478" fill="none" xmlns="http://www.w3.org/2000/svg">
<path d="M312.519 478C401.57 478 473.76 468.527 473.76 456.841C473.76 445.155 401.57 435.682 312.519 435.682C223.469 435.682 151.279 445.155 151.279 456.841C151.279 468.527 223.469 478 312.519 478Z" fill="#3F3D56"/>
<path d="M585.274 275.922L522.941 306.775L578.108 263.635C569.142 248.999 559.069 235.137 547.987 222.183L277.657 292.451L521.841 195.038C510.683 184.742 498.832 175.296 486.382 166.773L74.4623 236.16C30.7276 293.355 6.88675 364.401 6.85352 437.635H626.904C626.879 380.838 612.519 325.055 585.276 275.921L585.274 275.922Z" fill="#F2F2F2"/>
<path d="M452.669 146.741C410.377 125.17 363.931 113.993 316.877 114.063C221.11 114.063 135.49 159.476 78.6211 230.829C176.004 208.513 345.556 169.885 452.669 146.741Z" fill="#F2F2F2"/>
<path opacity="0.4" d="M513.652 177.92C518.782 177.92 522.94 173.571 522.94 168.206C522.94 162.841 518.782 158.492 513.652 158.492C508.522 158.492 504.363 162.841 504.363 168.206C504.363 173.571 508.522 177.92 513.652 177.92Z" fill="#FFCE55" fill-opacity="0.85"/>
<path opacity="0.4" d="M496.461 179.659C500.059 179.659 502.976 176.609 502.976 172.845C502.976 169.082 500.059 166.031 496.461 166.031C492.862 166.031 489.945 169.082 489.945 172.845C489.945 176.609 492.862 179.659 496.461 179.659Z" fill="#FFCE55" fill-opacity="0.85"/>
<path opacity="0.4" d="M73.928 214.291C84.6718 214.291 93.3814 205.183 93.3814 193.947C93.3814 182.711 84.6718 173.603 73.928 173.603C63.1842 173.603 54.4746 182.711 54.4746 193.947C54.4746 205.183 63.1842 214.291 73.928 214.291Z" fill="#FFCE55" fill-opacity="0.85"/>
<path opacity="0.4" d="M37.9256 217.935C45.4622 217.935 51.5718 211.545 51.5718 203.663C51.5718 195.782 45.4622 189.392 37.9256 189.392C30.3889 189.392 24.2793 195.782 24.2793 203.663C24.2793 211.545 30.3889 217.935 37.9256 217.935Z" fill="#FFCE55" fill-opacity="0.85"/>
<path d="M635 436.984H0V438.286H635V436.984Z" fill="#2F2E41"/>
<path d="M563.059 436.985L513.604 360.161C513.604 360.161 588.5 387.505 580.001 436.985H563.059Z" fill="#3F3D56"/>
<path d="M565 436.985L614.456 360.161C614.456 360.161 539.559 387.505 548.059 436.985H565Z" fill="#FFCE55"/>
<path d="M129.489 86.4409C129.489 82.209 123.722 78.7819 116.608 78.7819C116.467 78.7819 116.328 78.7858 116.189 78.7884C114.043 71.9087 103.898 66.6984 91.7044 66.6984C81.3302 66.6984 72.439 70.4699 68.695 75.8326C65.9286 75.0669 63.078 74.6852 60.2165 74.6972C49.3082 74.6972 40.4648 79.9551 40.4648 86.4409C40.4648 92.3322 47.7624 97.2099 57.2737 98.0543C64.184 99.376 74.9852 100.227 87.1218 100.227C107.728 100.227 122.803 96.1168 123.18 93.0269C126.958 91.691 129.489 89.2424 129.489 86.4409Z" fill="#F2F2F2"/>
<path d="M440.765 89.6961C440.765 85.4643 434.997 82.0371 427.884 82.0371C427.743 82.0371 427.603 82.0411 427.464 82.0437C425.318 75.164 415.173 69.9536 402.98 69.9536C392.606 69.9536 383.714 73.7252 379.97 79.0879C377.204 78.3222 374.353 77.9404 371.492 77.9524C360.584 77.9524 351.74 83.2103 351.74 89.6961C351.74 95.5875 359.038 100.465 368.549 101.31C375.459 102.631 386.261 103.482 398.397 103.482C419.004 103.482 434.078 99.3721 434.456 96.2822C438.233 94.9462 440.765 92.4976 440.765 89.6961Z" fill="#F2F2F2"/>
<path d="M614.457 34.6529C614.457 27.2309 604.334 21.21 591.847 21.21C591.598 21.21 591.355 21.2165 591.11 21.2211C587.343 9.14533 569.536 0 548.134 0C529.925 0 514.318 6.62055 507.747 16.0328C502.892 14.6891 497.889 14.0191 492.868 14.0399C473.721 14.0399 458.199 23.2686 458.199 34.6523C458.199 44.9936 471.008 53.5543 487.708 55.0361C499.842 57.3564 518.796 58.8493 540.099 58.8493C576.264 58.8493 602.727 51.6343 603.391 46.2117C610.014 43.8686 614.457 39.5703 614.457 34.6529Z" fill="#F2F2F2"/>
<path d="M354.96 188.745C342.082 165.99 316.606 164.93 316.606 164.93C316.606 164.93 291.781 161.609 275.855 196.266C261.012 228.568 240.526 259.756 272.556 267.317L278.342 248.484L281.925 268.719C286.486 269.062 291.061 269.143 295.631 268.963C329.933 267.805 362.603 269.302 361.551 256.429C360.154 239.317 367.35 210.64 354.96 188.745Z" fill="#2F2E41"/>
<path d="M270.727 388.018C270.348 390.521 269.799 392.992 269.084 395.413C268.278 397.783 267.034 399.975 266.297 402.369C263.949 410 267.204 418.508 272.404 424.399C276.914 429.487 282.734 433.101 289.164 434.807C293.855 436.044 298.733 436.218 303.567 436.389C316.952 436.864 330.684 437.289 343.369 432.79C347.376 431.333 351.247 429.494 354.933 427.296C356.096 426.716 357.121 425.872 357.933 424.825C358.901 423.385 359.025 421.517 359.016 419.757C358.987 413.822 357.837 407.918 358.11 401.99C358.261 398.706 358.849 395.425 358.56 392.152C358.159 388.435 356.671 384.938 354.297 382.139C351.923 379.341 348.781 377.378 345.299 376.519C341.701 375.711 337.969 376.151 334.305 376.519C324.796 377.475 315.246 377.921 305.693 377.857C295.932 377.792 286.232 376.234 276.52 376.071C273.648 376.023 273.706 376.949 272.792 379.856C271.949 382.531 271.261 385.257 270.729 388.018H270.727Z" fill="#2F2E41"/>
<path d="M298.427 241.474C297.958 244.042 297.451 246.705 295.975 248.816C294.277 251.244 291.508 252.632 289.682 254.956C286.932 258.454 286.774 263.377 286.762 267.905C286.752 272.077 286.833 276.527 289.058 279.99C290.501 282.237 292.698 283.813 294.847 285.328C303.19 291.208 312.205 297.192 322.263 297.386C326.43 297.466 330.899 296.341 333.641 293.058C334.825 291.516 335.756 289.779 336.396 287.918C338.968 281.288 340.527 274.276 341.016 267.14C341.245 263.782 341.223 260.327 340.136 257.159C338.914 253.596 336.444 250.664 334.811 247.287C332.881 243.27 332.175 238.731 332.788 234.281C332.869 233.968 332.844 233.635 332.717 233.338C332.583 233.18 332.415 233.057 332.227 232.978C332.039 232.899 331.837 232.866 331.635 232.883L311.691 231.381C309.834 231.285 307.984 231.063 306.154 230.719C305.078 230.49 302.239 228.896 301.214 229.318C299.314 230.101 298.816 239.346 298.427 241.474Z" fill="#FFB8B8"/>
<path opacity="0.1" d="M298.427 241.474C297.958 244.042 297.451 246.705 295.975 248.816C294.277 251.244 291.508 252.632 289.682 254.956C286.932 258.454 286.774 263.377 286.762 267.905C286.752 272.077 286.833 276.527 289.058 279.99C290.501 282.237 292.698 283.813 294.847 285.328C303.19 291.208 312.205 297.192 322.263 297.386C326.43 297.466 330.899 296.341 333.641 293.058C334.825 291.516 335.756 289.779 336.396 287.918C338.968 281.288 340.527 274.276 341.016 267.14C341.245 263.782 341.223 260.327 340.136 257.159C338.914 253.596 336.444 250.664 334.811 247.287C332.881 243.27 332.175 238.731 332.788 234.281C332.869 233.968 332.844 233.635 332.717 233.338C332.583 233.18 332.415 233.057 332.227 232.978C332.039 232.899 331.837 232.866 331.635 232.883L311.691 231.381C309.834 231.285 307.984 231.063 306.154 230.719C305.078 230.49 302.239 228.896 301.214 229.318C299.314 230.101 298.816 239.346 298.427 241.474Z" fill="black"/>
<path d="M317.5 244.272C333.66 244.272 346.76 230.572 346.76 213.673C346.76 196.773 333.66 183.073 317.5 183.073C301.34 183.073 288.24 196.773 288.24 213.673C288.24 230.572 301.34 244.272 317.5 244.272Z" fill="#FFB8B8"/>
<path d="M302.532 282.208C304.057 283.875 305.672 285.529 307.671 286.505C309.705 287.385 311.89 287.82 314.091 287.784C319.365 287.939 325.083 286.929 328.752 282.963C333.484 277.851 333.326 269.607 337.032 263.643C337.331 263.102 337.738 262.635 338.227 262.276C338.849 261.922 339.551 261.753 340.259 261.787C344.941 261.742 349.019 264.917 352.7 267.944C354.35 269.299 356.039 270.704 357.079 272.609C357.807 274.094 358.306 275.69 358.556 277.339C360.383 286.664 360.974 296.198 361.561 305.697C361.885 310.944 362.21 316.195 362.184 321.453C362.104 338.774 358.254 355.806 354.426 372.658C353.933 374.83 353.258 377.257 351.369 378.297C350.529 378.692 349.626 378.922 348.706 378.976C337.741 380.323 326.753 381.672 315.711 381.849C311.403 381.919 307.097 381.81 302.793 381.524C302.051 381.514 301.315 381.38 300.614 381.127C299.663 380.65 298.846 379.924 298.241 379.02C292.27 371.151 291.917 360.27 291.953 350.226C292.047 325.665 292.886 301.124 294.471 276.602C294.602 274.578 294.63 272.12 293.236 270.528C295.755 274.73 299.247 278.618 302.532 282.208Z" fill="#D0CDE1"/>
<path d="M296.334 246.878C295.346 248.748 288.06 253.394 286.654 254.944C278.795 263.607 264.451 263.282 257.264 272.561C254.735 275.826 253.421 279.928 252.455 284.005C251.085 289.773 250.358 296.063 252.648 301.502C254.851 306.735 259.488 310.352 262.636 315.027C266.093 320.159 267.648 326.391 269.137 332.475C270.237 336.967 271.346 341.567 270.917 346.18C270.431 351.426 268.003 356.229 266.57 361.285C265.137 366.34 264.889 372.352 268.203 376.324C270.637 379.241 274.456 380.398 278.105 381.048C282.78 381.783 287.494 382.212 292.22 382.333C296.391 382.528 300.991 382.564 304.198 379.766C306.729 377.559 307.829 373.977 307.972 370.535C308.114 367.092 307.429 363.679 307 360.262C306.555 356.721 306.384 353.148 306.241 349.578C305.599 333.562 305.512 317.537 305.978 301.502C306.075 298.166 306.193 294.788 305.513 291.526C304.619 287.237 302.4 283.403 300.552 279.462C296.879 271.639 295.144 264.039 295.712 255.344C296.272 246.758 299.851 240.219 296.334 246.878Z" fill="#FFCE55"/>
<path d="M337.421 247.529C338.926 249.147 344.041 249.677 345.956 250.719C347.757 251.589 349.636 252.269 351.566 252.75C358.551 254.857 365.194 258.046 371.276 262.211C372.54 262.984 373.657 263.993 374.572 265.188C375.643 266.747 376.032 268.691 376.395 270.572C377.333 275.429 378.275 280.344 378.064 285.294C377.841 290.549 376.327 295.638 374.827 300.659L369.217 319.415C365.03 333.413 360.813 347.554 359.638 362.171C358.986 370.273 359.275 378.427 360.5 386.455C360.625 387.263 360.727 388.188 360.218 388.808C359.848 389.19 359.362 389.424 358.844 389.469C356.136 389.911 353.516 388.468 351.062 387.19C343.564 383.288 335.562 380.549 327.309 379.061C330.534 374.187 333.022 368.823 334.686 363.156C335.632 359.559 336.376 355.907 336.916 352.219L339.525 336.434C340.588 330.664 341.336 324.837 341.767 318.978C341.964 316.78 341.841 314.563 341.403 312.403C340.802 310.347 340.003 308.361 339.019 306.473C334.718 297.117 332.7 286.44 334.393 276.211C335.133 271.734 336.571 267.252 335.972 262.752C335.395 258.426 335.994 255.064 334.934 250.783C330.573 233.206 334.589 244.484 337.421 247.529Z" fill="#FFCE55"/>
<path d="M257.189 287.352C255.228 291.608 251.95 295.23 250.835 299.81C250.401 301.949 250.214 304.135 250.281 306.32C250.254 309.614 250.237 312.975 251.204 316.11C251.827 318.128 252.841 319.99 253.57 321.969C254.587 324.734 255.041 327.69 254.901 330.649C254.704 334.75 253.372 338.726 253.268 342.829C253.104 349.28 255.958 355.345 258.742 361.104C259.443 359.289 260.515 357.656 261.882 356.319C263.249 354.982 264.88 353.974 266.659 353.365C268.438 352.756 270.322 352.561 272.181 352.793C274.04 353.026 275.827 353.68 277.419 354.711C278.153 354.002 278.232 352.836 278.26 351.792C278.468 344.307 278.667 336.822 278.856 329.337C279.158 317.76 279.445 306.029 276.898 294.759C275.748 289.671 273.96 284.603 270.68 280.655C268.953 278.577 263.091 273.103 260.257 275.431C258.982 276.478 259.28 279.328 259.078 280.77C258.772 283.052 258.135 285.271 257.189 287.352Z" fill="#FFCE55"/>
<path d="M378.638 275.09C379.566 278.111 379.621 281.341 379.639 284.509C379.677 290.979 379.594 297.449 379.39 303.918C379.287 307.229 379.145 310.586 378.185 313.744C377.552 315.827 376.574 317.781 375.921 319.854C373.961 326.074 375.032 332.819 375.2 339.366C375.318 341.484 375.145 343.61 374.686 345.677C373.652 349.735 370.872 353.014 368.932 356.691C367.09 360.184 365.978 364.098 363.778 367.356C361.577 370.614 357.768 373.196 354.076 372.196C351.278 371.438 349.29 368.849 347.913 366.19C344.912 360.346 343.886 353.613 345 347.083C346.381 339.14 350.844 332.089 352.453 324.192C354.663 313.346 351.304 302.154 351.404 291.065C351.358 289.327 351.584 287.593 352.071 285.93C352.916 283.398 354.728 281.373 356.404 279.344C358.497 276.805 360.441 274.137 362.226 271.353C363.425 269.482 365.054 264.672 367.18 264.273C371.933 263.379 377.461 271.256 378.638 275.09Z" fill="#FFCE55"/>
<path d="M232.56 383.194C229.936 382.505 227.233 382.204 224.529 382.301C221.687 382.466 218.912 383.261 216.387 384.634C213.861 386.007 211.645 387.927 209.884 390.265C208.123 392.603 206.859 395.307 206.174 398.196C205.49 401.085 205.401 404.093 205.915 407.021C206.57 410.192 207.642 413.254 209.099 416.118C211.229 420.64 213.785 425.152 217.729 428.049C220.036 429.741 222.709 430.801 225.345 431.84L246.119 440.025C249.175 441.229 252.232 442.434 255.318 443.55C270.823 449.154 286.988 452.515 303.364 453.539C308.352 453.849 313.416 453.936 318.283 452.748C319.437 452.466 320.669 452.046 321.338 451.022C321.735 450.301 321.969 449.495 322.023 448.664L323.301 439.305C323.481 437.988 323.654 436.601 323.193 435.36C322.607 433.787 321.138 432.797 319.739 431.957C306.082 423.754 290.136 419.228 278.64 407.97C275.934 405.319 273.669 401.118 270.382 399.318C266.653 397.276 262.262 396.111 258.408 394.23C249.975 390.116 241.692 385.39 232.56 383.194Z" fill="#2F2E41"/>
<path opacity="0.1" d="M253.298 395.811C260.64 398.22 291.641 414.887 296.955 420.707C296.243 420.976 272.077 406.813 271.352 406.585C264.76 404.516 258.133 402.434 251.874 399.407C250.614 398.798 243.693 395.935 244.006 394.273C244.36 392.398 251.994 395.383 253.298 395.811Z" fill="black"/>
<path d="M344.902 458.392C345.319 458.424 345.732 458.296 346.066 458.034C346.213 457.837 346.32 457.612 346.382 457.371C346.445 457.131 346.461 456.88 346.43 456.632C346.418 452.382 346.407 448.133 346.395 443.883C342.89 442.136 338.968 441.576 335.119 441.038L317.159 438.527C317.571 438.585 314.35 446.617 314.845 447.689C315.716 449.577 322.367 451.254 324.245 452.146C330.771 455.249 337.552 458.659 344.902 458.392Z" fill="#FFB8B8"/>
<path d="M288.554 443.839C285.163 444.404 281.379 444.902 279.183 447.664C276.398 451.164 277.583 456.383 278.912 460.72C279.109 461.597 279.506 462.412 280.067 463.096C280.974 464.031 282.363 464.168 283.634 464.252C286.727 464.457 290.018 464.617 292.72 463.03C293.944 462.185 295.122 461.269 296.249 460.287C298.242 458.9 300.432 457.853 302.738 457.185C306.978 455.79 311.342 454.849 315.764 454.377C317.506 454.294 319.23 453.976 320.895 453.431C322.525 452.789 324.035 451.515 324.505 449.762C325.131 447.445 323.844 445.083 322.609 443.051C321.07 440.52 319.44 437.854 317.146 435.991C313.8 433.272 312.145 435.359 308.774 437.098C302.393 440.391 295.576 442.663 288.551 443.837L288.554 443.839Z" fill="#FFB8B8"/>
<path d="M279.693 447.033L258.162 440.378C255.544 439.569 252.88 438.751 250.149 438.755C247.418 438.758 244.562 439.693 242.791 441.867C241.121 443.916 240.643 446.717 240.227 449.373L239.337 455.056C238.884 457.944 238.431 460.888 238.839 463.784C239.246 466.679 240.66 469.572 243.116 470.974C246.096 472.674 249.748 471.844 253.073 471.133C259.789 469.697 266.621 468.931 273.477 468.844C276.054 468.812 278.757 468.844 281.034 467.584C283.741 466.086 285.361 462.911 285.641 459.72C286.062 454.865 284.516 448.524 279.693 447.033Z" fill="#2F2E41"/>
<path d="M353.366 441.233C356.158 440.721 358.621 439.063 361.296 438.083C365.06 436.705 369.14 436.705 373.129 436.72C374.593 436.726 376.152 436.76 377.371 437.609C379.127 438.832 379.578 441.28 379.876 443.465L381.682 456.649C382.021 459.129 382.358 461.674 381.829 464.118C381.301 466.561 379.708 468.916 377.39 469.546C374.574 470.312 371.814 468.431 369.156 467.195C362.512 464.107 354.788 464.896 347.86 462.588C346.574 462.16 345.197 461.505 344.672 460.205C344.435 459.473 344.35 458.696 344.423 457.926C344.542 453.688 343.688 447.9 344.907 443.852C346.003 440.21 350.251 441.233 353.366 441.233Z" fill="#2F2E41"/>
<path d="M398.93 377.888C403.232 376.76 407.692 376.442 412.101 376.948C415.622 377.353 419.251 378.38 421.821 380.927C424.95 384.029 425.955 388.827 426.039 393.335C426.177 402.315 423.329 411.065 417.982 418.093C416.677 419.87 415.124 421.433 413.376 422.73C411.49 423.964 409.48 424.977 407.382 425.75L360.86 444.94C348.622 449.988 336.339 455.052 323.574 458.38C323.225 458.556 322.846 458.658 322.459 458.678C322.072 458.699 321.685 458.638 321.32 458.5C320.956 458.362 320.622 458.149 320.337 457.874C320.053 457.599 319.824 457.267 319.664 456.897C315.588 450.809 312.168 444.267 309.468 437.392C309.34 437.229 309.252 437.035 309.21 436.829C309.169 436.622 309.176 436.408 309.23 436.205C309.285 436.002 309.385 435.815 309.523 435.661C309.661 435.507 309.833 435.39 310.023 435.32L342.928 415.548C345.285 414.132 347.669 412.695 349.626 410.722C351.048 409.281 352.212 407.586 353.064 405.716C353.749 404.227 353.811 400.71 354.683 399.609C355.536 398.531 358.454 398.445 359.801 398.021C361.702 397.412 363.563 396.676 365.374 395.818C372.734 392.374 379.289 387.37 386.345 383.338C390.303 380.972 394.532 379.141 398.931 377.89L398.93 377.888Z" fill="#2F2E41"/>
<path opacity="0.1" d="M380.277 392.654C374.624 397.094 367.304 401.177 361.701 405.734C359.789 407.29 327.912 426.032 327.461 428.521C332.69 429.443 365.986 405.083 370.751 402.65C375.515 400.217 379.738 396.791 383.922 393.389C384.989 392.522 389.509 389.915 386.447 388.946C384.722 388.4 381.55 391.766 380.277 392.654Z" fill="black"/>
<path d="M349.265 186.551L324.096 172.764L289.338 178.404L282.146 211.62L300.048 210.9L305.049 198.697V210.699L313.309 210.366L318.102 190.939L321.099 211.62L350.463 210.993L349.265 186.551Z" fill="#2F2E41"/>
<path d="M343.646 254.689H289.484V323.05H343.646V254.689Z" fill="#3F3D56"/>
<path d="M263.774 373.586C265.019 375.528 266.475 377.427 268.473 378.474C269.746 379.083 271.136 379.378 272.536 379.339C273.936 379.3 275.308 378.927 276.549 378.248C279.027 376.858 281.055 374.731 282.377 372.136C285.113 367.085 285.677 361.04 285.338 355.246C284.999 349.452 283.813 343.746 283.29 337.967C282.909 333.766 282.878 329.54 282.848 325.32C282.753 324.432 282.931 323.536 283.356 322.762C283.962 321.897 285.071 321.655 286.054 321.353C291.575 319.637 295.239 314.226 297.866 308.866C299.621 305.286 301.146 301.375 300.808 297.369C300.47 293.364 297.716 289.328 293.89 288.919C290.736 288.582 287.824 290.677 285.548 292.986C279.808 298.847 276.12 306.556 275.075 314.874C274.577 318.947 274.719 323.132 273.659 327.086C271.397 335.53 264.321 340.706 260.793 348.303C256.906 356.674 259.052 366.178 263.774 373.586Z" fill="#FFB8B8"/>
<path d="M367.921 341.329C367.117 343.287 365.945 345.057 364.475 346.534C363.006 348.011 361.268 349.165 359.365 349.928C357 350.921 354.39 351.088 351.927 350.404C350.705 350.05 349.578 349.405 348.633 348.521C347.688 347.637 346.95 346.537 346.478 345.307C346.101 344.068 345.894 342.778 345.864 341.478C345.51 335.784 345.647 329.917 347.624 324.599C348.387 322.548 349.415 320.603 350.017 318.494C350.609 316.059 350.912 313.556 350.919 311.043L351.569 295.508C351.676 294.38 351.602 293.241 351.348 292.139C350.7 289.891 348.691 288.429 346.848 287.09C342.396 283.852 337.997 280.075 335.84 274.872C335.099 273.306 334.834 271.54 335.079 269.812C335.688 266.727 338.665 264.73 341.607 264.057C343.532 263.617 345.523 263.589 347.458 263.974C349.394 264.36 351.236 265.152 352.871 266.301C354.507 267.451 355.903 268.935 356.975 270.664C358.048 272.393 358.774 274.331 359.112 276.362C359.403 278.115 359.399 279.906 359.569 281.676C359.931 285.432 361.071 289.052 361.784 292.753C363.541 301.868 362.631 311.289 364.368 320.402C365.82 328.02 371.297 332.992 367.921 341.329Z" fill="#FFB8B8"/>
<path d="M32.7646 436.346L31.5195 436.32C32.0012 421.843 33.4783 407.42 35.9396 393.164C41.3234 362.642 50.2763 342.597 62.5492 333.585L63.2639 334.651C34.5943 355.701 32.7789 435.541 32.7646 436.346Z" fill="#2F2E41"/>
<path d="M48.3291 436.034L47.084 436.008C47.1108 434.566 47.8889 400.582 60.6823 391.189L61.397 392.254C49.1191 401.269 48.3353 435.687 48.3291 436.034Z" fill="#2F2E41"/>
<path d="M70.3485 334.768C73.7868 334.768 76.574 331.854 76.574 328.258C76.574 324.662 73.7868 321.747 70.3485 321.747C66.9103 321.747 64.123 324.662 64.123 328.258C64.123 331.854 66.9103 334.768 70.3485 334.768Z" fill="#FFCE55"/>
<path d="M67.2646 390.759C70.7028 390.759 73.49 387.844 73.49 384.248C73.49 380.653 70.7028 377.738 67.2646 377.738C63.8263 377.738 61.0391 380.653 61.0391 384.248C61.0391 387.844 63.8263 390.759 67.2646 390.759Z" fill="#FFCE55"/>
<path d="M45.4275 338.672C46.5973 346.484 43.5481 353.477 43.5481 353.477C43.5481 353.477 38.6019 347.796 37.4315 339.981C36.2611 332.166 39.311 325.175 39.311 325.175C39.311 325.175 44.2571 330.856 45.4275 338.672Z" fill="#2F2E41"/>
<path d="M65.776 357.652C58.6211 360.218 51.5078 358.296 51.5078 358.296C51.5078 358.296 55.9951 352.213 63.1495 349.646C70.3038 347.08 77.4177 349.002 77.4177 349.002C77.4177 349.002 72.931 355.083 65.776 357.652Z" fill="#2F2E41"/>
<path d="M66.0065 407.237C62.7683 408.301 59.3197 408.457 56.0059 407.689C58.1103 404.888 60.9444 402.783 64.1666 401.628C67.3887 400.472 70.8616 400.316 74.1669 401.177C72.0013 403.911 69.1874 406.001 66.0065 407.24V407.237Z" fill="#2F2E41"/>
</svg>
