<svg width="255" height="192" viewBox="0 0 255 192" fill="none" xmlns="http://www.w3.org/2000/svg">
<path d="M125.5 192C161.26 192 190.25 188.195 190.25 183.501C190.25 178.807 161.26 175.002 125.5 175.002C89.7396 175.002 60.75 178.807 60.75 183.501C60.75 188.195 89.7396 192 125.5 192Z" fill="#3F3D56"/>
<path d="M235.031 110.831L210 123.223L232.153 105.895C228.553 100.016 224.508 94.4485 220.057 89.2452L111.5 117.47L209.558 78.3415C205.077 74.2059 200.318 70.4118 195.318 66.9883L29.902 94.8593C12.3392 117.833 2.7653 146.37 2.75195 175.786H251.749C251.739 152.973 245.972 130.566 235.032 110.83L235.031 110.831Z" fill="#F2F2F2"/>
<path d="M181.781 58.9422C164.797 50.2776 146.145 45.788 127.25 45.8162C88.7923 45.8162 54.4095 64.0573 31.5723 92.7178C70.6788 83.754 138.767 68.2383 181.781 58.9422Z" fill="#F2F2F2"/>
<path opacity="0.4" d="M206.269 71.4656C208.329 71.4656 209.999 69.7187 209.999 67.5638C209.999 65.409 208.329 63.6621 206.269 63.6621C204.209 63.6621 202.539 65.409 202.539 67.5638C202.539 69.7187 204.209 71.4656 206.269 71.4656Z" fill="#FF0D0D"/>
<path opacity="0.4" d="M199.367 72.1644C200.812 72.1644 201.983 70.939 201.983 69.4275C201.983 67.9159 200.812 66.6905 199.367 66.6905C197.921 66.6905 196.75 67.9159 196.75 69.4275C196.75 70.939 197.921 72.1644 199.367 72.1644Z" fill="#FF0D0D"/>
<path opacity="0.4" d="M29.689 86.0752C34.0034 86.0752 37.501 82.4166 37.501 77.9035C37.501 73.3904 34.0034 69.7318 29.689 69.7318C25.3745 69.7318 21.877 73.3904 21.877 77.9035C21.877 82.4166 25.3745 86.0752 29.689 86.0752Z" fill="#FF0D0D"/>
<path opacity="0.4" d="M15.23 87.5386C18.2565 87.5386 20.71 84.9722 20.71 81.8063C20.71 78.6404 18.2565 76.074 15.23 76.074C12.2035 76.074 9.75 78.6404 9.75 81.8063C9.75 84.9722 12.2035 87.5386 15.23 87.5386Z" fill="#FF0D0D"/>
<path d="M255 175.525H0V176.048H255V175.525Z" fill="#2F2E41"/>
<path d="M226.11 175.525L206.25 144.667C206.25 144.667 236.327 155.651 232.913 175.525H226.11Z" fill="#3F3D56"/>
<path d="M226.89 175.525L246.75 144.667C246.75 144.667 216.673 155.651 220.086 175.525H226.89Z" fill="#FC6E51"/>
<path d="M52 34.7209C52 33.0211 49.684 31.6445 46.8273 31.6445C46.7708 31.6445 46.7148 31.6461 46.6588 31.6471C45.797 28.8838 41.723 26.7909 36.8265 26.7909C32.6605 26.7909 29.09 28.3058 27.5865 30.4599C26.4756 30.1523 25.3309 29.999 24.1818 30.0038C19.8013 30.0038 16.25 32.1158 16.25 34.7209C16.25 37.0873 19.1805 39.0466 23 39.3858C25.775 39.9166 30.1125 40.2584 34.9863 40.2584C43.2613 40.2584 49.3148 38.6075 49.4665 37.3664C50.9835 36.8298 52 35.8462 52 34.7209Z" fill="#F2F2F2"/>
<path d="M177 36.0286C177 34.3287 174.684 32.9521 171.827 32.9521C171.771 32.9521 171.715 32.9537 171.659 32.9548C170.797 30.1914 166.723 28.0985 161.826 28.0985C157.66 28.0985 154.09 29.6134 152.586 31.7675C151.476 31.4599 150.331 31.3066 149.182 31.3114C144.801 31.3114 141.25 33.4234 141.25 36.0286C141.25 38.395 144.18 40.3542 148 40.6934C150.775 41.2243 155.112 41.566 159.986 41.566C168.261 41.566 174.315 39.9151 174.466 38.674C175.983 38.1374 177 37.1538 177 36.0286Z" fill="#F2F2F2"/>
<path d="M246.749 13.9192C246.749 10.9379 242.684 8.51949 237.67 8.51949C237.57 8.51949 237.472 8.52211 237.374 8.52394C235.861 3.67344 228.71 0 220.116 0C212.803 0 206.536 2.6593 203.897 6.43996C201.947 5.90024 199.939 5.63111 197.922 5.63948C190.233 5.63948 184 9.34639 184 13.9189C184 18.0727 189.144 21.5113 195.85 22.1065C200.723 23.0386 208.334 23.6382 216.889 23.6382C231.412 23.6382 242.039 20.7401 242.305 18.562C244.965 17.6208 246.749 15.8944 246.749 13.9192Z" fill="#F2F2F2"/>
<path d="M142.543 75.8137C137.372 66.6737 127.142 66.2479 127.142 66.2479C127.142 66.2479 117.172 64.9142 110.777 78.8347C104.816 91.8095 96.5897 104.337 109.452 107.374L111.776 99.8094L113.215 107.937C115.046 108.075 116.884 108.108 118.718 108.035C132.493 107.57 145.613 108.171 145.19 103.001C144.629 96.1273 147.519 84.6083 142.543 75.8137Z" fill="#2F2E41"/>
<path d="M108.717 155.857C108.565 156.862 108.345 157.855 108.057 158.827C107.734 159.779 107.234 160.659 106.938 161.621C105.995 164.686 107.303 168.104 109.391 170.47C111.202 172.513 113.539 173.965 116.121 174.65C118.005 175.147 119.964 175.217 121.905 175.286C127.28 175.477 132.795 175.648 137.888 173.84C139.498 173.255 141.052 172.517 142.532 171.634C142.999 171.401 143.411 171.062 143.737 170.641C144.126 170.063 144.175 169.312 144.172 168.605C144.16 166.221 143.698 163.85 143.808 161.469C143.869 160.15 144.105 158.832 143.989 157.517C143.828 156.024 143.23 154.619 142.277 153.495C141.324 152.371 140.062 151.583 138.664 151.238C137.219 150.913 135.72 151.09 134.249 151.238C130.43 151.622 126.595 151.801 122.759 151.775C118.839 151.749 114.944 151.123 111.044 151.058C109.89 151.039 109.914 151.41 109.546 152.578C109.208 153.653 108.932 154.748 108.718 155.857H108.717Z" fill="#2F2E41"/>
<path d="M119.841 96.9938C119.653 98.0254 119.449 99.095 118.856 99.9428C118.174 100.918 117.062 101.476 116.329 102.409C115.225 103.814 115.161 105.792 115.157 107.611C115.152 109.286 115.185 111.074 116.078 112.464C116.658 113.367 117.54 114 118.403 114.609C121.753 116.971 125.374 119.374 129.413 119.452C131.086 119.484 132.881 119.033 133.982 117.714C134.457 117.094 134.831 116.397 135.088 115.649C136.121 112.986 136.747 110.17 136.943 107.303C137.035 105.954 137.027 104.567 136.59 103.294C136.099 101.863 135.107 100.685 134.452 99.3285C133.676 97.7151 133.393 95.8918 133.639 94.1046C133.672 93.9787 133.662 93.8449 133.611 93.7259C133.557 93.6625 133.489 93.6129 133.414 93.5812C133.339 93.5494 133.257 93.5363 133.176 93.5429L125.167 92.9398C124.421 92.901 123.679 92.8121 122.944 92.6736C122.512 92.5818 121.372 91.9414 120.96 92.1109C120.197 92.4255 119.997 96.1389 119.841 96.9938Z" fill="#FFB8B8"/>
<path opacity="0.1" d="M119.841 96.9938C119.653 98.0254 119.449 99.095 118.856 99.9428C118.174 100.918 117.062 101.476 116.329 102.409C115.225 103.814 115.161 105.792 115.157 107.611C115.152 109.286 115.185 111.074 116.078 112.464C116.658 113.367 117.54 114 118.403 114.609C121.753 116.971 125.374 119.374 129.413 119.452C131.086 119.484 132.881 119.033 133.982 117.714C134.457 117.094 134.831 116.397 135.088 115.649C136.121 112.986 136.747 110.17 136.943 107.303C137.035 105.954 137.027 104.567 136.59 103.294C136.099 101.863 135.107 100.685 134.452 99.3285C133.676 97.7151 133.393 95.8918 133.639 94.1046C133.672 93.9787 133.662 93.8449 133.611 93.7259C133.557 93.6625 133.489 93.6129 133.414 93.5812C133.339 93.5494 133.257 93.5363 133.176 93.5429L125.167 92.9398C124.421 92.901 123.679 92.8121 122.944 92.6736C122.512 92.5818 121.372 91.9414 120.96 92.1109C120.197 92.4255 119.997 96.1389 119.841 96.9938Z" fill="black"/>
<path d="M127.5 98.1178C133.989 98.1178 139.25 92.6149 139.25 85.8268C139.25 79.0386 133.989 73.5358 127.5 73.5358C121.011 73.5358 115.75 79.0386 115.75 85.8268C115.75 92.6149 121.011 98.1178 127.5 98.1178Z" fill="#FFB8B8"/>
<path d="M121.489 113.356C122.102 114.025 122.75 114.689 123.553 115.082C124.37 115.435 125.247 115.61 126.131 115.595C128.249 115.657 130.545 115.252 132.019 113.659C133.919 111.605 133.855 108.294 135.344 105.898C135.464 105.681 135.627 105.494 135.823 105.349C136.073 105.207 136.355 105.139 136.639 105.153C138.52 105.135 140.157 106.41 141.636 107.626C142.298 108.17 142.976 108.735 143.394 109.5C143.686 110.096 143.886 110.738 143.987 111.4C144.721 115.145 144.958 118.975 145.194 122.79C145.324 124.898 145.454 127.007 145.444 129.119C145.412 136.076 143.866 142.918 142.329 149.687C142.131 150.559 141.859 151.534 141.101 151.952C140.764 152.11 140.401 152.203 140.032 152.225C135.628 152.766 131.216 153.307 126.782 153.379C125.052 153.407 123.322 153.363 121.594 153.248C121.296 153.244 121.001 153.19 120.719 153.089C120.337 152.897 120.009 152.606 119.766 152.242C117.368 149.082 117.227 144.711 117.241 140.677C117.279 130.811 117.616 120.953 118.252 111.104C118.305 110.291 118.316 109.304 117.756 108.664C118.768 110.352 120.17 111.913 121.489 113.356Z" fill="#D0CDE1"/>
<path d="M118.999 99.1643C118.603 99.9156 115.677 101.782 115.112 102.404C111.956 105.884 106.196 105.754 103.31 109.481C102.294 110.792 101.767 112.44 101.378 114.077C100.828 116.394 100.537 118.921 101.456 121.105C102.341 123.207 104.203 124.66 105.467 126.538C106.855 128.599 107.48 131.103 108.078 133.546C108.519 135.351 108.965 137.198 108.793 139.051C108.597 141.158 107.622 143.088 107.047 145.119C106.471 147.149 106.372 149.564 107.703 151.159C108.68 152.331 110.214 152.796 111.679 153.057C113.556 153.352 115.449 153.524 117.347 153.573C119.022 153.652 120.869 153.666 122.157 152.542C123.174 151.655 123.615 150.217 123.673 148.834C123.73 147.451 123.455 146.08 123.282 144.708C123.104 143.285 123.035 141.85 122.978 140.416C122.72 133.983 122.685 127.546 122.872 121.106C122.911 119.765 122.958 118.409 122.685 117.098C122.326 115.375 121.435 113.836 120.693 112.252C119.218 109.11 118.521 106.057 118.749 102.565C118.974 99.1162 120.412 96.4899 118.999 99.1643Z" fill="#D64545"/>
<path d="M135.5 99.4258C136.105 100.076 138.159 100.289 138.928 100.707C139.651 101.057 140.406 101.33 141.181 101.523C143.986 102.369 146.653 103.65 149.096 105.323C149.603 105.634 150.052 106.039 150.419 106.519C150.849 107.145 151.005 107.926 151.151 108.682C151.528 110.633 151.906 112.607 151.822 114.595C151.732 116.706 151.124 118.75 150.522 120.767L148.269 128.301C146.587 133.923 144.894 139.603 144.422 145.475C144.16 148.729 144.276 152.004 144.768 155.229C144.818 155.553 144.859 155.925 144.655 156.174C144.506 156.327 144.311 156.421 144.103 156.439C143.016 156.617 141.964 156.037 140.978 155.524C137.967 153.957 134.754 152.857 131.439 152.259C132.735 150.301 133.734 148.146 134.402 145.87C134.782 144.425 135.081 142.958 135.297 141.477L136.345 135.137C136.772 132.819 137.073 130.478 137.245 128.125C137.325 127.242 137.275 126.352 137.099 125.484C136.858 124.658 136.537 123.86 136.142 123.102C134.415 119.344 133.605 115.055 134.284 110.947C134.582 109.148 135.159 107.348 134.918 105.541C134.687 103.803 134.927 102.452 134.501 100.733C132.75 93.6725 134.363 98.2027 135.5 99.4258Z" fill="#D64545"/>
<path d="M103.279 115.422C102.492 117.131 101.176 118.586 100.728 120.426C100.553 121.285 100.479 122.163 100.505 123.041C100.495 124.364 100.488 125.714 100.876 126.973C101.126 127.784 101.533 128.531 101.826 129.327C102.235 130.437 102.417 131.625 102.36 132.813C102.281 134.46 101.747 136.057 101.705 137.705C101.639 140.297 102.785 142.733 103.903 145.046C104.185 144.317 104.615 143.661 105.164 143.124C105.713 142.587 106.368 142.182 107.082 141.937C107.797 141.693 108.554 141.614 109.3 141.708C110.046 141.801 110.764 142.064 111.403 142.478C111.698 142.193 111.73 141.725 111.741 141.305C111.825 138.299 111.904 135.293 111.98 132.286C112.101 127.636 112.217 122.924 111.194 118.397C110.732 116.353 110.014 114.318 108.697 112.732C108.004 111.897 105.65 109.698 104.511 110.633C103.999 111.054 104.119 112.199 104.038 112.778C103.915 113.694 103.659 114.586 103.279 115.422Z" fill="#D64545"/>
<path d="M152.051 110.497C152.424 111.71 152.446 113.007 152.453 114.28C152.468 116.879 152.435 119.477 152.353 122.076C152.312 123.406 152.255 124.754 151.869 126.023C151.615 126.86 151.222 127.644 150.96 128.477C150.173 130.975 150.603 133.685 150.67 136.314C150.718 137.165 150.648 138.019 150.464 138.849C150.049 140.479 148.933 141.796 148.154 143.274C147.414 144.676 146.967 146.249 146.084 147.557C145.2 148.866 143.67 149.903 142.188 149.501C141.064 149.197 140.266 148.157 139.713 147.089C138.508 144.741 138.096 142.037 138.543 139.414C139.097 136.224 140.89 133.392 141.536 130.219C142.423 125.863 141.075 121.367 141.115 116.913C141.096 116.215 141.187 115.518 141.383 114.851C141.722 113.833 142.45 113.02 143.122 112.205C143.963 111.185 144.744 110.113 145.461 108.995C145.942 108.244 146.596 106.312 147.45 106.151C149.358 105.793 151.578 108.956 152.051 110.497Z" fill="#D64545"/>
<path d="M93.3907 153.919C92.3371 153.642 91.2515 153.521 90.1657 153.56C89.0245 153.626 87.9099 153.946 86.8959 154.497C85.8819 155.049 84.9917 155.82 84.2846 156.759C83.5775 157.698 83.0697 158.784 82.7948 159.945C82.52 161.105 82.4845 162.314 82.6907 163.49C82.9539 164.763 83.3842 165.993 83.9692 167.144C84.8247 168.96 85.8509 170.772 87.4349 171.936C88.3614 172.616 89.4349 173.041 90.4934 173.459L98.8357 176.746C100.063 177.23 101.29 177.714 102.53 178.162C108.756 180.413 115.248 181.763 121.824 182.174C123.827 182.299 125.86 182.334 127.815 181.857C128.278 181.744 128.773 181.575 129.042 181.164C129.201 180.874 129.295 180.55 129.317 180.217L129.83 176.457C129.902 175.928 129.972 175.371 129.786 174.873C129.551 174.241 128.961 173.843 128.4 173.506C122.915 170.211 116.512 168.393 111.895 163.871C110.809 162.806 109.899 161.118 108.579 160.395C107.082 159.575 105.318 159.107 103.771 158.352C100.384 156.699 97.0577 154.801 93.3907 153.919Z" fill="#2F2E41"/>
<path opacity="0.1" d="M101.718 158.987C104.666 159.955 117.116 166.649 119.249 168.987C118.963 169.095 109.259 163.406 108.968 163.315C106.321 162.484 103.659 161.647 101.146 160.431C100.64 160.187 97.8606 159.037 97.9866 158.369C98.1286 157.616 101.194 158.815 101.718 158.987Z" fill="black"/>
<path d="M138.505 184.124C138.672 184.137 138.839 184.086 138.973 183.98C139.031 183.901 139.075 183.811 139.1 183.714C139.125 183.617 139.131 183.516 139.119 183.417C139.114 181.71 139.109 180.003 139.105 178.296C137.697 177.594 136.122 177.37 134.576 177.153L127.364 176.145C127.53 176.168 126.236 179.394 126.435 179.825C126.785 180.583 129.456 181.257 130.21 181.615C132.83 182.862 135.554 184.231 138.505 184.124Z" fill="#FFB8B8"/>
<path d="M115.876 178.278C114.515 178.505 112.995 178.706 112.113 179.815C110.995 181.221 111.471 183.317 112.004 185.059C112.083 185.411 112.243 185.739 112.468 186.013C112.832 186.389 113.39 186.444 113.901 186.478C115.142 186.56 116.464 186.624 117.549 185.987C118.041 185.647 118.514 185.279 118.966 184.885C119.766 184.328 120.646 183.908 121.572 183.639C123.275 183.079 125.027 182.701 126.803 182.511C127.502 182.478 128.195 182.35 128.863 182.131C129.518 181.874 130.124 181.362 130.313 180.658C130.565 179.727 130.048 178.778 129.552 177.962C128.934 176.945 128.279 175.875 127.358 175.126C126.014 174.034 125.35 174.872 123.996 175.571C121.434 176.893 118.696 177.806 115.875 178.278L115.876 178.278Z" fill="#FFB8B8"/>
<path d="M112.318 179.561L103.671 176.888C102.62 176.563 101.55 176.235 100.454 176.236C99.3568 176.238 98.2098 176.613 97.4985 177.486C96.828 178.309 96.6363 179.434 96.469 180.501L96.1115 182.784C95.9298 183.944 95.7478 185.127 95.9115 186.29C96.0753 187.453 96.6428 188.615 97.6293 189.178C98.8258 189.861 100.292 189.527 101.628 189.242C104.325 188.665 107.068 188.357 109.821 188.322C110.856 188.31 111.942 188.322 112.856 187.816C113.943 187.215 114.594 185.939 114.706 184.658C114.875 182.707 114.254 180.16 112.318 179.561Z" fill="#2F2E41"/>
<path d="M141.902 177.232C143.023 177.026 144.012 176.36 145.087 175.967C146.598 175.413 148.237 175.413 149.838 175.419C150.426 175.421 151.053 175.435 151.542 175.776C152.247 176.267 152.428 177.251 152.548 178.128L153.273 183.424C153.409 184.42 153.545 185.442 153.332 186.424C153.12 187.405 152.481 188.351 151.55 188.604C150.419 188.912 149.311 188.156 148.243 187.66C145.575 186.42 142.473 186.737 139.691 185.81C139.175 185.638 138.622 185.374 138.411 184.852C138.316 184.558 138.282 184.246 138.311 183.937C138.359 182.235 138.016 179.91 138.505 178.284C138.945 176.821 140.651 177.232 141.902 177.232Z" fill="#2F2E41"/>
<path d="M160.2 151.788C161.928 151.335 163.719 151.207 165.489 151.41C166.903 151.573 168.36 151.985 169.393 153.008C170.649 154.254 171.053 156.181 171.087 157.992C171.142 161.599 169.998 165.114 167.851 167.937C167.327 168.651 166.703 169.279 166.001 169.8C165.244 170.295 164.437 170.702 163.594 171.013L144.912 178.721C139.998 180.748 135.065 182.782 129.939 184.119C129.799 184.19 129.647 184.231 129.491 184.239C129.336 184.247 129.18 184.223 129.034 184.167C128.888 184.112 128.753 184.026 128.639 183.916C128.525 183.805 128.433 183.672 128.369 183.524C126.732 181.078 125.359 178.45 124.274 175.689C124.223 175.623 124.187 175.546 124.171 175.463C124.154 175.38 124.157 175.294 124.179 175.212C124.201 175.13 124.241 175.055 124.297 174.993C124.352 174.932 124.421 174.885 124.497 174.856L137.711 166.915C138.658 166.346 139.615 165.769 140.401 164.976C140.972 164.397 141.439 163.716 141.782 162.966C142.057 162.367 142.082 160.955 142.432 160.513C142.774 160.079 143.946 160.045 144.487 159.874C145.25 159.63 145.998 159.334 146.725 158.989C149.681 157.606 152.313 155.596 155.146 153.977C156.736 153.026 158.434 152.291 160.2 151.788L160.2 151.788Z" fill="#2F2E41"/>
<path opacity="0.1" d="M152.71 157.719C150.439 159.502 147.5 161.142 145.25 162.973C144.482 163.598 131.681 171.126 131.5 172.126C133.6 172.496 146.971 162.711 148.884 161.734C150.797 160.757 152.493 159.381 154.173 158.014C154.602 157.666 156.417 156.619 155.187 156.23C154.495 156.01 153.221 157.362 152.71 157.719Z" fill="black"/>
<path d="M140.256 74.9327L130.148 69.3947L116.191 71.6601L113.303 85.0021L120.491 84.7129L122.5 79.8111V84.6321L125.817 84.4985L127.742 76.695L128.945 85.0021L140.737 84.7503L140.256 74.9327Z" fill="#2F2E41"/>
<path d="M138 102.302H116.25V129.76H138V102.302Z" fill="#3F3D56"/>
<path d="M105.926 150.06C106.426 150.84 107.01 151.603 107.812 152.023C108.324 152.268 108.882 152.386 109.444 152.371C110.006 152.355 110.557 152.205 111.056 151.932C112.051 151.374 112.865 150.52 113.396 149.477C114.495 147.448 114.721 145.02 114.585 142.693C114.449 140.366 113.973 138.074 113.763 135.753C113.61 134.065 113.597 132.368 113.585 130.672C113.547 130.316 113.619 129.956 113.789 129.645C114.032 129.297 114.478 129.2 114.873 129.079C117.09 128.39 118.561 126.216 119.616 124.064C120.321 122.625 120.933 121.055 120.797 119.446C120.662 117.836 119.556 116.215 118.019 116.051C116.753 115.916 115.583 116.757 114.669 117.685C112.365 120.039 110.883 123.136 110.464 126.477C110.264 128.113 110.321 129.794 109.895 131.382C108.987 134.773 106.145 136.853 104.728 139.904C103.168 143.267 104.029 147.084 105.926 150.06Z" fill="#FFB8B8"/>
<path d="M147.748 137.103C147.425 137.889 146.954 138.6 146.364 139.194C145.774 139.787 145.076 140.25 144.312 140.557C143.362 140.956 142.314 141.023 141.325 140.748C140.834 140.606 140.381 140.347 140.002 139.992C139.622 139.637 139.326 139.195 139.136 138.701C138.985 138.203 138.902 137.685 138.89 137.163C138.748 134.876 138.803 132.519 139.597 130.383C139.903 129.559 140.316 128.778 140.558 127.931C140.796 126.952 140.917 125.947 140.92 124.938L141.181 118.698C141.224 118.245 141.194 117.787 141.092 117.345C140.832 116.442 140.026 115.854 139.285 115.316C137.497 114.016 135.731 112.499 134.865 110.409C134.567 109.78 134.461 109.071 134.559 108.376C134.803 107.137 135.999 106.335 137.18 106.065C137.954 105.888 138.753 105.877 139.53 106.032C140.308 106.187 141.047 106.504 141.704 106.966C142.361 107.428 142.921 108.024 143.352 108.719C143.783 109.413 144.075 110.192 144.21 111.007C144.327 111.712 144.325 112.431 144.394 113.142C144.539 114.651 144.997 116.105 145.283 117.591C145.989 121.252 145.623 125.037 146.321 128.697C146.904 131.757 149.103 133.754 147.748 137.103Z" fill="#FFB8B8"/>
<path d="M13.1582 175.269L12.6582 175.258C12.8516 169.443 13.4448 163.65 14.4332 157.924C16.5952 145.664 20.1905 137.612 25.1189 133.992L25.4059 134.42C13.893 142.876 13.164 174.945 13.1582 175.269Z" fill="#2F2E41"/>
<path d="M19.4082 175.143L18.9082 175.133C18.919 174.554 19.2315 160.903 24.369 157.13L24.656 157.558C19.7255 161.179 19.4107 175.004 19.4082 175.143Z" fill="#2F2E41"/>
<path d="M28.25 134.468C29.6307 134.468 30.75 133.297 30.75 131.853C30.75 130.408 29.6307 129.237 28.25 129.237C26.8693 129.237 25.75 130.408 25.75 131.853C25.75 133.297 26.8693 134.468 28.25 134.468Z" fill="#FC6E51"/>
<path d="M27.0117 156.958C28.3924 156.958 29.5117 155.787 29.5117 154.342C29.5117 152.898 28.3924 151.727 27.0117 151.727C25.631 151.727 24.5117 152.898 24.5117 154.342C24.5117 155.787 25.631 156.958 27.0117 156.958Z" fill="#FC6E51"/>
<path d="M18.2422 136.035C18.712 139.173 17.4875 141.982 17.4875 141.982C17.4875 141.982 15.5012 139.7 15.0312 136.561C14.5612 133.422 15.786 130.614 15.786 130.614C15.786 130.614 17.7722 132.896 18.2422 136.035Z" fill="#2F2E41"/>
<path d="M26.4133 143.659C23.5401 144.69 20.6836 143.918 20.6836 143.918C20.6836 143.918 22.4856 141.475 25.3586 140.444C28.2316 139.413 31.0883 140.185 31.0883 140.185C31.0883 140.185 29.2866 142.627 26.4133 143.659Z" fill="#2F2E41"/>
<path d="M26.5062 163.576C25.2059 164.004 23.821 164.066 22.4902 163.758C23.3353 162.633 24.4734 161.787 25.7674 161.323C27.0613 160.859 28.4559 160.796 29.7832 161.142C28.9136 162.24 27.7836 163.08 26.5062 163.578V163.576Z" fill="#2F2E41"/>
</svg>
