<svg width="258" height="156" viewBox="0 0 258 156" fill="none" xmlns="http://www.w3.org/2000/svg">
<g clip-path="url(#clip0)">
<path d="M39.9414 48.8856V56.7073C43.2122 56.7239 46.3433 58.0359 48.6503 60.3567C50.9572 62.6774 52.2523 65.818 52.2523 69.0917C52.2523 72.3654 50.9572 75.506 48.6503 77.8267C46.3433 80.1475 43.2122 81.4595 39.9414 81.4761V89.2978H80.3175V48.8856H39.9414Z" fill="#C9C9C9"/>
<path d="M39.9422 78.8692C45.3371 78.8692 49.7106 74.4918 49.7106 69.092C49.7106 63.6922 45.3371 59.3148 39.9422 59.3148C34.5473 59.3148 30.1738 63.6922 30.1738 69.092C30.1738 74.4918 34.5473 78.8692 39.9422 78.8692Z" fill="#C9C9C9"/>
<path d="M187.987 78.8801L172.141 69.1039V144.702H187.987V78.8801Z" fill="#C9C9C9"/>
<path d="M147.828 144.702H163.675V63.881L147.828 54.1048V144.702Z" fill="#C9C9C9"/>
<path d="M139.361 48.8816L60.1289 0V44.1059H85.5266V94.9471H60.1289V144.702H139.361V48.8816Z" fill="#C9C9C9"/>
<path d="M196.453 84.1031V144.701H204.702L227.06 102.985L196.453 84.1031Z" fill="#C9C9C9"/>
<path d="M227.237 115.782C214.087 125.621 210.379 142.906 210.379 142.906C210.379 142.906 227.992 144.239 241.142 134.401C254.293 124.562 258.001 107.277 258.001 107.277C258.001 107.277 240.387 105.943 227.237 115.782Z" fill="#D64545"/>
<path d="M210.389 142.739C210.389 142.739 210.196 142.631 209.846 142.416C209.568 142.245 209.185 142.005 208.723 141.7C204.591 138.975 193.886 130.959 189.495 118.591C184.002 103.105 190.489 86.6608 190.489 86.6608C190.489 86.6608 204.639 94.6229 210.649 108.924C210.911 109.54 211.154 110.169 211.381 110.809C216.161 124.282 211.871 138.483 210.676 141.944C210.497 142.463 210.389 142.739 210.389 142.739Z" fill="#D64545"/>
<path d="M210.453 143.228L210.252 143.082C210.108 142.978 195.836 132.483 192.169 116.575C188.502 100.667 196.736 84.9744 196.82 84.8178L196.937 84.5964L197.139 84.7426C197.283 84.8466 211.555 95.3414 215.222 111.249C218.889 127.158 210.654 142.85 210.571 143.006L210.453 143.228ZM197.087 85.2489C196.098 87.2253 189.201 101.768 192.592 116.477C195.983 131.187 208.549 141.234 210.303 142.576C211.293 140.6 218.19 126.058 214.799 111.348C211.408 96.6388 198.842 86.5918 197.087 85.2489Z" fill="#3F3D56"/>
<path opacity="0.1" d="M210.677 141.943C210.356 142.13 210.077 142.287 209.846 142.416C209.341 142.693 209.058 142.833 209.058 142.833C209.058 142.833 208.925 142.433 208.723 141.7C207.61 137.693 204.422 123.725 209.757 110.895C210.038 110.223 210.335 109.566 210.649 108.923C210.911 109.539 211.155 110.167 211.382 110.808C216.162 124.283 211.873 138.482 210.677 141.943Z" fill="black"/>
<path d="M232.726 120.385C226.42 135.558 210.586 143.393 210.586 143.393C210.586 143.393 204.976 126.629 211.283 111.456C217.589 96.2842 233.423 88.4489 233.423 88.4489C233.423 88.4489 239.033 105.214 232.726 120.385Z" fill="#D64545"/>
<path d="M255.605 147.851C255.605 149.885 243.911 151.747 224.578 153.175C221.063 153.434 217.295 153.678 213.301 153.909C209.847 154.107 206.229 154.294 202.445 154.469C198.778 154.636 194.971 154.79 191.024 154.933C178.556 155.387 164.775 155.713 150.134 155.876C146.582 155.915 142.981 155.946 139.331 155.968C135.533 155.989 131.69 156 127.803 156C57.2187 156 0 152.352 0 147.85C0 143.349 57.2187 139.701 127.803 139.701C158.189 139.701 186.097 140.378 208.032 141.504C208.839 141.546 209.638 141.587 210.429 141.628C210.434 141.631 210.439 141.632 210.445 141.631C238.071 143.129 255.605 145.359 255.605 147.851Z" fill="#3F3D56"/>
<path opacity="0.15" d="M255.605 147.851C255.605 149.885 243.911 151.747 224.578 153.175C221.063 153.434 217.295 153.678 213.301 153.909C209.847 154.107 206.229 154.294 202.445 154.469C198.778 154.636 194.971 154.79 191.024 154.933C178.556 155.387 164.775 155.713 150.134 155.876C146.582 155.915 142.981 155.946 139.331 155.968C135.533 155.989 131.69 156 127.803 156C57.2187 156 0 152.352 0 147.85C0 143.349 57.2187 139.701 127.803 139.701C158.189 139.701 186.097 140.378 208.032 141.504C208.839 141.546 209.638 141.587 210.429 141.628C210.434 141.631 210.439 141.632 210.445 141.631C238.071 143.129 255.605 145.359 255.605 147.851Z" fill="black"/>
<path d="M245.783 146.416C245.783 148.118 234.882 149.674 216.858 150.868C213.583 151.083 210.068 151.288 206.345 151.481C203.126 151.646 199.753 151.802 196.225 151.948C192.806 152.089 189.257 152.219 185.576 152.337C173.952 152.717 161.103 152.989 147.454 153.126C144.143 153.158 140.786 153.184 137.383 153.202C133.841 153.221 130.258 153.231 126.636 153.23C60.8321 153.23 7.48828 150.179 7.48828 146.416C7.48828 142.653 60.8333 139.603 126.637 139.603C141.188 139.603 155.128 139.753 168.018 140.026H168.05C180.24 140.285 191.492 140.654 201.429 141.113C202.182 141.148 202.928 141.182 203.665 141.215C203.667 141.217 203.67 141.218 203.672 141.219C203.675 141.219 203.677 141.22 203.68 141.219C208.232 141.441 212.491 141.68 216.414 141.936C216.458 141.939 216.501 141.943 216.545 141.945C234.758 143.142 245.783 144.704 245.783 146.416Z" fill="#3F3D56"/>
<path opacity="0.1" d="M216.417 141.936C214.806 152.432 204.634 148.915 192.328 148.915C179.328 148.915 168.713 152.841 168.051 140.028C180.242 140.286 191.493 140.655 201.43 141.114C202.184 141.149 202.929 141.183 203.666 141.216C203.67 141.22 203.676 141.221 203.681 141.221C208.233 141.441 212.493 141.68 216.417 141.936Z" fill="black"/>
<path d="M68.8719 138.743C68.8719 142.527 66.6246 143.848 63.8518 143.848C63.7886 143.848 63.7235 143.848 63.6597 143.846C63.5311 143.843 63.4037 143.837 63.278 143.828C60.7757 143.651 58.832 142.262 58.832 138.743C58.832 135.102 63.4808 130.506 63.8312 130.166L63.8515 130.146C63.8515 130.146 68.8719 134.959 68.8719 138.743Z" fill="#D64545"/>
<path d="M63.6706 143.27L65.5068 140.703L63.6662 143.552L63.6614 143.847C63.5331 143.844 63.4055 143.838 63.2797 143.829L63.4775 140.043V140.014L63.4807 140.009L63.4997 139.651L61.6543 136.794L63.505 139.382L63.5098 139.458L63.6589 136.598L62.079 133.646L63.6782 136.096L63.834 130.166L63.8081 134.842L65.3807 132.988L63.8008 135.245L63.7591 137.807L65.2278 135.349L63.7531 138.184L63.73 139.607L65.8613 136.186L63.7234 140.103L63.6706 143.27Z" fill="#3F3D56"/>
<path d="M168.016 136.097C168.016 121.697 178.901 110.024 192.328 110.024C205.755 110.024 216.64 121.697 216.64 136.097C216.64 150.496 205.755 146.309 192.328 146.309C178.901 146.309 168.016 150.496 168.016 136.097Z" fill="#3F3D56"/>
<path d="M33.2955 118.919H32.8613V148.29H33.2955V118.919Z" fill="#3F3D56"/>
<path d="M33.0792 123.072C35.3709 123.072 37.2287 121.213 37.2287 118.919C37.2287 116.625 35.3709 114.766 33.0792 114.766C30.7875 114.766 28.9297 116.625 28.9297 118.919C28.9297 121.213 30.7875 123.072 33.0792 123.072Z" fill="#3F3D56"/>
<path d="M33.0776 137.021C33.0776 137.021 32.4849 124.259 20.332 125.742L33.0776 137.021Z" fill="#3F3D56"/>
<path d="M153.909 123.751C154.017 124.135 154.138 124.516 154.267 124.894C153.687 124.325 153.119 123.738 152.539 123.171C152.772 123.243 153.003 123.316 153.223 123.402C153.462 123.496 153.691 123.613 153.909 123.75V123.751ZM151.101 121.847C147.686 118.874 143.728 116.573 140.228 113.691C142.139 114.632 143.998 115.729 145.843 116.781C148.03 118.028 150.244 119.227 152.484 120.378C152.119 120.95 151.65 121.448 151.101 121.847ZM152.562 114.362L152.726 114.194C152.727 114.616 152.731 115.011 152.736 115.37C152.43 115.268 152.124 115.164 151.819 115.057C152.081 114.841 152.329 114.609 152.562 114.362L152.562 114.362ZM122.475 122.41C123.882 120.819 125.105 119.073 126.12 117.206C127.475 119.578 129.679 121.285 131.554 123.272C128.533 122.872 125.509 122.544 122.475 122.409V122.41Z" fill="url(#paint0_linear)"/>
<path d="M25.4575 144.392C25.4575 148.176 23.2102 149.497 20.4377 149.497C20.3745 149.497 20.3094 149.497 20.2456 149.495C20.1173 149.492 19.9897 149.486 19.8639 149.477C17.3616 149.3 15.418 147.911 15.418 144.392C15.418 140.751 20.0668 136.155 20.4172 135.815L20.4374 135.795C20.4374 135.795 25.4575 140.608 25.4575 144.392Z" fill="#D64545"/>
<path d="M20.2546 148.919L22.0908 146.352L20.2502 149.201L20.2454 149.496C20.1171 149.493 19.9895 149.487 19.8637 149.478L20.0615 145.692V145.663L20.0647 145.658L20.0836 145.3L18.2383 142.443L20.089 145.031L20.0938 145.107L20.2429 142.247L18.663 139.295L20.2622 141.745L20.418 135.815L20.392 140.491L21.9647 138.637L20.3848 140.894L20.3431 143.456L21.8118 140.998L20.339 143.831L20.3159 145.254L22.4472 141.833L20.3074 145.752L20.2546 148.919Z" fill="#3F3D56"/>
<path d="M28.0029 114.284C29.2018 114.284 30.1737 113.312 30.1737 112.112C30.1737 110.912 29.2018 109.939 28.0029 109.939C26.8039 109.939 25.832 110.912 25.832 112.112C25.832 113.312 26.8039 114.284 28.0029 114.284Z" fill="#D64545"/>
<path d="M167.579 81.7007C167.579 81.7007 175.454 79.9558 176.322 86.9084C177.191 93.861 172.14 95.1735 172.14 95.1735L168.942 96.0338L156.568 92.7746L158.306 87.7775L167.579 81.7007Z" fill="#2F2E41"/>
<path d="M164.741 82.0843C170.619 82.0843 175.383 77.3155 175.383 71.4329C175.383 65.5503 170.619 60.7816 164.741 60.7816C158.864 60.7816 154.1 65.5503 154.1 71.4329C154.1 77.3155 158.864 82.0843 164.741 82.0843Z" fill="#2F2E41"/>
<path d="M127.346 93.5504L129.508 93.9856L136.859 104.865L133.616 105.301L127.346 93.5504Z" fill="#2F2E41"/>
<path d="M75.0469 137.695C75.6298 139.615 76.3478 141.492 77.1956 143.311C79.6321 142.8 82.0291 142.116 84.3685 141.265C84.4405 141.238 83.0268 139.388 82.8783 139.236C82.3019 138.599 81.6157 138.071 80.8525 137.677C80.1058 137.352 79.186 137.6 78.3878 137.641C77.2751 137.697 76.1615 137.715 75.0469 137.695Z" fill="#FBBEBE"/>
<path d="M80.8678 140.601C79.649 140.219 78.9087 138.992 78.4126 137.808C77.9165 136.625 77.5171 135.334 76.577 134.465C76.3981 134.493 76.2288 134.565 76.0842 134.674C75.9397 134.783 75.8243 134.926 75.7485 135.091C75.5703 135.407 75.4641 135.762 75.2581 136.06C74.866 136.627 74.1768 136.901 73.6839 137.382C73.1669 137.886 72.8844 138.599 72.3495 139.084C71.6774 139.693 70.7275 139.843 69.8459 140.045C68.4821 140.357 67.1649 140.847 65.9277 141.5C65.472 141.775 64.9847 141.994 64.4764 142.151C63.917 142.259 63.3442 142.278 62.7789 142.208L58.8809 141.93C58.534 141.885 58.182 141.901 57.8403 141.976C57.039 142.201 56.5416 143.096 56.6004 143.931C56.6506 144.347 56.786 144.748 56.9981 145.109C57.2101 145.47 57.4942 145.784 57.8328 146.03C58.5112 146.516 59.2598 146.896 60.0526 147.156C63.4482 148.439 66.9441 149.438 70.5044 150.144L70.5063 150.917C72.982 152.135 75.7037 152.769 78.4625 152.771C78.6666 152.786 78.8712 152.751 79.0582 152.667C79.3137 152.483 79.4922 152.211 79.5596 151.903C80.4948 149.166 81.0421 146.311 81.1854 143.421C81.2546 142.689 81.1978 141.95 81.0176 141.236C80.8052 140.534 81.5364 140.829 80.8596 140.554" fill="#2F2E41"/>
<path d="M155.628 125.893C144.072 126.586 132.649 123.2 121.077 122.838C119.639 122.748 118.195 122.84 116.78 123.112C115.294 123.446 113.908 124.119 112.526 124.763C106.32 127.653 99.8992 130.047 93.4866 132.438L86.12 135.184C84.6479 135.733 83.1226 136.291 81.5556 136.194C80.8532 136.151 79.9909 136.045 79.5965 136.631C78.398 138.408 78.9646 141.019 79.7561 143.013C80.013 143.66 80.4478 144.359 81.1366 144.432C81.6217 144.484 82.0726 144.203 82.5437 144.077C83.8848 143.718 85.2214 144.62 86.6013 144.767C88.3076 144.949 89.8891 143.976 91.4991 143.381C94.1679 142.394 97.086 142.425 99.891 141.958C104.595 141.174 108.954 138.988 113.03 136.497C114.582 135.549 116.152 134.533 117.934 134.186C119.984 133.787 122.089 134.316 124.099 134.885C128.891 136.242 133.608 137.85 138.232 139.702C140.665 140.677 143.083 141.723 145.616 142.397C151.095 143.841 156.891 143.503 162.166 141.431C164.016 140.699 166.026 139.407 166.132 137.409C166.192 136.27 165.31 135.266 164.72 134.292C164.341 133.668 163.963 133.043 163.551 132.44C161.557 129.523 159.139 125.683 155.628 125.893Z" fill="#2F2E41"/>
<path opacity="0.1" d="M155.628 125.893C144.072 126.586 132.649 123.2 121.077 122.838C119.639 122.748 118.195 122.84 116.78 123.112C115.294 123.446 113.908 124.119 112.526 124.763C106.32 127.653 99.8992 130.047 93.4866 132.438L86.12 135.184C84.6479 135.733 83.1226 136.291 81.5556 136.194C80.8532 136.151 79.9909 136.045 79.5965 136.631C78.398 138.408 78.9646 141.019 79.7561 143.013C80.013 143.66 80.4478 144.359 81.1366 144.432C81.6217 144.484 82.0726 144.203 82.5437 144.077C83.8848 143.718 85.2214 144.62 86.6013 144.767C88.3076 144.949 89.8891 143.976 91.4991 143.381C94.1679 142.394 97.086 142.425 99.891 141.958C104.595 141.174 108.954 138.988 113.03 136.497C114.582 135.549 116.152 134.533 117.934 134.186C119.984 133.787 122.089 134.316 124.099 134.885C128.891 136.242 133.608 137.85 138.232 139.702C140.665 140.677 143.083 141.723 145.616 142.397C151.095 143.841 156.891 143.503 162.166 141.431C164.016 140.699 166.026 139.407 166.132 137.409C166.192 136.27 165.31 135.266 164.72 134.292C164.341 133.668 163.963 133.043 163.551 132.44C161.557 129.523 159.139 125.683 155.628 125.893Z" fill="black"/>
<path d="M97.2363 138.258C99.0455 138.876 100.87 139.444 102.711 139.962C103.742 138.269 105.669 137.09 106.109 135.155C106.136 135.071 106.136 134.98 106.109 134.896C106.062 134.813 105.989 134.748 105.901 134.71C104.583 133.979 103.119 133.549 101.614 133.453C100.427 133.377 99.8843 134.619 99.3459 135.491C99.1281 135.845 97.7204 138.423 97.2363 138.258Z" fill="#FBBEBE"/>
<path d="M99.7712 137.022C98.7029 136.797 97.6573 136.223 97.1119 135.271C96.8562 134.826 96.5845 134.225 96.0742 134.259C95.6002 134.291 95.3831 134.856 95.2763 135.322C94.8769 137.065 94.4863 138.821 93.7842 140.465C93.0821 142.109 92.0463 143.653 90.5855 144.672C89.9153 145.139 89.1677 145.487 88.5126 145.975C87.9239 146.413 87.4105 146.963 86.7602 147.303C86.3249 147.503 85.8758 147.67 85.4163 147.805C84.7401 148.04 84.0941 148.355 83.4916 148.742C82.9618 149.05 82.5126 149.48 82.1809 149.996C82.018 150.256 81.9227 150.552 81.9039 150.859C81.885 151.165 81.9431 151.471 82.0728 151.75C82.2124 151.979 82.399 152.175 82.6201 152.327C82.8412 152.478 83.092 152.581 83.3557 152.629C83.8825 152.72 84.4196 152.733 84.9502 152.669C87.0575 152.513 89.162 152.326 91.2668 152.138C92.1571 152.08 93.0419 151.957 93.9141 151.769C94.3751 151.658 94.827 151.511 95.2861 151.392C96.0734 151.189 96.8802 151.071 97.6926 151.041C97.9286 151.021 98.1663 151.042 98.3948 151.104C98.8823 151.263 99.2283 151.749 99.7314 151.848C100.054 151.879 100.38 151.836 100.683 151.721C102.2 151.307 103.793 151.318 105.362 151.233C106.054 151.196 106.863 151.064 107.18 150.445C107.576 149.672 106.92 148.809 106.658 147.98C106.528 147.451 106.455 146.909 106.442 146.364C106.321 145.017 105.926 143.71 105.281 142.522C104.744 141.536 104.012 140.446 104.389 139.388C104.516 139.029 104.772 138.695 104.746 138.313C104.635 136.64 100.74 137.225 99.7712 137.022Z" fill="#2F2E41"/>
<path d="M138.298 107.335C136.25 106.432 134.609 104.801 133.693 102.757C133.5 102.318 133.341 101.86 133.156 101.416C132.55 99.9426 131.607 98.6319 130.403 97.5892C130.103 97.3337 129.749 97.0898 129.382 97.1569C129.197 97.2132 129.03 97.3173 128.898 97.4587C128.766 97.6001 128.674 97.7739 128.63 97.9624C128.527 98.3659 128.501 98.7853 128.554 99.1984C128.657 100.172 128.824 101.138 129.055 102.089L129.615 104.644C129.684 105.036 129.801 105.419 129.963 105.784C130.204 106.215 130.523 106.597 130.904 106.912C131.415 107.384 131.935 107.843 132.463 108.289C133.197 108.994 134.154 109.42 135.168 109.493C137.463 109.919 139.797 110.532 141.734 112.031C141.712 112.015 141.725 110.318 141.692 110.124C141.603 109.61 141.534 109.101 141.2 108.753C140.449 107.971 139.212 107.742 138.298 107.335Z" fill="#FBBEBE"/>
<path opacity="0.1" d="M138.298 107.335C136.25 106.432 134.609 104.801 133.693 102.757C133.5 102.318 133.341 101.86 133.156 101.416C132.55 99.9426 131.607 98.6319 130.403 97.5892C130.103 97.3337 129.749 97.0898 129.382 97.1569C129.197 97.2132 129.03 97.3173 128.898 97.4587C128.766 97.6001 128.674 97.7739 128.63 97.9624C128.527 98.3659 128.501 98.7853 128.554 99.1984C128.657 100.172 128.824 101.138 129.055 102.089L129.615 104.644C129.684 105.036 129.801 105.419 129.963 105.784C130.204 106.215 130.523 106.597 130.904 106.912C131.415 107.384 131.935 107.843 132.463 108.289C133.197 108.994 134.154 109.42 135.168 109.493C137.463 109.919 139.797 110.532 141.734 112.031C141.712 112.015 141.725 110.318 141.692 110.124C141.603 109.61 141.534 109.101 141.2 108.753C140.449 107.971 139.212 107.742 138.298 107.335Z" fill="black"/>
<path d="M161.834 87.7835C163.386 87.7835 164.645 86.517 164.645 84.9548C164.645 83.3925 163.386 82.126 161.834 82.126C160.282 82.126 159.023 83.3925 159.023 84.9548C159.023 86.517 160.282 87.7835 161.834 87.7835Z" fill="#2F2E41"/>
<path d="M160.095 83.246C159.332 83.1613 158.484 83.0987 157.873 83.5658C157.549 83.8529 157.29 84.2062 157.113 84.6019C156.483 85.6853 155.992 86.8435 155.65 88.0493C155.399 89.0819 155.357 90.1613 155.047 91.1772C154.47 93.0615 152.993 94.6524 152.825 96.617C152.749 97.496 152.896 98.5254 152.256 99.1276C152.098 99.2608 151.928 99.3808 151.75 99.4863C151.306 99.7842 150.929 100.172 150.644 100.625C150.405 101.006 150.22 101.445 149.859 101.712C149.287 102.137 148.338 102.092 148.058 102.749C147.768 103.423 148.503 104.172 148.333 104.888C148.194 105.469 147.546 105.736 147.1 106.131C146.529 106.637 146.267 107.401 146.029 108.129C145.089 108.307 144.121 108.279 143.193 108.047C142.264 107.815 141.397 107.385 140.65 106.786C141.435 108.72 141.452 110.855 141.486 112.944C141.497 113.622 141.476 114.382 140.993 114.854C143.23 114.903 145.413 115.509 147.597 116.003C148.551 116.219 149.587 116.406 150.477 115.998C150.977 115.73 151.424 115.374 151.796 114.947C152.985 113.742 154.23 112.426 154.522 110.753C154.685 109.816 154.527 108.856 154.57 107.904C154.623 106.726 154.983 105.588 155.291 104.451C155.921 102.123 156.344 99.7432 156.553 97.3403C156.683 95.8577 157.962 94.6644 158.636 93.3392C159.907 90.8375 161.207 88.2321 161.303 85.4239C161.332 84.4846 161.023 83.3492 160.095 83.246Z" fill="#2F2E41"/>
<path opacity="0.1" d="M160.095 83.246C159.332 83.1613 158.484 83.0987 157.873 83.5658C157.549 83.8529 157.29 84.2062 157.113 84.6019C156.483 85.6853 155.992 86.8435 155.65 88.0493C155.399 89.0819 155.357 90.1613 155.047 91.1772C154.47 93.0615 152.993 94.6524 152.825 96.617C152.749 97.496 152.896 98.5254 152.256 99.1276C152.098 99.2608 151.928 99.3808 151.75 99.4863C151.306 99.7842 150.929 100.172 150.644 100.625C150.405 101.006 150.22 101.445 149.859 101.712C149.287 102.137 148.338 102.092 148.058 102.749C147.768 103.423 148.503 104.172 148.333 104.888C148.194 105.469 147.546 105.736 147.1 106.131C146.529 106.637 146.267 107.401 146.029 108.129C145.089 108.307 144.121 108.279 143.193 108.047C142.264 107.815 141.397 107.385 140.65 106.786C141.435 108.72 141.452 110.855 141.486 112.944C141.497 113.622 141.476 114.382 140.993 114.854C143.23 114.903 145.413 115.509 147.597 116.003C148.551 116.219 149.587 116.406 150.477 115.998C150.977 115.73 151.424 115.374 151.796 114.947C152.985 113.742 154.23 112.426 154.522 110.753C154.685 109.816 154.527 108.856 154.57 107.904C154.623 106.726 154.983 105.588 155.291 104.451C155.921 102.123 156.344 99.7432 156.553 97.3403C156.683 95.8577 157.962 94.6644 158.636 93.3392C159.907 90.8375 161.207 88.2321 161.303 85.4239C161.332 84.4846 161.023 83.3492 160.095 83.246Z" fill="black"/>
<path d="M157.462 128.329C155.055 127.183 153.293 125.046 151.347 123.217C147.632 119.725 143.088 117.253 139.182 113.979C136.592 111.809 134.276 109.282 131.431 107.464C128.925 105.867 126.084 104.871 123.13 104.554C122.792 104.496 122.445 104.514 122.114 104.605C121.741 104.77 121.416 105.028 121.169 105.353C119.908 106.777 118.788 108.319 117.823 109.958C112.872 118.371 105.839 125.445 100.012 133.269C99.8257 133.453 99.7153 133.7 99.7024 133.962C99.6896 134.223 99.7752 134.48 99.9423 134.681L101.128 137.006C101.791 138.307 102.854 139.821 104.283 139.564C104.937 139.446 105.458 138.963 105.938 138.504L111.26 133.412L116.838 128.074C120.107 124.947 123.432 121.747 125.563 117.746C127.228 120.637 130.183 122.529 132.21 125.176C132.981 126.182 133.611 127.289 134.299 128.355C135.403 130.063 136.658 131.666 137.911 133.267L144.31 141.442C145.183 142.557 146.079 143.695 147.273 144.451C148.79 145.411 150.632 145.664 152.416 145.824C154.82 146.039 157.234 146.127 159.647 146.086C161.487 146.054 163.384 145.933 165.035 145.115C166.686 144.297 168.043 142.619 167.957 140.768C167.912 139.806 167.494 138.904 167.034 138.06C164.748 133.864 161.761 130.377 157.462 128.329Z" fill="#2F2E41"/>
<path d="M163.563 89.0894C164.757 89.0894 165.725 88.1152 165.725 86.9135C165.725 85.7118 164.757 84.7375 163.563 84.7375C162.368 84.7375 161.4 85.7118 161.4 86.9135C161.4 88.1152 162.368 89.0894 163.563 89.0894Z" fill="#2F2E41"/>
<path d="M163.086 85.2786C163.572 86.2478 163.657 87.3696 163.323 88.4012C162.988 89.4193 162.521 90.3889 161.933 91.2849C161.427 92.2093 160.821 93.0751 160.125 93.8664C163.462 94.0264 166.698 92.7161 169.643 91.1284C172.013 89.8513 174.377 88.2744 175.641 85.8875C175.265 85.9785 174.874 85.9892 174.493 85.9188C174.113 85.8483 173.751 85.6985 173.432 85.4788C172.797 85.0353 172.227 84.5039 171.74 83.9007L170.065 82.0141C169.671 81.6032 169.326 81.149 169.035 80.6601C168.672 79.9914 168.518 79.2292 168.592 78.4719C167.926 79.1692 167.182 79.7872 166.375 80.3135C165.178 81.0931 163.859 81.6586 162.66 82.4325C162.235 82.7074 161.289 83.1495 161.532 83.7058C161.767 84.2489 162.749 84.6825 163.086 85.2786Z" fill="#FBBEBE"/>
<path opacity="0.1" d="M163.086 85.2786C163.572 86.2478 163.657 87.3696 163.323 88.4012C162.988 89.4193 162.521 90.3889 161.933 91.2849C161.427 92.2093 160.821 93.0751 160.125 93.8664C163.462 94.0264 166.698 92.7161 169.643 91.1284C172.013 89.8513 174.377 88.2744 175.641 85.8875C175.265 85.9785 174.874 85.9892 174.493 85.9188C174.113 85.8483 173.751 85.6985 173.432 85.4788C172.797 85.0353 172.227 84.5039 171.74 83.9007L170.065 82.0141C169.671 81.6032 169.326 81.149 169.035 80.6601C168.672 79.9914 168.518 79.2292 168.592 78.4719C167.926 79.1692 167.182 79.7872 166.375 80.3135C165.178 81.0931 163.859 81.6586 162.66 82.4325C162.235 82.7074 161.289 83.1495 161.532 83.7058C161.767 84.2489 162.749 84.6825 163.086 85.2786Z" fill="black"/>
<path d="M163.131 85.6079C162.504 86.6636 162.369 87.91 163.131 88.8721C163.226 88.9917 163.578 89.7349 163.732 89.7416C163.879 89.7292 164.015 89.66 164.112 89.5487C164.923 88.807 165.517 87.8613 166.229 87.0235C166.942 86.1857 167.841 85.4223 168.922 85.2524C170.229 85.0488 171.49 85.7417 172.634 86.4103C173.131 86.652 173.565 87.0068 173.901 87.4464C174.141 87.8819 174.284 88.3651 174.317 88.8617C174.712 91.8397 174.703 94.855 174.693 97.8593C174.687 100.031 174.679 102.218 174.268 104.35C174.056 105.452 173.737 106.532 173.587 107.646C173.476 108.627 173.431 109.615 173.453 110.603L173.449 114.737C173.422 115.497 173.476 116.257 173.61 117.005C173.806 117.911 174.234 118.747 174.52 119.63C174.815 120.642 175.017 121.68 175.124 122.729L175.689 127.011C175.867 128.359 175.999 129.834 175.184 130.919C174.815 131.41 174.33 131.803 173.958 132.29C172.56 134.112 173.008 136.713 172.425 138.94C171.964 140.57 171.018 142.022 169.713 143.101C168.713 143.95 167.423 144.619 166.136 144.38C164.398 144.057 163.356 142.244 162.882 140.532C162.408 138.82 162.235 136.956 161.209 135.509C160.372 134.328 159.074 133.584 157.9 132.741C156.727 131.898 155.58 130.812 155.324 129.382C155.213 128.758 155.282 128.117 155.216 127.485C155.122 126.686 154.816 125.927 154.33 125.287C153.843 124.647 153.193 124.15 152.449 123.848C151.56 123.502 150.461 123.378 149.961 122.561C151.254 121.832 152.112 120.485 152.564 119.064C153.016 117.644 153.108 116.137 153.196 114.648L153.493 109.673C153.625 107.45 153.685 105.245 154.664 103.249C155.101 102.355 155.645 101.519 156.101 100.635C156.703 99.3948 157.217 98.1135 157.639 96.8007C158.348 94.7624 159.058 92.7231 159.69 90.6591C159.944 89.6615 160.323 88.7 160.818 87.7975C161.356 86.9236 162.126 85.797 163.131 85.6079Z" fill="#D64545"/>
<path d="M152.094 117.93L153.409 117.977L153.689 115.987C153.726 115.589 153.82 115.199 153.967 114.828C154.184 114.435 154.437 114.064 154.724 113.718C156.019 111.888 155.924 109.458 156.244 107.235C156.672 104.269 157.91 101.493 159.134 98.7613L161.687 93.0653C162.197 92.0983 162.44 91.0133 162.393 89.9212C162.416 89.0407 162.678 85.8369 162.699 84.9558C162.707 84.63 161.981 84.8109 161.834 84.5206C161.514 83.888 161.076 85.6032 160.478 85.9795C159.88 86.3559 159.55 87.0374 159.296 87.6994C158.746 89.1343 158.409 90.6433 157.897 92.0921C157.384 93.5409 156.667 94.9638 155.512 95.9727C154.988 96.431 154.384 96.7951 153.889 97.2846C152.3 98.8568 152.146 101.34 152.09 103.581C152.058 104.914 151.801 117.93 152.094 117.93Z" fill="#2F2E41"/>
<path d="M171.029 83.2323C169.751 83.7352 169.051 85.1217 168.691 86.4542C168.33 87.7866 168.185 89.2057 167.499 90.4019C165.895 93.1961 161.805 94.0105 160.674 97.0296C160.303 98.0177 160.32 99.1015 160.22 100.153C160.014 102.316 159.303 104.406 159.093 106.57C158.981 108.251 159.021 109.938 159.212 111.612L160.641 128.675C160.847 131.14 160.842 133.788 160.213 136.179C161.66 136.461 163.165 136.084 164.507 135.47C165.849 134.857 167.075 134.015 168.367 133.303C170.589 132.076 173.04 131.206 174.986 129.571C175.338 129.296 175.64 128.962 175.878 128.584C176.268 127.91 176.3 127.093 176.485 126.336C176.653 125.731 176.868 125.14 177.126 124.568C177.838 122.849 178.459 121.093 178.985 119.307C179.347 118.122 179.632 116.916 179.84 115.694C179.996 114.722 180.08 113.739 180.164 112.757C180.268 111.221 180.573 109.704 181.072 108.247C182.315 104.772 183.019 101.127 183.159 97.4389C183.201 96.9061 183.165 96.37 183.052 95.8477C182.834 95.2148 182.544 94.6092 182.187 94.0431C181.593 92.9232 181.236 91.6907 180.676 90.5533C179.409 87.9836 177.172 86.0354 174.83 84.4025C173.679 83.6023 172.332 82.7193 171.029 83.2323Z" fill="#2F2E41"/>
<path d="M141.146 111.069C140.129 110.537 139.208 109.837 138.423 108.999C138.067 108.581 137.772 108.111 137.41 107.698C136.49 106.717 135.297 106.037 133.985 105.745C132.683 105.459 131.35 105.329 130.017 105.359C129.125 105.302 128.231 105.411 127.379 105.679C126.544 105.995 125.792 106.674 125.631 107.556C125.437 108.618 126.129 109.652 126.961 110.332C127.735 110.965 128.646 111.407 129.621 111.625C130.416 111.764 131.219 111.858 132.025 111.906C136.758 112.402 140.981 114.981 145.128 117.329C148.771 119.391 152.484 121.319 156.269 123.112C156.419 121.978 156.481 120.834 156.455 119.69C156.436 118.836 156.394 117.533 155.588 117.031C154.648 116.447 153.101 116.312 152.042 115.965C149.603 115.165 147.221 114.2 144.912 113.078C143.633 112.456 142.377 111.787 141.146 111.069Z" fill="#FBBEBE"/>
<path d="M161.833 84.302C166.49 84.302 170.265 80.5024 170.265 75.8155C170.265 71.1285 166.49 67.329 161.833 67.329C157.176 67.329 153.4 71.1285 153.4 75.8155C153.4 80.5024 157.176 84.302 161.833 84.302Z" fill="#FBBEBE"/>
<path d="M173.439 92.8543C172.686 93.7332 172.309 94.8654 171.803 95.9085C170.76 98.0547 169.129 99.8967 168.311 102.139C167.448 104.504 167.477 107.318 165.785 109.175C165.491 109.498 165.136 109.81 165.051 110.24C165.042 110.499 165.013 110.758 164.965 111.013C164.723 111.688 163.619 111.722 163.413 112.409C163.353 112.61 163.387 112.832 163.312 113.029C163.143 113.473 162.557 113.541 162.165 113.807C161.346 114.363 161.511 115.655 160.927 116.456C160.465 117.088 159.594 117.302 158.82 117.194C158.054 117.037 157.316 116.761 156.633 116.377C156.391 116.241 156.123 116.156 155.846 116.13C155.52 116.141 155.204 116.249 154.938 116.44C153.38 117.431 152.649 119.395 152.66 121.25C152.671 123.104 153.308 124.892 153.96 126.626C154.049 126.919 154.195 127.191 154.39 127.427C154.906 127.974 155.806 127.885 156.491 127.581C157.177 127.278 157.8 126.799 158.538 126.664C159.843 126.428 161.118 127.325 162.442 127.251C163.411 127.197 164.27 126.633 165.075 126.087C166.361 125.215 167.671 124.322 168.617 123.085C169.196 122.328 169.62 121.465 170.125 120.656C170.774 119.663 171.485 118.712 172.255 117.809L177.117 111.852C178.285 110.579 179.09 109.015 179.446 107.323C179.908 105.735 180.374 104.129 180.453 102.477C180.479 101.114 180.361 99.7529 180.1 98.4152C179.882 97.0929 179.633 95.7557 179.053 94.5491C177.997 92.3536 175.425 90.5363 173.439 92.8543Z" fill="#2F2E41"/>
<path d="M176.271 68.0599C182.148 68.0599 186.912 63.2912 186.912 57.4086C186.912 51.526 182.148 46.7572 176.271 46.7572C170.393 46.7572 165.629 51.526 165.629 57.4086C165.629 63.2912 170.393 68.0599 176.271 68.0599Z" fill="#2F2E41"/>
<path d="M185.449 66.2284C184.072 67.2248 182.476 67.8766 180.796 68.1292C179.115 68.3817 177.398 68.2278 175.789 67.6802C174.18 67.1326 172.726 66.2073 171.547 64.9817C170.369 63.756 169.501 62.2657 169.016 60.6355C169.2 62.0959 169.685 63.5022 170.439 64.7657C171.194 66.0293 172.201 67.1226 173.399 67.9767C174.597 68.8307 175.959 69.4271 177.398 69.728C178.838 70.029 180.324 70.028 181.764 69.7252C183.203 69.4224 184.564 68.8243 185.76 67.9686C186.957 67.113 187.964 66.0184 188.716 64.7539C189.469 63.4894 189.952 62.0824 190.134 60.6218C190.317 59.1611 190.195 57.6785 189.776 56.2675C190.014 58.1636 189.738 60.089 188.977 61.8416C188.216 63.5942 186.997 65.1095 185.449 66.2284Z" fill="#2F2E41"/>
<path d="M167.579 81.0189C171.889 81.0189 175.383 77.5218 175.383 73.2079C175.383 68.8941 171.889 65.397 167.579 65.397C163.269 65.397 159.775 68.8941 159.775 73.2079C159.775 77.5218 163.269 81.0189 167.579 81.0189Z" fill="#2F2E41"/>
<path d="M161.017 75.6934C164.837 75.6934 167.934 73.2693 167.934 70.2789C167.934 67.2885 164.837 64.8643 161.017 64.8643C157.197 64.8643 154.1 67.2885 154.1 70.2789C154.1 73.2693 157.197 75.6934 161.017 75.6934Z" fill="#2F2E41"/>
<path d="M163.674 80.0253C164.139 79.6467 164.056 78.7736 163.489 78.0753C162.922 77.377 162.085 77.1178 161.62 77.4964C161.154 77.875 161.237 78.748 161.805 79.4463C162.372 80.1447 163.209 80.4038 163.674 80.0253Z" fill="#FBBEBE"/>
<path d="M155.051 147.868C155.051 151.652 152.804 152.974 150.031 152.974C149.968 152.974 149.903 152.974 149.839 152.971C149.711 152.969 149.583 152.963 149.458 152.954C146.955 152.777 145.012 151.387 145.012 147.868C145.012 144.227 149.661 139.632 150.011 139.291L150.031 139.271C150.031 139.271 155.051 144.085 155.051 147.868Z" fill="#D64545"/>
<path d="M149.848 152.396L151.685 149.828L149.844 152.678L149.839 152.972C149.711 152.969 149.583 152.963 149.457 152.954L149.655 149.169V149.139L149.658 149.134L149.677 148.776L147.832 145.92L149.683 148.508L149.688 148.584L149.837 145.724L148.257 142.772L149.856 145.222L150.012 139.292L149.986 143.968L151.559 142.114L149.979 144.371L149.937 146.933L151.406 144.475L149.931 147.31L149.908 148.733L152.039 145.312L149.901 149.228L149.848 152.396Z" fill="#3F3D56"/>
<path d="M208.302 142.271L208.263 142.025C208.234 141.85 205.557 124.328 214.202 110.484C222.847 96.6401 239.757 91.3716 239.926 91.3202L240.166 91.2466L240.205 91.4924C240.233 91.6679 242.911 109.19 234.265 123.034C225.62 136.878 208.711 142.146 208.541 142.197L208.302 142.271ZM239.811 91.814C237.715 92.511 222.564 97.9128 214.57 110.714C206.576 123.515 208.364 139.513 208.656 141.704C210.752 141.007 225.902 135.606 233.896 122.804C241.89 110.003 240.103 94.0056 239.811 91.814Z" fill="#3F3D56"/>
</g>
<defs>
<linearGradient id="paint0_linear" x1="138.371" y1="124.894" x2="138.371" y2="113.691" gradientUnits="userSpaceOnUse">
<stop stop-color="#808080" stop-opacity="0.251"/>
<stop offset="0.535" stop-color="#808080" stop-opacity="0.122"/>
<stop offset="1" stop-color="#808080" stop-opacity="0.102"/>
</linearGradient>
<clipPath id="clip0">
<rect width="258" height="156" fill="white"/>
</clipPath>
</defs>
</svg>
