<svg width="299" height="286" viewBox="0 0 299 286" fill="none" xmlns="http://www.w3.org/2000/svg">
<path d="M235.261 27.2181C238.356 27.2181 240.865 24.7095 240.865 21.615C240.865 18.5205 238.356 16.0119 235.261 16.0119C232.165 16.0119 229.656 18.5205 229.656 21.615C229.656 24.7095 232.165 27.2181 235.261 27.2181Z" stroke="#3F3D56" stroke-width="2" stroke-miterlimit="10"/>
<path opacity="0.1" d="M23.09 192.196C22.9041 192.157 22.6571 192.221 22.6216 192.407C22.617 192.502 22.6422 192.596 22.6938 192.676C23.1038 193.326 23.7005 193.838 24.4058 194.143C24.5263 194.21 24.659 194.252 24.7959 194.266C24.8674 194.274 24.9398 194.261 25.0037 194.228C25.0676 194.195 25.1201 194.143 25.1542 194.08C25.1739 194.026 25.1818 193.968 25.1773 193.911C25.1729 193.853 25.1563 193.798 25.1285 193.747C25.0194 193.553 24.8676 193.386 24.6846 193.258C24.2041 192.883 23.7137 192.3 23.09 192.196Z" fill="black"/>
<path d="M272.988 163.473L199.815 72.0553C196.493 75.093 192.399 77.1594 187.981 78.0289C174.206 80.7418 160.753 71.3365 157.933 57.0225C156.961 52.2886 157.3 47.3791 158.915 42.824C160.529 38.2689 163.358 34.2412 167.095 31.1758L142.148 0L0 121.459L130.847 284.926L272.988 163.473Z" fill="#F2F2F2"/>
<path d="M118.427 89.4513L57.4646 101.902C55.7418 102.254 54.1196 102.987 52.7168 104.047C51.3139 105.107 50.166 106.467 49.357 108.028C48.548 109.588 48.0985 111.31 48.0414 113.067C47.9842 114.824 48.3209 116.572 49.0268 118.182L118.526 276.731C120.051 280.209 122.801 283.006 126.253 284.59C129.706 286.173 133.619 286.433 137.251 285.32L207.499 263.699C209.362 263.125 211.076 262.147 212.517 260.835C213.958 259.522 215.092 257.907 215.836 256.106C216.58 254.304 216.917 252.36 216.823 250.414C216.728 248.467 216.204 246.565 215.289 244.844L136.922 97.5228C135.047 94.436 132.264 92.0039 128.953 90.5591C125.643 89.1143 121.966 88.7274 118.427 89.4513Z" fill="#3F3D56"/>
<path d="M57.3827 102.23L67.4102 100.254C68.085 101.654 69.1999 102.794 70.5843 103.501C71.9688 104.207 73.5466 104.441 75.0765 104.166L111.302 97.6658C111.66 97.6007 111.999 97.4595 112.298 97.2517C112.597 97.0439 112.847 96.7744 113.033 96.4615C113.218 96.1485 113.335 95.7993 113.373 95.4376C113.412 95.0759 113.373 94.71 113.258 94.3648L112.273 91.4098L122.25 89.4427C124.316 89.0353 126.459 89.2985 128.365 90.1938C130.271 91.0891 131.842 92.5697 132.847 94.4199L214.003 243.739C214.701 245.023 215.104 246.446 215.184 247.905C215.263 249.364 215.017 250.823 214.463 252.175C213.909 253.527 213.06 254.739 211.98 255.723C210.899 256.707 209.613 257.438 208.214 257.863L139.049 278.892C136.166 279.768 133.063 279.564 130.32 278.319C127.577 277.073 125.382 274.87 124.145 272.123L52.205 112.254C51.7598 111.265 51.5437 110.188 51.5729 109.103C51.6021 108.019 51.8758 106.955 52.3735 105.992C52.8713 105.028 53.5802 104.189 54.4476 103.537C55.3149 102.886 56.3183 102.438 57.3827 102.228V102.23Z" fill="#D64545"/>
<path d="M100.516 96.854L85.7031 99.8921" stroke="#2F2E41" stroke-width="2" stroke-miterlimit="10"/>
<path d="M81.9055 101.79C82.7443 101.79 83.4243 101.195 83.4243 100.461C83.4243 99.7267 82.7443 99.1317 81.9055 99.1317C81.0667 99.1317 80.3867 99.7267 80.3867 100.461C80.3867 101.195 81.0667 101.79 81.9055 101.79Z" fill="#2F2E41"/>
<path d="M91.7793 114.695L157.105 254.803L247.874 230.131V227.093L177.234 95.3344L93.303 113.561L92.9043 113.86L91.7793 114.695Z" fill="white"/>
<path opacity="0.2" d="M91.7793 114.699L157.105 254.807L247.874 230.131V227.093L157.482 252.534L92.8994 113.86L91.7793 114.699Z" fill="black"/>
<path d="M208.38 173.934L141.535 191.021" stroke="#3F3D56" stroke-width="2" stroke-miterlimit="10"/>
<path d="M211.845 181L145 198.087" stroke="#3F3D56" stroke-width="2" stroke-miterlimit="10"/>
<path d="M203.441 191.021L161.283 202.412" stroke="#3F3D56" stroke-width="2" stroke-miterlimit="10"/>
<path d="M165.082 223.296L171.238 236.695L171.538 237.345L172.586 237.079L223.57 224.055V222.156L216.733 209.246L166.219 222.916L165.767 223.067L165.082 223.296Z" fill="#DA4453"/>
<path opacity="0.2" d="M165.082 223.302L171.238 236.702L171.538 237.351L172.586 237.085L223.57 224.061V222.163L172.297 235.832L165.768 223.075L165.082 223.302Z" fill="black"/>
<path d="M169.599 143.905C165.251 132.541 153.241 126.03 143.594 129.097C134.756 131.909 131.121 141.89 134.84 151.593C138.56 161.295 148.659 168.238 158.104 167.006C168.411 165.663 173.949 155.269 169.599 143.905Z" fill="#3F3D56" stroke="#3F3D56" stroke-width="2" stroke-miterlimit="10"/>
<path opacity="0.2" d="M169.599 143.905C165.251 132.541 153.241 126.03 143.594 129.097C134.756 131.909 131.121 141.89 134.84 151.593C138.56 161.295 148.659 168.238 158.104 167.006C168.411 165.663 173.949 155.269 169.599 143.905Z" fill="black"/>
<path d="M171.5 142.008C167.151 130.644 155.141 124.132 145.494 127.2C136.656 130.012 133.021 139.993 136.741 149.695C140.461 159.398 150.559 166.341 160.005 165.108C170.311 163.766 175.85 153.372 171.5 142.008Z" fill="#FFCE55" stroke="#3F3D56" stroke-width="2" stroke-miterlimit="10"/>
<path d="M64.831 41.2669C67.9262 41.2669 70.4354 38.7583 70.4354 35.6638C70.4354 32.5693 67.9262 30.0607 64.831 30.0607C61.7358 30.0607 59.2266 32.5693 59.2266 35.6638C59.2266 38.7583 61.7358 41.2669 64.831 41.2669Z" stroke="#3F3D56" stroke-width="2" stroke-miterlimit="10"/>
<path d="M182.068 73.6836C193.461 73.6836 202.697 64.4501 202.697 53.0599C202.697 41.6697 193.461 32.4362 182.068 32.4362C170.675 32.4362 161.439 41.6697 161.439 53.0599C161.439 64.4501 170.675 73.6836 182.068 73.6836Z" fill="#D64545"/>
<path d="M263.199 98.9361C263.199 98.9361 260.085 97.2844 258.98 98.7564C257.876 100.228 243.884 102.438 243.884 103.542C243.884 104.646 240.938 134.462 241.674 137.04C242.411 139.619 240.207 142.562 240.207 142.562L237.629 153.605C237.629 153.605 230.629 174.585 233.575 175.318C235.768 175.703 238.011 175.703 240.203 175.318C241.304 175.318 240.937 161.331 243.885 157.649C246.834 153.968 250.881 144.766 251.618 142.926C252.354 141.086 261.558 115.687 261.19 112.742C260.822 109.796 263.199 98.9361 263.199 98.9361Z" fill="#656D7B"/>
<path d="M253.826 270.293L251.833 268.813C251.833 268.813 250.513 276.184 251.986 277.288C253.458 278.392 258.982 280.233 258.982 282.441C258.982 284.649 271.5 287.594 271.868 284.281C272.156 282.486 271.763 280.648 270.768 279.128C270.768 279.128 264.877 273.238 264.14 272.133C263.402 271.028 261.562 268.82 261.562 268.82L253.826 270.293Z" fill="#2F2E41"/>
<path d="M283.286 178.636C283.286 178.636 283.231 178.96 283.135 179.553C283.047 180.08 282.925 180.823 282.778 181.739C281.231 191.174 276.721 218.947 277.031 219.864C277.398 220.964 279.977 225.017 277.031 226.121C276.631 226.353 276.311 226.701 276.114 227.119C275.482 228.29 274.961 229.518 274.557 230.787C272.604 236.984 271.028 243.294 269.837 249.682C269.362 252.162 269.038 254.158 268.941 255.203C268.908 255.446 268.904 255.692 268.93 255.936C269.297 257.404 266.721 262.562 265.616 264.035C264.512 265.508 262.671 266.98 263.039 268.452C263.407 269.924 253.834 273.973 252.73 271.397C252.156 269.829 251.666 268.232 251.262 266.612C250.896 265.878 250.529 260.723 252.363 259.986C254.197 259.248 253.097 246.366 254.941 243.789C256.048 241.47 256.898 239.037 257.478 236.534C257.865 235.165 258.255 233.707 258.638 232.245C260.192 226.255 261.572 220.23 261.572 220.23L261.206 177.162L281.456 174.585L281.976 175.729L283.011 178L283.286 178.636Z" fill="#2F2E41"/>
<path d="M284.386 249.311C284.386 249.311 287.332 246.366 288.804 249.311C290.277 252.257 291.75 263.667 294.327 266.244C296.903 268.821 300.219 281.705 296.537 282.441C292.854 283.177 288.804 281.341 288.436 279.128C288.068 276.915 280.336 265.508 280.336 264.403C280.336 263.298 285.49 259.25 285.49 259.25L284.386 249.311Z" fill="#2F2E41"/>
<path d="M239.098 158.39C239.098 158.39 243.884 201.458 244.988 205.507C246.093 209.556 251.989 225.017 253.823 227.599C255.658 230.181 267.446 251.159 268.92 252.263C270.393 253.367 273.338 256.312 273.338 256.312C273.338 256.312 278.861 261.833 279.598 262.938C280.335 264.043 286.594 260.729 286.962 258.521C287.122 256.043 286.874 253.556 286.228 251.159C285.862 249.691 286.962 247.477 285.862 246.373C284.761 245.269 279.234 239.747 279.234 237.171C279.234 234.595 269.661 219.502 265.979 216.189C262.297 212.876 263.033 207.355 263.033 207.355V184.893L283.284 178.636C283.284 178.636 282.183 160.967 279.602 160.967C277.02 160.967 243.148 155.077 239.098 158.39Z" fill="#2F2E41"/>
<path d="M268.922 96.9176C275.632 96.9176 281.072 91.4789 281.072 84.77C281.072 78.0611 275.632 72.6224 268.922 72.6224C262.211 72.6224 256.771 78.0611 256.771 84.77C256.771 91.4789 262.211 96.9176 268.922 96.9176Z" fill="#FBBEBE"/>
<path d="M264.873 94.3404C264.873 94.3404 263.406 99.8615 261.559 101.335C259.712 102.808 266.345 109.065 266.345 109.065L278.864 109.799L281.074 102.804C281.074 102.804 277.023 94.7059 278.128 89.5527C279.232 84.3995 264.873 94.3404 264.873 94.3404Z" fill="#FBBEBE"/>
<path d="M259.717 100.598C259.717 100.598 263.031 100.964 263.767 102.065C264.503 103.165 269.657 106.482 273.708 105.746C277.758 105.01 280.336 103.906 281.072 104.279C281.808 104.652 283.281 112.377 283.281 112.377L279.231 124.157L279.965 156.555L281.066 165.39C281.066 165.39 283.275 162.444 274.438 164.289C265.6 166.134 254.187 162.822 250.505 162.449C246.823 162.076 240.564 160.982 240.196 158.768C239.828 156.554 241.297 148.462 241.297 148.462L247.187 123.799L250.869 110.547L259.717 100.598Z" fill="white"/>
<path d="M278.493 100.598C278.493 100.598 281.439 100.598 281.807 101.331C283.405 103.731 285.257 105.953 287.329 107.957C288.797 109.058 293.957 113.847 293.957 114.952C293.957 116.057 283.279 124.154 283.279 124.154C283.279 124.154 278.861 145.872 281.07 153.235C283.278 160.597 286.592 178.266 285.12 179.37C283.647 180.474 280.333 180.837 280.333 179.37C280.333 177.903 278.124 162.069 276.283 158.756C274.443 155.443 268.919 134.461 271.129 128.571C273.339 122.682 278.493 100.598 278.493 100.598Z" fill="#656D7B"/>
<path d="M229.893 137.04C229.893 137.04 229.527 148.452 233.575 154.341C236.203 158.278 238.423 162.471 240.203 166.857C240.203 166.857 246.83 165.017 247.936 162.807C249.041 160.598 256.036 162.441 256.036 161.707C256.036 160.974 247.568 157.29 246.831 156.554C246.095 155.818 243.517 155.82 242.045 154.345C240.573 152.869 240.205 149.56 240.205 149.56L238.737 139.989L229.893 137.04Z" fill="#FBBEBE"/>
<path d="M260.553 77.2792C259.613 77.2566 258.686 77.0445 257.829 76.6557C257.386 76.3847 257.007 76.0225 256.715 75.5932C256.424 75.1639 256.227 74.6774 256.139 74.1662C256.051 73.655 256.073 73.1308 256.203 72.6286C256.334 72.1265 256.57 71.6579 256.896 71.2543C257.284 70.8572 257.718 70.5079 258.19 70.2139L260.989 68.3091C262.181 67.3991 263.515 66.6912 264.937 66.2136C266.26 65.9126 267.624 65.8321 268.973 65.9752C271.605 66.0681 274.209 66.5417 276.705 67.3812C279.213 68.232 281.4 69.8318 282.97 71.9646C285.34 75.3879 285.372 80.0154 284.07 83.9728C282.769 87.9303 280.286 91.3768 277.844 94.7523L276.576 88.5697C276.529 88.0043 276.274 87.4765 275.859 87.0892C274.72 86.2786 273.328 87.945 271.93 87.9316C271.482 87.887 271.056 87.7148 270.703 87.4355C270.35 87.1562 270.084 86.7814 269.938 86.3557C269.659 85.5009 269.51 84.609 269.496 83.71C269.33 81.8162 268.667 79.1803 266.873 78.135C265.199 77.1631 262.433 77.4504 260.553 77.2792Z" fill="#2F2E41"/>
<path d="M246.833 103.542H243.887C243.887 103.542 231.368 120.474 232.842 121.578C234.315 122.682 232.842 125.627 232.842 125.627L229.896 131.149C229.896 131.149 226.214 134.462 227.318 135.198C228.378 136.272 229.249 137.516 229.896 138.879C229.896 138.879 237.26 137.779 239.468 142.192L244.244 136.165L246.833 103.542Z" fill="#656D7B"/>
<path d="M280.335 135.2C280.335 135.2 272.235 135.567 263.03 129.679L253.826 125.63C253.826 125.63 245.725 113.114 244.989 115.324C244.253 117.533 246.09 121.95 246.09 121.95C246.09 121.95 234.027 124.248 234.693 127.769C234.83 128.494 240.929 126.735 240.929 126.735C240.929 126.735 239.829 133.73 246.084 134.098C252.339 134.466 254.184 132.997 254.184 132.997C254.184 132.997 280.693 155.083 285.112 148.09C289.53 141.097 280.335 135.2 280.335 135.2Z" fill="#FBBEBE"/>
<path d="M289.908 113.481L293.958 114.948V125.992L295.426 128.201C295.426 128.201 295.059 132.618 293.958 133.722C292.858 134.826 290.644 134.456 291.38 137.035C291.823 138.715 291.947 140.463 291.747 142.189C291.747 142.189 285.121 150.655 284.751 149.551C284.382 148.447 279.229 134.827 278.493 134.827C277.756 134.827 285.857 113.477 285.857 113.477L289.908 113.481Z" fill="#656D7B"/>
</svg>
