<svg width="294" height="277" viewBox="0 0 294 277" fill="none" xmlns="http://www.w3.org/2000/svg">
<path d="M105.738 181.227C106.544 180.723 107.355 180.192 108.149 179.656L108.689 180.456C107.885 180.998 107.065 181.533 106.251 182.044L105.738 181.227Z" fill="#E6E6E6"/>
<path d="M37.8172 38.0842C38.8917 37.3585 39.9914 36.6509 41.0861 35.9807L41.5893 36.8041C39.9499 37.8076 38.3091 38.8904 36.733 40.0085L36.1756 39.2207C36.7166 38.8369 37.2638 38.458 37.8172 38.0842ZM31.4941 42.7848L32.1039 43.5323C30.605 44.7562 29.1328 46.0455 27.7265 47.3634L27.0672 46.6591C28.4894 45.3278 29.9784 44.0225 31.4941 42.7844V42.7848ZM46.2033 33.0805C47.9376 32.1748 49.7217 31.3178 51.5072 30.5371L51.8934 31.4214C50.129 32.1945 48.3645 33.0406 46.6508 33.9367L46.2033 33.0805ZM22.9167 50.8288L23.623 51.4865C22.3082 52.9009 21.026 54.3799 19.8123 55.882L19.0623 55.2756C20.2904 53.7558 21.5872 52.2596 22.9172 50.8267L22.9167 50.8288ZM56.9729 28.3648C58.8108 27.7067 60.696 27.1057 62.5763 26.5747L62.838 27.5031C60.9783 28.0277 59.1145 28.6233 57.2971 29.2734L56.9729 28.3648ZM15.5242 59.9754L16.3144 60.5285C15.2075 62.1108 14.1418 63.751 13.1478 65.4025L12.322 64.9043C13.3273 63.236 14.4044 61.5778 15.5242 59.9754ZM68.2996 25.1713C70.2163 24.7721 72.1686 24.4351 74.103 24.1699L74.2338 25.1264C72.3213 25.3887 70.3907 25.7215 68.4958 26.1164L68.2996 25.1713ZM9.46454 70.0453L10.3227 70.4855C9.44189 72.2063 8.61145 73.9766 7.85274 75.7502L6.96568 75.3704C7.73404 73.5762 8.57496 71.7849 9.46454 70.0453ZM79.9596 23.5718C81.9116 23.4396 83.8908 23.3737 85.8423 23.3758V24.3411C83.913 24.3411 81.9556 24.404 80.0255 24.5346L79.9596 23.5718ZM4.83717 80.8542L5.74729 81.1728C5.10979 82.9968 4.52723 84.8661 4.01596 86.7275L3.08613 86.4723C3.60326 84.5887 4.19211 82.6984 4.83717 80.8542ZM91.7241 23.5831C93.6714 23.7187 95.6406 23.9231 97.5766 24.1908L97.444 25.1465C95.5298 24.8817 93.5829 24.6794 91.6562 24.5455L91.7241 23.5831ZM1.72178 92.1979L2.66671 92.3897C2.28337 94.2838 1.95959 96.2153 1.70543 98.1312L0.749169 98.0053C1.00627 96.068 1.33341 94.1147 1.72136 92.1996L1.72178 92.1979ZM103.373 25.1964C105.286 25.596 107.208 26.0665 109.087 26.5945L108.826 27.5233C106.969 27.0012 105.068 26.5361 103.177 26.1412L103.373 25.1964ZM0.175416 103.864L1.13754 103.926C1.01465 105.853 0.956774 107.811 0.965581 109.746L0.000940487 109.75C-0.00828656 107.794 0.0504282 105.813 0.174993 103.864H0.175416ZM114.691 28.3782C116.531 29.0338 118.371 29.7632 120.16 30.5401L119.775 31.4252C118.007 30.6551 116.188 29.9357 114.368 29.2868L114.691 28.3782ZM0.230773 115.637L1.19207 115.566C1.33341 117.497 1.54395 119.444 1.81741 121.358L0.862828 121.494C0.586436 119.559 0.373373 117.588 0.230773 115.637ZM125.467 33.07C127.199 33.9699 128.921 34.9419 130.586 35.958L130.083 36.7814C128.437 35.7771 126.734 34.816 125.022 33.9275L125.467 33.07ZM1.89668 127.295L2.83951 127.093C3.24508 128.985 3.72028 130.887 4.25586 132.746L3.32897 133.013C2.78835 131.133 2.30644 129.209 1.89668 127.295ZM135.492 39.1897C137.086 40.3199 138.66 41.5203 140.171 42.7571L139.56 43.5042C138.066 42.2812 136.51 41.0947 134.934 39.9787L135.492 39.1897ZM5.15089 138.611L6.05723 138.281C6.71823 140.097 7.45094 141.913 8.2344 143.677L7.35364 144.069C6.56095 142.284 5.81985 140.448 5.15089 138.611ZM144.592 46.6402C146.014 47.9786 147.408 49.3842 148.736 50.8179L148.028 51.4739C146.716 50.0562 145.337 48.6665 143.932 47.3436L144.592 46.6402ZM9.92505 149.362L10.7773 148.911C11.679 150.616 12.6529 152.314 13.6712 153.959L12.8517 154.467C11.8216 152.804 10.8373 151.087 9.92505 149.362ZM152.584 55.2701C153.808 56.7886 154.997 58.3713 156.119 59.9741L155.329 60.5277C154.22 58.9425 153.044 57.3799 151.833 55.8761L152.584 55.2701ZM16.9045 158.799C18.031 160.372 19.2242 161.923 20.4514 163.411L19.7078 164.025C18.4664 162.52 17.2597 160.952 16.1206 159.362L16.9045 158.799ZM24.3041 167.771C25.6349 169.175 27.0303 170.549 28.4479 171.855L27.7953 172.565C26.3601 171.245 24.95 169.855 23.6046 168.434L24.3041 167.771ZM32.8627 175.642C34.3696 176.847 35.9374 178.015 37.5227 179.113L36.9741 179.907C35.3707 178.796 33.7866 177.615 32.2612 176.396L32.8627 175.642ZM42.4122 182.254C44.0727 183.242 45.7872 184.185 47.5072 185.053L47.0727 185.915C45.3326 185.033 43.5987 184.083 41.9194 183.084L42.4122 182.254ZM52.7839 187.496C54.5651 188.247 56.3929 188.946 58.2152 189.572L57.9024 190.485C56.0569 189.851 54.2115 189.145 52.4081 188.386L52.7839 187.496ZM63.7775 191.273C65.6417 191.777 67.5475 192.218 69.4425 192.592L69.2562 193.538C67.3399 193.161 65.4123 192.712 63.5267 192.205L63.7775 191.273ZM75.1855 193.521C77.1038 193.764 79.0533 193.945 80.9792 194.057L80.9234 195.022C78.9757 194.909 77.004 194.728 75.0642 194.48L75.1855 193.521ZM86.796 194.197C88.7308 194.176 90.6869 194.089 92.6099 193.936L92.6862 194.898C90.741 195.052 88.7626 195.14 86.8057 195.161L86.796 194.197ZM98.3936 193.277C100.307 192.993 102.232 192.637 104.119 192.222L104.326 193.164C102.418 193.584 100.47 193.944 98.5349 194.232L98.3936 193.277ZM109.76 190.773C111.612 190.227 113.469 189.611 115.279 188.94L115.615 189.845C113.784 190.524 111.905 191.146 110.032 191.699L109.76 190.773ZM120.66 186.73C122.418 185.936 124.173 185.069 125.876 184.155L126.329 185.004C124.607 185.928 122.832 186.805 121.054 187.606L120.66 186.73Z" fill="#E6E6E6"/>
<path d="M133.41 65.5263L134.236 65.0286C134.74 65.8633 135.229 66.7107 135.695 67.5468L134.853 68.0164C134.392 67.1896 133.907 66.3515 133.41 65.5263Z" fill="#E6E6E6"/>
<path d="M175.151 276.583C240.472 276.583 293.425 273.388 293.425 269.448C293.425 265.507 240.472 262.313 175.151 262.313C109.83 262.313 56.877 265.507 56.877 269.448C56.877 273.388 109.83 276.583 175.151 276.583Z" fill="#5F8137"/>
<path d="M196.35 64.9695C196.35 64.9695 199.663 108.08 195.024 109.407C190.385 110.734 173.815 120.682 147.303 118.029C147.303 118.029 121.455 131.958 125.432 118.693C129.408 105.427 147.303 108.746 147.303 108.746C147.303 108.746 179.117 102.114 180.443 97.4703C181.769 92.8264 176.466 73.5936 178.454 72.9304C180.443 72.2673 196.35 64.9695 196.35 64.9695Z" fill="#FBBEBE"/>
<path d="M129.246 107.965L138.146 105.902C138.575 105.803 139.026 105.853 139.423 106.043C139.821 106.234 140.142 106.554 140.333 106.952L149.449 125.868C149.548 126.075 149.602 126.3 149.605 126.529C149.608 126.758 149.561 126.985 149.467 127.194C149.373 127.403 149.235 127.589 149.061 127.739C148.888 127.889 148.684 127.999 148.464 128.061L139.42 130.633C138.936 130.771 138.418 130.727 137.963 130.511C137.509 130.295 137.148 129.92 136.949 129.458L131.132 115.937L130.955 116.036L129.847 113.475L130.031 113.381L128.408 109.607C128.338 109.446 128.305 109.271 128.311 109.095C128.317 108.919 128.362 108.746 128.442 108.59C128.522 108.433 128.636 108.296 128.775 108.188C128.914 108.08 129.075 108.005 129.247 107.966L129.246 107.965Z" fill="#3F3D56"/>
<path d="M137.074 106.604L138.113 106.363C138.411 106.294 138.724 106.329 139 106.462C139.276 106.596 139.498 106.82 139.629 107.096L148.526 125.893C148.578 126.001 148.605 126.119 148.606 126.239C148.608 126.358 148.584 126.477 148.535 126.586C148.486 126.696 148.415 126.794 148.325 126.873C148.236 126.952 148.13 127.011 148.015 127.046L139.034 129.757C138.781 129.834 138.508 129.814 138.269 129.702C138.029 129.59 137.839 129.394 137.734 129.151L129.315 109.542C129.26 109.415 129.234 109.278 129.239 109.14C129.243 109.002 129.278 108.866 129.34 108.743C129.402 108.62 129.491 108.512 129.6 108.426C129.708 108.341 129.834 108.281 129.969 108.25L130.954 108.021C131.05 107.999 131.15 108.009 131.239 108.05C131.328 108.09 131.402 108.159 131.448 108.246C131.488 108.322 131.553 108.383 131.632 108.418C131.711 108.454 131.799 108.463 131.883 108.443L136.562 107.36C136.727 107.321 136.871 107.222 136.966 107.082C137.061 106.942 137.1 106.771 137.074 106.604Z" fill="#E6E9EE"/>
<path d="M156.652 140.133C156.652 140.133 159.236 202.417 163.213 211.701C166.526 219.435 168.458 244.657 169.012 252.867C169.123 254.513 169.179 255.475 169.179 255.475C169.179 255.475 179.784 255.475 180.447 252.822C181.11 250.169 183.098 220.986 180.447 211.701C177.796 202.416 183.828 138.143 183.828 138.143L156.652 140.133Z" fill="black"/>
<path d="M171.827 252.159C171.827 252.159 165.201 254.148 163.874 256.801C162.548 259.454 140.677 264.097 147.304 267.413C153.932 270.729 173.816 264.76 173.816 264.76C173.816 264.76 184.42 264.097 183.756 260.117C183.092 256.138 180.68 251.234 180.68 251.234L171.827 252.159Z" fill="#2F2E41"/>
<path d="M190.386 259.3C190.386 259.3 183.759 261.289 182.433 263.942C181.106 266.595 159.235 271.238 165.863 274.554C172.491 277.87 192.374 271.901 192.374 271.901C192.374 271.901 202.979 271.238 202.315 267.258C201.65 263.279 199.238 258.375 199.238 258.375L190.386 259.3Z" fill="#2F2E41"/>
<path d="M162.549 138.589L171.828 154.507L187.312 209.85C187.312 209.85 185.745 260.626 187.732 260.626C189.718 260.626 200.324 263.942 200.987 260.626C201.547 257.825 208.971 230.991 205.27 213.13C202.864 201.841 201.315 190.387 200.639 178.864L198.999 147.874C198.999 147.874 205.626 135.936 198.336 133.946C191.047 131.956 162.549 138.589 162.549 138.589Z" fill="black"/>
<path d="M171.165 4.61328C174.311 4.61328 177.386 5.54686 180.002 7.29595C182.618 9.04504 184.657 11.5311 185.861 14.4397C187.065 17.3484 187.38 20.5489 186.766 23.6367C186.152 26.7245 184.637 29.5608 182.413 31.787C180.188 34.0132 177.354 35.5292 174.268 36.1434C171.182 36.7576 167.984 36.4424 165.077 35.2376C162.171 34.0328 159.687 31.9925 157.939 29.3748C156.191 26.7571 155.258 23.6796 155.258 20.5313C155.258 16.3096 156.934 12.2608 159.917 9.27555C162.9 6.29035 166.946 4.61328 171.165 4.61328V4.61328Z" fill="#FBBEBE"/>
<path d="M169.176 31.1417C169.176 31.1417 171.827 52.3655 171.164 53.6922C170.502 55.0189 187.071 39.1009 187.071 39.1009C187.071 39.1009 181.106 29.8154 182.432 25.1727L169.176 31.1417Z" fill="#FBBEBE"/>
<path d="M206.293 52.3671C206.293 52.3671 187.735 39.1021 187.072 36.4492L173.153 48.3875L170.788 45.5705C170.788 45.5705 159.897 56.3467 159.897 60.9895C159.897 65.6322 159.235 79.5604 161.223 83.54C163.212 87.5196 155.258 137.926 155.258 137.926C155.258 137.926 161.885 143.895 162.548 144.557C163.212 145.219 189.723 140.578 189.723 140.578C189.723 140.578 202.979 139.251 202.979 137.262C202.979 135.273 199.002 105.427 200.328 97.4674C201.654 89.5081 206.293 52.3671 206.293 52.3671Z" fill="#585858"/>
<path d="M210.268 70.9376C210.268 70.9376 213.581 114.048 208.942 115.375C204.303 116.702 187.733 126.65 161.221 123.997C161.221 123.997 135.373 137.926 139.35 124.661C143.326 111.395 161.221 114.714 161.221 114.714C161.221 114.714 193.035 108.082 194.361 103.438C195.687 98.7944 190.384 79.5616 192.372 78.8985C194.361 78.2353 210.268 70.9376 210.268 70.9376Z" fill="#FBBEBE"/>
<path d="M164.37 12.5797C166.544 11.8053 168.941 11.4075 171.16 12.0496C174.297 12.9582 176.471 15.7106 178.814 17.9871C181.158 20.2636 184.445 22.2811 187.531 21.2104C187.345 19.8717 187.696 18.5136 188.508 17.4331C188.851 16.9807 189.288 16.5517 189.375 15.9893C189.506 15.1369 188.79 14.4016 188.575 13.566C188.198 12.1016 189.231 10.0976 187.962 9.27705C187.627 9.06048 187.203 9.01096 186.876 8.78264C185.593 7.88532 187.018 5.65377 186.17 4.33759C185.916 3.99758 185.585 3.72201 185.205 3.53302C179.055 -0.0579373 171.533 -0.0680097 164.414 0.0226456C163.423 0.0352367 162.043 0.526287 162.322 1.47943C160.977 0.514116 159.215 1.87017 158.128 3.12298L155.908 5.68693C154.865 6.80199 153.955 8.03435 153.196 9.35931C152.517 10.657 152.368 12.6523 153.717 13.218C152.714 12.7983 151.496 18.7451 156.122 17.7663C158.812 17.1976 161.447 13.6205 164.37 12.5797Z" fill="black"/>
<path d="M195.688 53.6938L206.292 52.3671C206.292 52.3671 216.897 72.9278 210.932 76.2439C204.967 79.5599 189.723 82.2133 189.723 80.8866C189.723 79.56 195.688 53.6938 195.688 53.6938Z" fill="#585858"/>
<path d="M250.821 265.29C250.711 265.11 248.101 260.75 247.197 251.697C246.368 243.392 246.901 229.393 254.156 209.865C267.901 172.871 250.989 143.022 250.816 142.724L251.65 142.24C251.692 142.316 256.058 149.926 258.636 162.044C262.042 178.11 260.802 194.815 255.06 210.201C241.339 247.133 251.54 264.615 251.644 264.788L250.821 265.29Z" fill="#3F3D56"/>
<path d="M245.446 140.552C248.908 140.552 251.714 137.744 251.714 134.28C251.714 130.815 248.908 128.007 245.446 128.007C241.984 128.007 239.178 130.815 239.178 134.28C239.178 137.744 241.984 140.552 245.446 140.552Z" fill="#8CC051"/>
<path d="M265.215 163.712C268.677 163.712 271.483 160.904 271.483 157.44C271.483 153.976 268.677 151.167 265.215 151.167C261.754 151.167 258.947 153.976 258.947 157.44C258.947 160.904 261.754 163.712 265.215 163.712Z" fill="#8CC051"/>
<path d="M251.715 179.152C255.177 179.152 257.983 176.344 257.983 172.88C257.983 169.416 255.177 166.607 251.715 166.607C248.254 166.607 245.447 169.416 245.447 172.88C245.447 176.344 248.254 179.152 251.715 179.152Z" fill="#8CC051"/>
<path d="M268.11 192.18C271.572 192.18 274.378 189.372 274.378 185.908C274.378 182.443 271.572 179.635 268.11 179.635C264.648 179.635 261.842 182.443 261.842 185.908C261.842 189.372 264.648 192.18 268.11 192.18Z" fill="#8CC051"/>
<path d="M246.893 212.445C250.355 212.445 253.161 209.637 253.161 206.173C253.161 202.709 250.355 199.901 246.893 199.901C243.431 199.901 240.625 202.709 240.625 206.173C240.625 209.637 243.431 212.445 246.893 212.445Z" fill="#8CC051"/>
<path d="M254.608 265.521C254.608 265.521 248.34 250.081 267.145 238.501L254.608 265.521Z" fill="#37BB9B"/>
<path d="M246.899 265.241C246.899 265.241 244.047 248.822 221.967 248.963L246.899 265.241Z" fill="#37BB9B"/>
<path d="M95.944 137.242C92.8748 137.242 89.8745 138.153 87.3225 139.859C84.7706 141.566 82.7816 143.991 81.607 146.828C80.4325 149.666 80.1252 152.788 80.724 155.801C81.3227 158.813 82.8007 161.58 84.971 163.752C87.1412 165.923 89.9063 167.402 92.9166 168.002C95.9268 168.601 99.047 168.293 101.883 167.118C104.718 165.943 107.142 163.952 108.847 161.398C110.552 158.845 111.462 155.842 111.462 152.771C111.462 148.653 109.827 144.703 106.917 141.79C104.007 138.878 100.06 137.242 95.944 137.242ZM103.613 148.833C103.621 149 103.626 149.172 103.626 149.344C103.626 154.583 99.6449 160.624 92.3576 160.624C90.2075 160.628 88.1026 160.006 86.3005 158.832C86.6138 158.87 86.929 158.889 87.2446 158.889C89.0275 158.893 90.7596 158.295 92.1613 157.192C91.335 157.177 90.5342 156.903 89.8709 156.409C89.2077 155.916 88.7153 155.227 88.4625 154.44C88.7075 154.489 88.9567 154.514 89.2066 154.513C89.5583 154.513 89.9085 154.466 90.248 154.374C89.3519 154.193 88.5462 153.707 87.9675 152.999C87.3888 152.29 87.0728 151.404 87.073 150.489V150.44C87.6231 150.749 88.2406 150.919 88.8715 150.934C88.032 150.374 87.4375 149.515 87.2089 148.532C86.9804 147.549 87.135 146.515 87.6413 145.642C88.6337 146.868 89.8731 147.87 91.2788 148.584C92.6844 149.298 94.2246 149.707 95.7989 149.785C95.7294 149.489 95.6951 149.185 95.6965 148.881C95.6957 148.086 95.9339 147.31 96.3801 146.652C96.8263 145.995 97.4599 145.487 98.1984 145.195C98.9369 144.903 99.7461 144.84 100.521 145.015C101.296 145.189 102 145.593 102.542 146.173C103.429 146 104.279 145.675 105.056 145.212C104.76 146.13 104.142 146.909 103.315 147.404C104.099 147.309 104.865 147.098 105.587 146.779C105.056 147.575 104.388 148.27 103.613 148.832L103.613 148.833Z" fill="#3CAEDA"/>
<path d="M46.5592 112.442C48.0039 112.442 49.1751 111.27 49.1751 109.824C49.1751 108.378 48.0039 107.206 46.5592 107.206C45.1145 107.206 43.9434 108.378 43.9434 109.824C43.9434 111.27 45.1145 112.442 46.5592 112.442Z" fill="#FF0202"/>
<path d="M49.828 103.28H43.289C42.422 103.282 41.5911 103.628 40.9781 104.242C40.365 104.855 40.0197 105.686 40.0176 106.554V113.098C40.0197 113.965 40.365 114.797 40.9781 115.41C41.5911 116.024 42.422 116.369 43.289 116.371H49.828C50.695 116.369 51.5259 116.024 52.1389 115.41C52.752 114.797 53.0973 113.965 53.0994 113.098V106.552C53.0973 105.685 52.752 104.853 52.1389 104.24C51.5259 103.626 50.695 103.281 49.828 103.279V103.28ZM46.5566 113.75C45.7806 113.75 45.022 113.52 44.3768 113.089C43.7316 112.657 43.2287 112.044 42.9317 111.326C42.6347 110.609 42.557 109.82 42.7084 109.058C42.8598 108.296 43.2335 107.597 43.7822 107.048C44.3309 106.499 45.0301 106.125 45.7912 105.973C46.5523 105.822 47.3412 105.899 48.0581 106.196C48.7751 106.494 49.3878 106.997 49.819 107.643C50.2501 108.288 50.4802 109.047 50.4802 109.824C50.4802 110.865 50.0668 111.864 49.331 112.6C48.5952 113.337 47.5972 113.75 46.5566 113.75ZM50.8069 106.552C50.5807 106.551 50.3615 106.472 50.1869 106.328C50.0123 106.184 49.893 105.984 49.8493 105.762C49.8055 105.54 49.8401 105.309 49.9471 105.11C50.0541 104.91 50.2269 104.754 50.436 104.668C50.6452 104.581 50.8778 104.57 51.0943 104.636C51.3108 104.702 51.4977 104.841 51.6233 105.029C51.7489 105.218 51.8053 105.444 51.783 105.669C51.7607 105.895 51.6611 106.105 51.5011 106.265C51.4098 106.356 51.3016 106.429 51.1825 106.478C51.0634 106.527 50.9358 106.552 50.8069 106.552Z" fill="#E086C0"/>
<path d="M46.3893 94.4327C43.3201 94.4327 40.3198 95.3434 37.7679 97.0498C35.2159 98.7561 33.2269 101.181 32.0524 104.019C30.8778 106.856 30.5705 109.979 31.1693 112.991C31.7681 116.003 33.246 118.77 35.4163 120.942C37.5865 123.114 40.3516 124.593 43.3619 125.192C46.3721 125.791 49.4923 125.484 52.3279 124.308C55.1635 123.133 57.5871 121.143 59.2922 118.589C60.9974 116.035 61.9075 113.033 61.9075 109.962C61.9075 105.843 60.2726 101.893 57.3624 98.981C54.4521 96.0688 50.505 94.4327 46.3893 94.4327ZM54.4043 113.096C54.4007 114.309 53.9176 115.472 53.0602 116.33C52.2029 117.189 51.0411 117.673 49.8285 117.677H43.2894C42.0765 117.673 40.9143 117.189 40.0566 116.331C39.1989 115.473 38.7155 114.31 38.712 113.096V106.552C38.7155 105.339 39.1989 104.176 40.0566 103.317C40.9143 102.459 42.0765 101.975 43.2894 101.972H49.8285C51.0414 101.975 52.2037 102.459 53.0613 103.317C53.919 104.176 54.4024 105.339 54.4059 106.552L54.4043 113.096Z" fill="#CD6DAB"/>
<path d="M92.5241 50.364C89.4549 50.364 86.4546 51.2748 83.9026 52.9811C81.3507 54.6875 79.3617 57.1127 78.1871 59.9503C77.0126 62.7878 76.7053 65.9102 77.304 68.9225C77.9028 71.9348 79.3808 74.7018 81.551 76.8736C83.7213 79.0453 86.4864 80.5243 89.4966 81.1235C92.5069 81.7227 95.6271 81.4152 98.4626 80.2398C101.298 79.0645 103.722 77.0741 105.427 74.5204C107.132 71.9666 108.042 68.9643 108.042 65.8929C108.042 61.7744 106.407 57.8246 103.497 54.9123C100.587 52.0001 96.6398 50.364 92.5241 50.364ZM92.6172 74.9618C91.7385 74.9606 90.8645 74.8334 90.0219 74.5841C90.4205 73.9771 90.7302 73.316 90.9416 72.6212C91.0561 72.212 91.5875 70.103 91.5875 70.103C91.8354 70.4647 92.1698 70.7586 92.5603 70.9579C92.9507 71.1572 93.3848 71.2556 93.823 71.2441C96.7656 71.2441 98.7641 68.561 98.7641 64.9662C98.7641 62.2508 96.4632 59.72 92.9687 59.72C88.6202 59.72 86.4258 62.8405 86.4258 65.4418C86.4258 67.0203 87.0227 68.4191 88.3019 68.9425C88.3461 68.9659 88.3953 68.9784 88.4453 68.9789C88.4954 68.9794 88.5448 68.968 88.5895 68.9456C88.6343 68.9232 88.673 68.8905 88.7026 68.8501C88.7321 68.8097 88.7516 68.7628 88.7594 68.7133C88.8043 68.5497 88.9025 68.1446 88.9473 67.9772C88.9824 67.8891 88.9887 67.7921 88.9651 67.7002C88.9416 67.6084 88.8896 67.5263 88.8165 67.466C88.3999 66.963 88.1844 66.3233 88.2117 65.6705C88.2048 65.0819 88.3176 64.498 88.5433 63.9544C88.769 63.4107 89.1028 62.9187 89.5245 62.5082C89.9461 62.0978 90.4468 61.7774 90.9961 61.5666C91.5453 61.3558 92.1317 61.259 92.7195 61.2821C95.176 61.2821 96.5286 62.783 96.5286 64.7912C96.5286 67.4353 95.3597 69.6623 93.6267 69.6623C93.4052 69.674 93.184 69.6335 92.981 69.544C92.778 69.4544 92.5988 69.3184 92.458 69.1469C92.3172 68.9753 92.2186 68.7731 92.1703 68.5564C92.122 68.3397 92.1252 68.1147 92.1797 67.8995C92.4536 66.7382 92.9888 65.4867 92.9888 64.6481C92.9888 63.8998 92.5882 63.274 91.7545 63.274C90.7735 63.274 89.9887 64.2884 89.9887 65.6462C89.9825 66.1442 90.0826 66.6379 90.2823 67.0941C90.2823 67.0941 89.2812 71.3436 89.1055 72.0886C88.9612 72.7794 88.9076 73.4861 88.9461 74.1908C86.8747 73.2801 85.2142 71.6335 84.2853 69.569C83.3564 67.5046 83.2252 65.1689 83.9169 63.0133C84.6087 60.8576 86.0743 59.0351 88.0306 57.8977C89.9869 56.7604 92.295 56.389 94.509 56.8554C96.7229 57.3217 98.6856 58.5927 100.018 60.4227C101.35 62.2526 101.957 64.5118 101.722 66.7635C101.486 69.0153 100.425 71.0999 98.7435 72.6144C97.0618 74.129 94.8788 74.9661 92.6163 74.9639L92.6172 74.9618Z" fill="#DA4553"/>
<path d="M96.9411 92.5146C101.452 92.5146 105.109 88.815 105.109 84.2515C105.109 79.6879 101.452 75.9884 96.9411 75.9884C92.4302 75.9884 88.7734 79.6879 88.7734 84.2515C88.7734 88.815 92.4302 92.5146 96.9411 92.5146Z" fill="#3F3D56"/>
<path d="M98.5738 88.658H96.9108V82.3172C96.297 82.8954 95.5632 83.3308 94.7617 83.5922V82.0653C95.2763 81.8758 95.7547 81.5995 96.176 81.2482C96.6533 80.8908 97.0173 80.4032 97.2245 79.8439H98.5742L98.5738 88.658Z" fill="#3F3D56"/>
<path d="M96.9411 92.5146C101.452 92.5146 105.109 88.815 105.109 84.2515C105.109 79.6879 101.452 75.9884 96.9411 75.9884C92.4302 75.9884 88.7734 79.6879 88.7734 84.2515C88.7734 88.815 92.4302 92.5146 96.9411 92.5146Z" fill="#106CE6"/>
<path d="M98.5738 88.658H96.9108V82.3172C96.297 82.8954 95.5632 83.3308 94.7617 83.5922V82.0653C95.2763 81.8758 95.7547 81.5995 96.176 81.2482C96.6533 80.8908 97.0173 80.4032 97.2245 79.8439H98.5742L98.5738 88.658Z" fill="white"/>
<path d="M46.4507 137.525C51.0112 137.525 54.7081 133.825 54.7081 129.262C54.7081 124.698 51.0112 120.999 46.4507 120.999C41.8903 120.999 38.1934 124.698 38.1934 129.262C38.1934 133.825 41.8903 137.525 46.4507 137.525Z" fill="#3F3D56"/>
<path d="M45.4693 130.611C45.441 131.054 45.5661 131.494 45.8237 131.856C45.9151 131.987 46.036 132.095 46.1765 132.172C46.317 132.248 46.4734 132.29 46.6331 132.295C46.7746 132.297 46.9143 132.265 47.0413 132.202C47.1682 132.14 47.2788 132.049 47.3642 131.936C47.5899 131.587 47.6932 131.173 47.6578 130.758C47.6928 130.323 47.582 129.889 47.3428 129.525C47.2521 129.405 47.1352 129.307 47.0009 129.239C46.8667 129.171 46.7187 129.135 46.5684 129.134C46.418 129.132 46.2693 129.165 46.1335 129.229C45.9977 129.294 45.8785 129.389 45.7851 129.507C45.5536 129.826 45.4422 130.217 45.4705 130.611H45.4693ZM49.0511 127.001L47.5215 127.179C47.5091 126.909 47.4056 126.652 47.2279 126.449C47.1471 126.37 47.0511 126.308 46.9457 126.268C46.8404 126.227 46.7279 126.209 46.6151 126.213C46.4461 126.216 46.2804 126.26 46.1327 126.342C45.985 126.424 45.86 126.542 45.7688 126.684C45.5381 126.998 45.3928 127.652 45.333 128.645C45.5032 128.417 45.7248 128.232 45.9798 128.105C46.2348 127.978 46.5161 127.912 46.8009 127.914C47.1241 127.913 47.4435 127.983 47.7364 128.12C48.0294 128.256 48.2886 128.456 48.4958 128.704C48.9805 129.269 49.2328 129.997 49.2016 130.741C49.2394 131.519 48.9733 132.281 48.4597 132.866C48.1984 133.136 47.8821 133.348 47.5322 133.485C47.1823 133.622 46.8069 133.683 46.4316 133.663C46.0562 133.642 45.6896 133.541 45.3566 133.367C45.0237 133.192 44.7321 132.948 44.5017 132.651C43.9654 131.974 43.6973 130.864 43.6973 129.322C43.6973 127.74 43.9769 126.599 44.5361 125.901C44.7901 125.566 45.1198 125.297 45.498 125.114C45.8762 124.932 46.2923 124.842 46.712 124.851C47.2812 124.831 47.8369 125.028 48.2668 125.402C48.7066 125.826 48.9841 126.392 49.0515 127L49.0511 127.001Z" fill="#3F3D56"/>
<path d="M46.4507 137.525C51.0112 137.525 54.7081 133.825 54.7081 129.262C54.7081 124.698 51.0112 120.999 46.4507 120.999C41.8903 120.999 38.1934 124.698 38.1934 129.262C38.1934 133.825 41.8903 137.525 46.4507 137.525Z" fill="#106CE6"/>
<path d="M45.4693 130.611C45.441 131.054 45.5661 131.494 45.8237 131.856C45.9151 131.987 46.036 132.095 46.1765 132.172C46.317 132.248 46.4734 132.29 46.6331 132.295C46.7746 132.297 46.9143 132.265 47.0413 132.202C47.1682 132.14 47.2788 132.049 47.3642 131.936C47.5899 131.587 47.6932 131.173 47.6578 130.758C47.6928 130.323 47.582 129.889 47.3428 129.525C47.2521 129.405 47.1352 129.307 47.0009 129.239C46.8667 129.171 46.7187 129.135 46.5684 129.134C46.418 129.132 46.2693 129.165 46.1335 129.229C45.9977 129.294 45.8785 129.389 45.7851 129.507C45.5536 129.826 45.4422 130.217 45.4705 130.611H45.4693ZM49.0511 127.001L47.5215 127.179C47.5091 126.909 47.4056 126.652 47.2279 126.449C47.1471 126.37 47.0511 126.308 46.9457 126.268C46.8404 126.227 46.7279 126.209 46.6151 126.213C46.4461 126.216 46.2804 126.26 46.1327 126.342C45.985 126.424 45.86 126.542 45.7688 126.684C45.5381 126.998 45.3928 127.652 45.333 128.645C45.5032 128.417 45.7248 128.232 45.9798 128.105C46.2348 127.978 46.5161 127.912 46.8009 127.914C47.1241 127.913 47.4435 127.983 47.7364 128.12C48.0294 128.256 48.2886 128.456 48.4958 128.704C48.9805 129.269 49.2328 129.997 49.2016 130.741C49.2394 131.519 48.9733 132.281 48.4597 132.866C48.1984 133.136 47.8821 133.348 47.5322 133.485C47.1823 133.622 46.8069 133.683 46.4316 133.663C46.0562 133.642 45.6896 133.541 45.3566 133.367C45.0237 133.192 44.7321 132.948 44.5017 132.651C43.9654 131.974 43.6973 130.864 43.6973 129.322C43.6973 127.74 43.9769 126.599 44.5361 125.901C44.7901 125.566 45.1198 125.297 45.498 125.114C45.8762 124.932 46.2923 124.842 46.712 124.851C47.2812 124.831 47.8369 125.028 48.2668 125.402C48.7066 125.826 48.9841 126.392 49.0515 127L49.0511 127.001Z" fill="white"/>
<path d="M95.8394 179.782C100.4 179.782 104.097 176.083 104.097 171.519C104.097 166.956 100.4 163.256 95.8394 163.256C91.279 163.256 87.582 166.956 87.582 171.519C87.582 176.083 91.279 179.782 95.8394 179.782Z" fill="#3F3D56"/>
<path d="M94.8165 169.454C94.808 169.594 94.8276 169.735 94.8742 169.867C94.9208 169.999 94.9934 170.121 95.0878 170.225C95.1826 170.318 95.2956 170.391 95.4198 170.438C95.5441 170.486 95.6768 170.507 95.8096 170.501C95.9441 170.508 96.0783 170.486 96.2041 170.438C96.3298 170.39 96.4442 170.316 96.5402 170.222C96.6352 170.118 96.7084 169.996 96.7555 169.863C96.8026 169.73 96.8227 169.589 96.8145 169.449C96.821 169.313 96.8004 169.177 96.7539 169.049C96.7074 168.921 96.6359 168.804 96.5436 168.704C96.45 168.61 96.3379 168.537 96.2145 168.489C96.0912 168.441 95.9591 168.419 95.8268 168.425C95.6912 168.418 95.5557 168.44 95.4289 168.489C95.3021 168.537 95.1868 168.612 95.0903 168.707C94.9973 168.807 94.925 168.925 94.8779 169.053C94.8308 169.182 94.8098 169.318 94.816 169.455L94.8165 169.454ZM94.668 173.148C94.6448 173.533 94.7659 173.912 95.0077 174.212C95.1121 174.334 95.2422 174.432 95.3888 174.498C95.5353 174.564 95.6946 174.597 95.8553 174.595C96.0111 174.598 96.1656 174.567 96.3078 174.503C96.45 174.439 96.5762 174.345 96.6774 174.226C96.913 173.925 97.0289 173.547 97.0029 173.165C97.0203 172.81 96.902 172.462 96.6719 172.191C96.5677 172.072 96.4385 171.977 96.2935 171.914C96.1486 171.85 95.9914 171.819 95.8331 171.823C95.6633 171.812 95.4935 171.845 95.34 171.918C95.1865 171.992 95.0545 172.103 94.9565 172.243C94.7688 172.507 94.6681 172.824 94.6684 173.149L94.668 173.148ZM94.4856 171.118C94.1124 170.972 93.7953 170.711 93.5805 170.373C93.3925 170.06 93.2948 169.701 93.2982 169.335C93.2893 169.038 93.3429 168.743 93.4555 168.468C93.568 168.194 93.7371 167.946 93.9516 167.74C94.4844 167.332 95.1366 167.111 95.8075 167.111C96.4785 167.111 97.1307 167.332 97.6634 167.74C97.8795 167.945 98.0499 168.192 98.1635 168.467C98.2772 168.742 98.3314 169.038 98.3227 169.335C98.3308 169.714 98.2251 170.086 98.0194 170.404C97.8137 170.722 97.5174 170.97 97.1689 171.118C97.5977 171.277 97.9655 171.568 98.2207 171.948C98.4758 172.328 98.6054 172.778 98.5912 173.236C98.6111 173.596 98.5545 173.956 98.4253 174.292C98.296 174.629 98.0969 174.934 97.8412 175.189C97.5855 175.443 97.2789 175.64 96.9416 175.767C96.6043 175.893 96.2439 175.947 95.8843 175.925C95.1975 175.95 94.5241 175.731 93.9827 175.308C93.6877 175.067 93.4529 174.761 93.2973 174.413C93.1417 174.066 93.0695 173.687 93.0864 173.306C93.0818 172.856 93.1976 172.412 93.4219 172.022C93.6679 171.613 94.041 171.295 94.4843 171.118L94.4856 171.118Z" fill="#3F3D56"/>
<path d="M95.8394 179.782C100.4 179.782 104.097 176.083 104.097 171.519C104.097 166.956 100.4 163.256 95.8394 163.256C91.279 163.256 87.582 166.956 87.582 171.519C87.582 176.083 91.279 179.782 95.8394 179.782Z" fill="#106CE6"/>
<path d="M94.8165 169.454C94.808 169.594 94.8276 169.735 94.8742 169.867C94.9208 169.999 94.9934 170.121 95.0878 170.225C95.1826 170.318 95.2956 170.391 95.4198 170.438C95.5441 170.486 95.6768 170.507 95.8096 170.501C95.9441 170.508 96.0783 170.486 96.2041 170.438C96.3298 170.39 96.4442 170.316 96.5402 170.222C96.6352 170.118 96.7084 169.996 96.7555 169.863C96.8026 169.73 96.8227 169.589 96.8145 169.449C96.821 169.313 96.8004 169.177 96.7539 169.049C96.7074 168.921 96.6359 168.804 96.5436 168.704C96.45 168.61 96.3379 168.537 96.2145 168.489C96.0912 168.441 95.9591 168.419 95.8268 168.425C95.6912 168.418 95.5557 168.44 95.4289 168.489C95.3021 168.537 95.1868 168.612 95.0903 168.707C94.9973 168.807 94.925 168.925 94.8779 169.053C94.8308 169.182 94.8098 169.318 94.816 169.455L94.8165 169.454ZM94.668 173.148C94.6448 173.533 94.7659 173.912 95.0077 174.212C95.1121 174.334 95.2422 174.432 95.3888 174.498C95.5353 174.564 95.6946 174.597 95.8553 174.595C96.0111 174.598 96.1656 174.567 96.3078 174.503C96.45 174.439 96.5762 174.345 96.6774 174.226C96.913 173.925 97.0289 173.547 97.0029 173.165C97.0203 172.81 96.902 172.462 96.6719 172.191C96.5677 172.072 96.4385 171.977 96.2935 171.914C96.1486 171.85 95.9914 171.819 95.8331 171.823C95.6633 171.812 95.4935 171.845 95.34 171.918C95.1865 171.992 95.0545 172.103 94.9565 172.243C94.7688 172.507 94.6681 172.824 94.6684 173.149L94.668 173.148ZM94.4856 171.118C94.1124 170.972 93.7953 170.711 93.5805 170.373C93.3925 170.06 93.2948 169.701 93.2982 169.335C93.2893 169.038 93.3429 168.743 93.4555 168.468C93.568 168.194 93.7371 167.946 93.9516 167.74C94.4844 167.332 95.1366 167.111 95.8075 167.111C96.4785 167.111 97.1307 167.332 97.6634 167.74C97.8795 167.945 98.0499 168.192 98.1635 168.467C98.2772 168.742 98.3314 169.038 98.3227 169.335C98.3308 169.714 98.2251 170.086 98.0194 170.404C97.8137 170.722 97.5174 170.97 97.1689 171.118C97.5977 171.277 97.9655 171.568 98.2207 171.948C98.4758 172.328 98.6054 172.778 98.5912 173.236C98.6111 173.596 98.5545 173.956 98.4253 174.292C98.296 174.629 98.0969 174.934 97.8412 175.189C97.5855 175.443 97.2789 175.64 96.9416 175.767C96.6043 175.893 96.2439 175.947 95.8843 175.925C95.1975 175.95 94.5241 175.731 93.9827 175.308C93.6877 175.067 93.4529 174.761 93.2973 174.413C93.1417 174.066 93.0695 173.687 93.0864 173.306C93.0818 172.856 93.1976 172.412 93.4219 172.022C93.6679 171.613 94.041 171.295 94.4843 171.118L94.4856 171.118Z" fill="white"/>
</svg>
