<svg width="505" height="281" viewBox="0 0 505 281" fill="none" xmlns="http://www.w3.org/2000/svg">
<path opacity="0.1" d="M504.593 183.627C504.62 198.225 500.635 212.549 493.072 225.035C493.072 240.305 485.953 254.146 474.406 264.234C471.515 266.755 468.403 269.011 465.108 270.974C464.977 271.058 464.839 271.137 464.702 271.216C464.455 271.362 464.208 271.507 463.956 271.657L463.722 271.794C462.668 272.389 461.592 272.963 460.494 273.501C450.373 278.478 439.238 281.044 427.96 280.999H95.7892C93.1426 280.999 90.5197 280.894 87.9204 280.682C78.6827 279.954 69.6053 277.852 60.9881 274.445C59.3062 273.781 57.6566 273.066 56.0392 272.302C55.2687 271.94 54.5055 271.568 53.7498 271.186C53.2778 270.948 52.8061 270.701 52.3384 270.454C49.5015 268.945 46.7534 267.275 44.1077 265.452C41.6902 263.797 39.3642 262.012 37.1399 260.106C22.1299 247.226 12.8453 229.404 12.8453 209.735C4.43133 196.779 -0.0317442 181.655 0.000169965 166.207C0.000169965 122.479 34.9511 87.0296 78.071 87.0296C79.394 87.0296 80.7174 87.0692 82.0409 87.1398C82.23 87.1353 82.4191 87.1442 82.607 87.1663C89.8762 74.7763 99.591 63.3922 111.277 53.3725C143.139 26.0674 189.708 8.8569 241.583 8.8569C285.17 8.8569 325.013 21.007 355.531 41.0865C367.095 34.5493 380.157 31.1224 393.441 31.1404C436.552 31.1404 471.512 66.5891 471.512 110.318C471.505 113.085 471.358 115.85 471.071 118.602C481.463 125.958 489.934 135.706 495.768 147.023C501.602 158.34 504.629 170.894 504.593 183.627Z" fill="#D64545"/>
<path opacity="0.1" d="M401.685 120.842V116.108C405.386 114.605 408.451 111.862 410.352 108.348C412.254 104.835 412.876 100.769 412.11 96.8479C411.344 92.9267 409.239 89.3937 406.155 86.8537C403.071 84.3137 399.2 82.9248 395.205 82.9248C391.21 82.9248 387.339 84.3137 384.255 86.8537C381.171 89.3937 379.066 92.9267 378.3 96.8479C377.535 100.769 378.156 104.835 380.058 108.348C381.96 111.862 385.024 114.605 388.726 116.108V120.84C384.41 122.04 380.511 124.412 377.461 127.692C374.23 122.844 369.365 119.319 363.752 117.759V113.022C367.454 111.519 370.518 108.776 372.42 105.262C374.322 101.749 374.943 97.6833 374.177 93.7621C373.411 89.8409 371.306 86.3078 368.223 83.7679C365.139 81.2279 361.268 79.839 357.272 79.839C353.277 79.839 349.406 81.2279 346.322 83.7679C343.238 86.3078 341.133 89.8409 340.368 93.7621C339.602 97.6833 340.223 101.749 342.125 105.262C344.027 108.776 347.091 111.519 350.793 113.022V117.755C346.956 118.82 343.44 120.813 340.556 123.559C337.337 119.239 332.774 116.111 327.584 114.667V109.934C331.285 108.431 334.35 105.688 336.251 102.175C338.153 98.6611 338.775 94.5956 338.009 90.6745C337.243 86.7533 335.138 83.2202 332.054 80.6802C328.971 78.1403 325.1 76.7514 321.104 76.7514C317.109 76.7514 313.238 78.1403 310.154 80.6802C307.07 83.2202 304.965 86.7533 304.2 90.6745C303.434 94.5956 304.055 98.6611 305.957 102.175C307.859 105.688 310.923 108.431 314.625 109.934V114.667C310.21 115.897 306.234 118.354 303.157 121.751C301.785 118.234 299.613 115.086 296.814 112.555C294.014 110.024 290.663 108.18 287.027 107.169V102.436C290.728 100.933 293.793 98.1899 295.695 94.6764C297.596 91.1628 298.218 87.0974 297.452 83.1762C296.686 79.255 294.581 75.722 291.497 73.182C288.414 70.642 284.543 69.2531 280.547 69.2531C276.552 69.2531 272.681 70.642 269.597 73.182C266.513 75.722 264.408 79.255 263.643 83.1762C262.877 87.0974 263.498 91.1628 265.4 94.6764C267.302 98.1899 270.366 100.933 274.068 102.436V107.169C269.341 108.485 265.125 111.203 261.975 114.965C258.825 118.726 256.89 123.355 256.425 128.239C254.199 126.694 251.728 125.535 249.116 124.812V120.079C252.818 118.576 255.882 115.833 257.784 112.319C259.686 108.806 260.307 104.74 259.541 100.819C258.776 96.898 256.671 93.3649 253.587 90.8249C250.503 88.285 246.632 86.8961 242.637 86.8961C238.642 86.8961 234.771 88.285 231.687 90.8249C228.603 93.3649 226.498 96.898 225.732 100.819C224.966 104.74 225.588 108.806 227.49 112.319C229.391 115.833 232.456 118.576 236.157 120.079V124.812C232.863 125.729 229.799 127.331 227.166 129.512C224.532 131.693 222.387 134.405 220.872 137.47C218.828 136.157 216.597 135.161 214.255 134.515V129.782C217.957 128.279 221.021 125.536 222.923 122.022C224.825 118.509 225.446 114.443 224.681 110.522C223.915 106.601 221.81 103.068 218.726 100.528C215.642 97.9881 211.771 96.5992 207.776 96.5992C203.781 96.5992 199.91 97.9881 196.826 100.528C193.742 103.068 191.637 106.601 190.871 110.522C190.106 114.443 190.727 118.509 192.629 122.022C194.531 125.536 197.595 128.279 201.297 129.782V134.515C199.087 135.125 196.976 136.049 195.029 137.258C193.503 134.243 191.365 131.579 188.752 129.436C186.138 127.293 183.107 125.718 179.851 124.811V120.079C183.553 118.576 186.617 115.833 188.519 112.319C190.421 108.806 191.042 104.74 190.277 100.819C189.511 96.898 187.406 93.3649 184.322 90.8249C181.238 88.285 177.367 86.8961 173.372 86.8961C169.377 86.8961 165.506 88.285 162.422 90.8249C159.338 93.3649 157.233 96.898 156.467 100.819C155.702 104.74 156.323 108.806 158.225 112.319C160.127 115.833 163.191 118.576 166.893 120.079V124.812C163.388 125.786 160.148 127.535 157.41 129.929C154.671 132.323 152.505 135.302 151.071 138.644C148.605 136.751 145.797 135.349 142.801 134.516V129.782C146.503 128.279 149.567 125.536 151.469 122.022C153.371 118.509 153.992 114.443 153.226 110.522C152.461 106.601 150.356 103.068 147.272 100.528C144.188 97.9881 140.317 96.5992 136.322 96.5992C132.326 96.5992 128.455 97.9881 125.371 100.528C122.288 103.068 120.183 106.601 119.417 110.522C118.651 114.443 119.272 118.509 121.174 122.022C123.076 125.536 126.14 128.279 129.842 129.782V134.515C124.73 135.932 120.224 138.985 117.013 143.207C113.802 147.429 112.063 152.587 112.062 157.892V267.28H160.552V257.576H183.488V267.279H232.007V257.576H266.85V239.933H296.843V247.431H333.013V250.519H370.944V253.606H419.465V144.219C419.464 138.915 417.726 133.757 414.515 129.534C411.304 125.312 406.797 122.259 401.685 120.842L401.685 120.842Z" fill="#FF0E0E"/>
<path d="M216.472 74.5419H256.798C266.662 74.5413 276.43 76.4837 285.543 80.2581C294.656 84.0326 302.937 89.5652 309.912 96.54C316.887 103.515 322.419 111.795 326.194 120.908C329.969 130.022 331.911 139.789 331.911 149.653V251.414H141.365V149.649C141.365 129.729 149.278 110.625 163.364 96.5402C177.449 82.4549 196.553 74.5419 216.472 74.5419Z" fill="#2F2E41"/>
<path opacity="0.2" d="M220.882 78.6351H252.388C262.252 78.6347 272.02 80.5772 281.133 84.3518C290.246 88.1264 298.526 93.659 305.501 100.634C312.476 107.609 318.008 115.889 321.783 125.002C325.557 134.115 327.5 143.882 327.499 153.746V247.317H145.775V153.742C145.775 133.822 153.688 114.719 167.774 100.633C181.859 86.5481 200.963 78.6351 220.882 78.6351Z" fill="black"/>
<path d="M460.485 265.789V273.49C450.364 278.467 439.229 281.033 427.951 280.989H95.7885C93.1419 280.989 90.519 280.883 87.9197 280.671C78.682 279.944 69.6046 277.842 60.9874 274.435C59.3055 273.77 57.6559 273.055 56.0385 272.291C55.268 271.929 54.5048 271.557 53.7491 271.175C53.2771 270.937 52.8054 270.69 52.3377 270.443C49.5011 268.937 46.7532 267.27 44.1074 265.45V244.533C44.1074 241.153 45.4504 237.91 47.841 235.52C50.2315 233.129 53.4738 231.786 56.8546 231.786H423.492C426.576 231.792 429.553 232.916 431.872 234.949L456.132 256.209C457.498 257.403 458.593 258.876 459.344 260.528C460.095 262.181 460.484 263.974 460.485 265.789Z" fill="#FFCE55"/>
<path d="M212.896 99.5995C203.278 100.235 193.696 101.264 184.151 102.687C181.438 103.093 178.686 103.543 176.211 104.743C174.289 105.75 172.516 107.02 170.945 108.518C163.859 114.866 158.153 122.602 154.182 131.247C151.726 136.606 149.961 142.274 147.646 147.677C139.402 166.974 124.449 182.756 115.747 201.852C113.864 205.984 112.276 210.3 111.645 214.793C110.992 219.442 111.732 224.867 115.553 227.584C117.317 228.832 119.461 229.348 121.561 229.789C147.992 235.642 174.73 240.007 201.65 242.865C198.735 240.051 197.76 235.689 198.144 231.658C198.528 227.626 200.111 223.815 201.671 220.079C186.436 216.718 171.239 213.19 156.081 209.494C153.816 208.943 151.101 207.906 150.823 205.595C150.682 204.419 151.264 203.284 151.838 202.247C158.303 190.541 166.055 179.593 174.95 169.608C174.95 181.984 174.337 195.962 174.337 208.343H317.29C315.571 201.279 314.56 194.061 314.273 186.796C313.607 163.084 321.589 139.552 319.518 115.888C319.324 113.705 319.024 111.456 317.881 109.586C315.91 106.357 311.975 105.02 308.359 103.918C294.491 99.701 280.332 95.4358 265.839 95.7668C261.527 95.8683 257.238 96.3712 252.955 96.8782C239.903 98.4176 226.009 98.7307 212.896 99.5995Z" fill="#D64545"/>
<path d="M145.945 241.852L156.353 275.166C156.419 275.378 156.551 275.562 156.73 275.693C156.908 275.824 157.124 275.894 157.345 275.894H202.013L191.429 237.079L146.853 240.506C146.698 240.519 146.548 240.567 146.413 240.646C146.279 240.724 146.164 240.832 146.077 240.961C145.99 241.09 145.932 241.237 145.91 241.391C145.887 241.546 145.899 241.703 145.945 241.852H145.945Z" fill="#414141"/>
<path d="M222.304 113.926C220.364 115.041 218.101 115.443 215.895 115.827L201.661 118.297C198.891 118.776 195.976 119.324 193.841 121.155C189.474 124.891 190.418 131.767 191.742 137.36L194.388 148.581C196.382 157.015 198.419 165.55 202.508 173.189C209.65 186.523 222.749 196.125 237.155 200.752C242.302 202.407 247.74 203.482 253.113 202.891C263.637 201.735 272.639 194.233 278.188 185.213C283.737 176.193 286.379 165.73 288.8 155.418C291.125 145.547 293.335 135.534 293.185 125.39C293.141 122.231 292.823 118.932 291.138 116.255C287.447 110.376 279.079 109.934 272.22 111.019C271.153 111.193 270.046 111.376 269.018 111.055C265.93 110.093 265.86 105.854 264.537 102.911C262.036 97.3624 254.617 96.3786 248.552 96.8816C242.488 97.3846 233.044 98.0326 227.76 101.469C222.679 104.756 228.263 110.49 222.304 113.926Z" fill="#FBBEBE"/>
<path opacity="0.1" d="M222.304 113.926C220.364 115.041 218.101 115.443 215.895 115.827L201.661 118.297C198.891 118.776 195.976 119.324 193.841 121.155C189.474 124.891 190.418 131.767 191.742 137.36L194.388 148.581C196.382 157.015 198.419 165.55 202.508 173.189C209.65 186.523 222.749 196.125 237.155 200.752C242.302 202.407 247.74 203.482 253.113 202.891C263.637 201.735 272.639 194.233 278.188 185.213C283.737 176.193 286.379 165.73 288.8 155.418C291.125 145.547 293.335 135.534 293.185 125.39C293.141 122.231 292.823 118.932 291.138 116.255C287.447 110.376 279.079 109.934 272.22 111.019C271.153 111.193 270.046 111.376 269.018 111.055C265.93 110.093 265.86 105.854 264.537 102.911C262.036 97.3624 254.617 96.3786 248.552 96.8816C242.488 97.3846 233.044 98.0326 227.76 101.469C222.679 104.756 228.263 110.49 222.304 113.926Z" fill="black"/>
<path d="M210.523 126.568C212.675 131.084 214.289 135.874 216.892 140.148C218.96 143.545 221.611 146.539 224.249 149.517C231.081 157.245 238.001 165.034 246.459 170.918C249.96 152.929 258.419 136.277 270.881 122.84C274.524 118.928 279.085 115.073 284.431 115.219C287.748 115.312 290.809 116.957 293.57 118.788C296.658 120.83 299.578 123.198 301.796 126.14C305.303 130.824 306.815 136.757 307.089 142.602C307.362 148.446 306.454 154.277 305.554 160.055L300.921 189.919C300.652 191.648 300.277 193.558 298.866 194.595C298.064 195.103 297.16 195.428 296.219 195.548C279.383 198.825 262.033 196.699 244.878 196.531C225.911 196.351 206.42 198.512 188.455 192.478C187.516 192.16 186.539 191.794 185.906 191.041C185.488 190.472 185.189 189.826 185.023 189.14C180.837 175.59 184.196 161.03 186.678 147.072C188.644 136.009 190.044 124.852 190.873 113.647C190.948 112.637 202.045 114.869 203.284 115.583C206.658 117.578 208.899 123.162 210.523 126.568Z" fill="#D64545"/>
<g opacity="0.2">
<path opacity="0.2" d="M73.6034 236.766C73.6002 236.965 73.5856 237.163 73.5598 237.361C71.878 236.696 70.2283 235.982 68.6109 235.217C67.7469 235.104 66.9433 234.712 66.3216 234.102C65.8495 233.863 65.3779 233.617 64.9102 233.37C65.016 233.148 65.1352 232.933 65.2673 232.726C66.1757 231.288 67.5566 230.388 69.0782 230.436C70.5998 230.485 71.9189 231.468 72.7363 232.955C73.3611 234.125 73.6618 235.44 73.6073 236.766H73.6034Z" fill="#3F3D56"/>
<path opacity="0.2" d="M73.8418 229.215C73.8117 230.538 73.4296 231.829 72.7348 232.955C71.8263 234.389 70.4454 235.288 68.9238 235.24L68.6107 235.217C67.7467 235.104 66.9431 234.712 66.3213 234.102C65.8997 233.701 65.5439 233.237 65.267 232.725C64.6583 231.551 64.3606 230.241 64.4023 228.919C64.444 227.597 64.8237 226.308 65.5052 225.174C66.4137 223.737 67.7946 222.836 69.3162 222.885C70.8378 222.933 72.1569 223.917 72.9743 225.403C73.5979 226.574 73.8974 227.889 73.8418 229.215Z" fill="#3F3D56"/>
<path opacity="0.2" d="M74.0785 221.676C74.1863 218.265 72.1618 215.433 69.5566 215.351C66.9515 215.268 64.7522 217.967 64.6444 221.378C64.5366 224.789 66.5611 227.621 69.1662 227.704C71.7714 227.786 73.9707 225.087 74.0785 221.676Z" fill="#3F3D56"/>
<path opacity="0.2" d="M74.3187 214.125C74.4265 210.714 72.402 207.882 69.7968 207.799C67.1917 207.717 64.9924 210.415 64.8846 213.827C64.7768 217.238 66.8013 220.07 69.4065 220.152C72.0116 220.235 74.2109 217.536 74.3187 214.125Z" fill="#3F3D56"/>
<path opacity="0.2" d="M74.555 206.573C74.6628 203.162 72.6383 200.33 70.0332 200.248C67.428 200.165 65.2288 202.864 65.121 206.275C65.0132 209.686 67.0377 212.518 69.6428 212.601C72.248 212.683 74.4472 209.984 74.555 206.573Z" fill="#3F3D56"/>
<path opacity="0.2" d="M53.8113 154.178C53.1901 153.337 52.6299 152.453 52.1351 151.532L64.6001 149.887L51.1648 149.569C49.9674 146.729 49.3619 143.674 49.3855 140.592C49.409 137.51 50.061 134.465 51.3016 131.644L68.9976 141.541L52.7879 128.821C54.4226 126.175 56.5854 123.895 59.1412 122.123C61.6969 120.351 64.5906 119.125 67.6416 118.521C70.6925 117.918 73.8351 117.95 76.873 118.616C79.9109 119.282 82.7788 120.567 85.2975 122.392C87.8163 124.216 89.9317 126.54 91.5117 129.219C93.0917 131.898 94.1022 134.874 94.4802 137.961C94.8582 141.048 94.5955 144.18 93.7086 147.16C92.8216 150.141 91.3294 152.907 89.3253 155.285C90.2904 156.594 91.1112 158.003 91.7732 159.489L75.4224 167.358L92.77 162.14C93.8629 165.743 94.0399 169.562 93.2851 173.251C92.5304 176.94 90.8676 180.383 88.4474 183.267C90.9668 186.685 92.4734 190.743 92.7949 194.976C93.1163 199.21 92.2396 203.449 90.265 207.207C88.2904 210.966 85.2977 214.093 81.6292 216.231C77.9607 218.369 73.7645 219.431 69.5208 219.296C65.277 219.16 61.1571 217.833 57.6322 215.466C54.1073 213.099 51.3198 209.788 49.5886 205.911C47.8574 202.034 47.2524 197.748 47.8428 193.543C48.4332 189.339 50.1952 185.385 52.9272 182.135C49.9182 178.051 48.3694 173.074 48.5298 168.004C48.6901 162.933 50.5502 158.064 53.8113 154.178Z" fill="#FF0E0E"/>
<path opacity="0.1" d="M93.7294 169.426C93.5739 174.5 91.7087 179.373 88.4364 183.254C90.9592 186.67 92.4693 190.728 92.7937 194.962C93.1181 199.197 92.2439 203.437 90.271 207.198C88.298 210.959 85.3062 214.088 81.6378 216.228C77.9694 218.367 73.7727 219.431 69.528 219.297C65.2833 219.163 61.162 217.837 57.6358 215.47C54.1097 213.103 51.3211 209.792 49.5892 205.914C47.8574 202.036 47.2522 197.749 47.843 193.544C48.4338 189.338 50.1966 185.384 52.9298 182.133C50.0051 178.191 93.8086 166.89 93.7294 169.426Z" fill="black"/>
</g>
<path opacity="0.1" d="M30.0016 71.8123C35.2708 71.8123 39.5423 67.5408 39.5423 62.2716C39.5423 57.0025 35.2708 52.731 30.0016 52.731C24.7324 52.731 20.4609 57.0025 20.4609 62.2716C20.4609 67.5408 24.7324 71.8123 30.0016 71.8123Z" fill="#FF0E0E"/>
<path opacity="0.1" d="M69.7653 19.0813C75.0344 19.0813 79.3059 14.8098 79.3059 9.54067C79.3059 4.2715 75.0344 0 69.7653 0C64.4961 0 60.2246 4.2715 60.2246 9.54067C60.2246 14.8098 64.4961 19.0813 69.7653 19.0813Z" fill="#FF0E0E"/>
<path opacity="0.1" d="M66.5319 61.7552C75.3624 61.7552 82.5208 54.5967 82.5208 45.7662C82.5208 36.9358 75.3624 29.7773 66.5319 29.7773C57.7015 29.7773 50.543 36.9358 50.543 45.7662C50.543 54.5967 57.7015 61.7552 66.5319 61.7552Z" fill="#FF0E0E"/>
<path d="M239.506 29.7769C259.969 29.7769 263.816 50.0824 263.816 74.1588C263.816 98.2352 259.966 129.663 239.504 129.663C234.184 129.663 229.584 127.486 225.612 123.768C214.606 113.461 202.35 96.3195 202.35 78.5041C202.35 54.4281 219.044 29.7769 239.506 29.7769Z" fill="#FBBEBE"/>
<path d="M223.945 8.43762C214.06 9.69052 204.746 15.587 197.76 22.6855C193.852 26.6554 189.594 36.807 187.711 42.0468C184.793 50.2066 186.445 60.1339 187.128 68.7923C187.738 76.5375 187.662 81.2342 185.343 88.6532C184.275 92.067 185.33 102.058 183.702 105.238C183.298 106.029 183.619 109.58 182.211 113.687C180.327 119.178 176.642 125.651 176.662 126.642C176.725 129.836 184.055 116.684 183.702 121.174C183.637 121.997 177.11 141.132 177.582 142.37C178.638 145.153 183.073 131.052 187.13 129.168C188.305 128.623 186.663 130.113 187.712 132.188C188.945 134.763 190.039 137.402 190.988 140.094C192.578 144.683 195.792 150.436 197.76 154.874C200.672 161.428 201.428 159.871 201.653 167.038C201.878 174.206 187.543 172.695 187.711 179.837C187.816 184.327 187.825 189.135 185.342 192.879C194.512 189.205 203.81 185.456 211.657 179.457C219.504 173.458 219.872 168.236 220.886 158.409C221.707 150.443 217.026 144.978 214.706 137.312C208.973 118.346 207.485 91.8196 211.658 72.4517C212.989 66.2804 215.781 47.7378 220.888 43.4482C221.44 42.9823 220.081 42.7841 220.888 42.6365C221.323 42.5572 219.861 42.6622 220.888 43.4482C225.672 47.1063 239.396 63.5869 249.704 71.863C256.351 77.199 267.124 83.3341 268.496 84.0531C269.089 84.3636 260.905 78.9932 262.382 79.8968C263.065 80.3145 269.829 85.5111 269.829 85.5111C269.829 85.5111 269.888 83.7992 274.423 86.9395C277.809 89.2842 265.987 88.2821 266.654 88.6527C273.927 92.6958 268.675 81.4672 270.515 79.0045C272.369 79.4039 267.733 77.6253 269.829 80.5157C271.171 82.3656 269.703 86.3307 270.515 88.6532C273.603 97.4396 264.418 99.3344 260.4 107.724C257.495 113.789 247.989 134.004 245.188 140.095C244.59 141.397 248.505 138.702 251.131 136.111C252.759 134.505 253.473 132.494 253.123 133.478C248.328 146.931 244.345 161.8 252.311 173.652C260.277 185.504 274.996 192.794 289.15 190.88C288.043 186.099 284.572 182.235 282.71 177.692C279.328 169.439 281.608 159.947 285.247 151.805C288.886 143.663 293.852 136.072 296.128 127.427C297.734 121.34 297.928 114.98 297.919 108.686C297.919 102.088 298.354 99.3784 297.919 92.6679C297.803 90.8824 306.875 91.7051 306.527 88.6536C306.374 87.3084 300.909 86.4553 297.919 84.054C296.308 82.7584 296.528 79.5406 296.477 79.005C296.395 78.1597 301.512 80.8954 301.406 79.8977C301.374 79.5972 299.346 78.6326 297.919 77.2957C297.002 76.4489 296.328 75.373 295.966 74.1789C295.018 65.9799 293.571 57.6482 290.928 49.6692C288.403 42.0612 284.727 34.7049 279.233 28.8694C273.384 22.6546 265.771 18.4425 258.295 14.3137C253.823 11.8523 249.253 9.36042 244.234 8.43849C240.264 7.71079 234.368 6.31375 230.319 6.24756C227.566 6.20706 225.885 6.48533 223.945 8.43762Z" fill="black"/>
<path d="M294.212 56.93L270.336 52.3104C269.651 52.1779 268.988 52.6257 268.856 53.3106L257.457 112.223C257.325 112.908 257.772 113.571 258.457 113.703L282.334 118.323C283.018 118.455 283.681 118.008 283.814 117.323L295.212 58.4101C295.345 57.7252 294.897 57.0625 294.212 56.93Z" fill="#262626"/>
<path d="M296.015 57.2797L272.139 52.6601C271.454 52.5276 270.791 52.9754 270.658 53.6603L259.26 112.573C259.127 113.258 259.575 113.92 260.26 114.053L284.136 118.673C284.821 118.805 285.484 118.357 285.616 117.672L297.015 58.7598C297.147 58.0749 296.7 57.4122 296.015 57.2797Z" fill="#646464"/>
<path d="M283.261 68.61C283.726 66.2058 283.299 64.1012 282.306 63.9091C281.313 63.7171 280.132 65.5103 279.666 67.9144C279.201 70.3185 279.629 72.4232 280.622 72.6152C281.614 72.8073 282.796 71.0141 283.261 68.61Z" fill="#EFEFEF"/>
<path d="M288.906 88.6558C287.742 86.596 286.498 84.4656 284.535 83.1469C283.407 82.4549 282.194 81.9109 280.927 81.5282C276.653 80.0327 272.308 78.5233 267.788 78.2864C267.051 78.2512 266.209 78.2864 265.728 78.8526C264.74 80.0127 266.306 81.5918 267.66 82.2929L278.431 87.8719L268.501 86.822C267.059 86.6678 265.004 87.0602 265.109 88.5069C265.18 89.4554 266.221 89.9714 267.121 90.271C273.494 92.4764 280.861 94.2057 284.349 99.9746C279.7 99.5334 274.95 99.0923 270.394 100.116C269.145 100.398 267.853 100.835 267.037 101.818C266.221 102.802 266.128 104.465 267.156 105.246C267.791 105.718 268.646 105.731 269.44 105.687C272.673 105.533 275.99 104.889 279.096 105.811C282.201 106.732 284.958 109.988 283.886 113.04C286.638 113.287 289.893 113.04 292.438 111.853C295.244 110.53 295.178 108.042 295.006 105.043C294.64 99.1676 291.725 93.6848 288.906 88.6558Z" fill="#FBBEBE"/>
<path opacity="0.1" d="M286.123 184.807C283.654 167.45 280.267 150.235 275.976 133.236C273.771 124.415 271.265 115.443 271.896 106.367C281.008 107.527 289.173 108.387 297.571 104.664C297.708 109.432 301.166 113.485 302.423 118.095C303.265 121.182 302.947 124.451 303.278 127.632C303.609 130.813 304.602 133.895 305.453 136.987C309.677 152.309 310.672 168.341 308.377 184.068C300.586 184.993 293.899 186.011 286.123 184.807Z" fill="black"/>
<path d="M284.8 184.807C282.331 167.45 278.944 150.235 274.654 133.236C272.448 124.415 269.943 115.443 270.574 106.367C279.686 107.527 287.851 108.387 296.249 104.664C296.385 109.432 299.844 113.485 301.1 118.095C301.943 121.182 301.625 124.451 301.956 127.632C302.287 130.813 303.28 133.895 304.13 136.987C308.354 152.309 309.35 168.341 307.055 184.068C299.263 184.993 292.577 186.011 284.8 184.807Z" fill="#D64545"/>
<path d="M157.302 270.72L161.62 163.596C161.689 161.893 162.418 160.284 163.654 159.11C164.889 157.936 166.533 157.289 168.237 157.306L338.722 158.938C339.625 158.948 340.517 159.144 341.341 159.514C342.165 159.884 342.904 160.421 343.51 161.09C344.117 161.759 344.579 162.547 344.867 163.403C345.155 164.259 345.263 165.166 345.184 166.066L336.177 268.691C336.035 270.305 335.301 271.809 334.116 272.914C332.931 274.018 331.379 274.645 329.759 274.672L163.969 277.539C163.077 277.554 162.191 277.387 161.365 277.047C160.54 276.708 159.792 276.203 159.169 275.565C158.545 274.927 158.058 274.168 157.738 273.335C157.417 272.502 157.27 271.612 157.306 270.72H157.302Z" fill="#414141"/>
<path d="M412.849 199.923L412.496 202.949L406.762 251.847C391.814 262.269 380.188 252.252 380.086 251.847L372.861 202.719L372.451 199.923H412.849Z" fill="#EDEDED"/>
<path opacity="0.1" d="M412.849 199.923L412.496 202.949C395.656 212.741 377.691 205.119 372.861 202.719L372.451 199.923H412.849Z" fill="black"/>
<path d="M371.607 197.268V201.678C371.607 201.678 393.882 214.628 413.951 201.678V197.268H371.607Z" fill="#414141"/>
<path d="M374.196 191.441C374.196 191.441 373.548 194.418 371.607 194.678V198.432H413.951V195.066C413.951 195.066 411.362 194.418 411.745 191.441L374.196 191.441Z" fill="#414141"/>
<path d="M392.651 197.267C403.199 197.267 411.75 194.803 411.75 191.763C411.75 188.723 403.199 186.258 392.651 186.258C382.104 186.258 373.553 188.723 373.553 191.763C373.553 194.803 382.104 197.267 392.651 197.267Z" fill="#FF0E0E"/>
<path d="M392.651 197.267C403.199 197.267 411.75 194.803 411.75 191.763C411.75 188.723 403.199 186.258 392.651 186.258C382.104 186.258 373.553 188.723 373.553 191.763C373.553 194.803 382.104 197.267 392.651 197.267Z" fill="#414141"/>
<path opacity="0.1" d="M409.418 191.441C409.418 193.646 402.175 195.455 393.235 195.455H392.758C386.755 195.411 381.566 194.572 378.921 193.321C377.726 192.755 377.049 192.117 377.049 191.442C377.049 190.321 378.901 189.308 381.901 188.579C385.627 187.764 389.435 187.378 393.249 187.428C402.175 187.427 409.418 189.222 409.418 191.441Z" fill="black"/>
<path opacity="0.1" d="M392.759 195.455C386.755 195.411 381.567 194.573 378.922 193.321L381.886 188.561L392.759 195.455Z" fill="black"/>
<path opacity="0.1" d="M375.842 191.75C375.613 191.701 375.308 191.781 375.264 192.011C375.258 192.128 375.289 192.243 375.352 192.342C375.857 193.142 376.592 193.77 377.46 194.146C377.607 194.229 377.77 194.282 377.939 194.3C378.027 194.311 378.116 194.295 378.195 194.254C378.274 194.213 378.338 194.149 378.38 194.071C378.404 194.004 378.414 193.933 378.409 193.862C378.403 193.792 378.383 193.723 378.349 193.661C378.214 193.422 378.027 193.217 377.802 193.06C377.214 192.597 376.61 191.878 375.842 191.75Z" fill="black"/>
<path d="M393.296 238.897C399.588 238.897 404.689 233.796 404.689 227.504C404.689 221.211 399.588 216.11 393.296 216.11C387.003 216.11 381.902 221.211 381.902 227.504C381.902 233.796 387.003 238.897 393.296 238.897Z" fill="#D64545"/>
<path d="M83.068 227.53H88.4093C91.3338 227.53 94.1386 228.691 96.2065 230.759C98.2745 232.827 99.4362 235.632 99.4362 238.557V254.944H72.041V238.557C72.041 235.632 73.2028 232.827 75.2707 230.759C77.3387 228.691 80.1435 227.53 83.068 227.53Z" fill="#3F3D56"/>
<path opacity="0.1" d="M83.068 227.53H88.4093C91.3338 227.53 94.1386 228.691 96.2065 230.759C98.2745 232.827 99.4362 235.632 99.4362 238.557V254.944H72.041V238.557C72.041 235.632 73.2028 232.827 75.2707 230.759C77.3387 228.691 80.1435 227.53 83.068 227.53Z" fill="black"/>
<path d="M84.6434 233.56C85.8542 233.56 86.8357 232.578 86.8357 231.367C86.8357 230.157 85.8542 229.175 84.6434 229.175C83.4327 229.175 82.4512 230.157 82.4512 231.367C82.4512 232.578 83.4327 233.56 84.6434 233.56Z" fill="#3F3D56"/>
<path d="M84.6434 230.82C85.8542 230.82 86.8357 229.839 86.8357 228.628C86.8357 227.417 85.8542 226.436 84.6434 226.436C83.4327 226.436 82.4512 227.417 82.4512 228.628C82.4512 229.839 83.4327 230.82 84.6434 230.82Z" fill="#3F3D56"/>
<path d="M84.6434 228.077C85.8542 228.077 86.8357 227.096 86.8357 225.885C86.8357 224.674 85.8542 223.693 84.6434 223.693C83.4327 223.693 82.4512 224.674 82.4512 225.885C82.4512 227.096 83.4327 228.077 84.6434 228.077Z" fill="#11101C"/>
<path d="M84.6434 225.338C85.8542 225.338 86.8357 224.356 86.8357 223.146C86.8357 221.935 85.8542 220.953 84.6434 220.953C83.4327 220.953 82.4512 221.935 82.4512 223.146C82.4512 224.356 83.4327 225.338 84.6434 225.338Z" fill="#11101C"/>
<path d="M84.6434 222.599C85.8542 222.599 86.8357 221.617 86.8357 220.406C86.8357 219.196 85.8542 218.214 84.6434 218.214C83.4327 218.214 82.4512 219.196 82.4512 220.406C82.4512 221.617 83.4327 222.599 84.6434 222.599Z" fill="#11101C"/>
<path d="M84.6434 219.86C85.8542 219.86 86.8357 218.878 86.8357 217.667C86.8357 216.457 85.8542 215.475 84.6434 215.475C83.4327 215.475 82.4512 216.457 82.4512 217.667C82.4512 218.878 83.4327 219.86 84.6434 219.86Z" fill="#11101C"/>
<path d="M84.6434 217.121C85.8542 217.121 86.8357 216.139 86.8357 214.929C86.8357 213.718 85.8542 212.736 84.6434 212.736C83.4327 212.736 82.4512 213.718 82.4512 214.929C82.4512 216.139 83.4327 217.121 84.6434 217.121Z" fill="#11101C"/>
<path d="M87.9325 218.215C89.1432 218.215 90.1247 217.233 90.1247 216.022C90.1247 214.812 89.1432 213.83 87.9325 213.83C86.7217 213.83 85.7402 214.812 85.7402 216.022C85.7402 217.233 86.7217 218.215 87.9325 218.215Z" fill="#11101C"/>
<path d="M90.1258 217.121C91.3366 217.121 92.3181 216.139 92.3181 214.929C92.3181 213.718 91.3366 212.736 90.1258 212.736C88.9151 212.736 87.9336 213.718 87.9336 214.929C87.9336 216.139 88.9151 217.121 90.1258 217.121Z" fill="#11101C"/>
<path d="M92.3172 216.022C93.528 216.022 94.5095 215.041 94.5095 213.83C94.5095 212.619 93.528 211.638 92.3172 211.638C91.1065 211.638 90.125 212.619 90.125 213.83C90.125 215.041 91.1065 216.022 92.3172 216.022Z" fill="#11101C"/>
<path d="M84.6434 214.381C85.8542 214.381 86.8357 213.4 86.8357 212.189C86.8357 210.978 85.8542 209.997 84.6434 209.997C83.4327 209.997 82.4512 210.978 82.4512 212.189C82.4512 213.4 83.4327 214.381 84.6434 214.381Z" fill="#11101C"/>
<path d="M84.6434 211.642C85.8542 211.642 86.8357 210.661 86.8357 209.45C86.8357 208.239 85.8542 207.258 84.6434 207.258C83.4327 207.258 82.4512 208.239 82.4512 209.45C82.4512 210.661 83.4327 211.642 84.6434 211.642Z" fill="#3F3D56"/>
<path d="M84.6434 208.899C85.8542 208.899 86.8357 207.918 86.8357 206.707C86.8357 205.496 85.8542 204.515 84.6434 204.515C83.4327 204.515 82.4512 205.496 82.4512 206.707C82.4512 207.918 83.4327 208.899 84.6434 208.899Z" fill="#11101C"/>
<path d="M84.6434 206.16C85.8542 206.16 86.8357 205.178 86.8357 203.968C86.8357 202.757 85.8542 201.775 84.6434 201.775C83.4327 201.775 82.4512 202.757 82.4512 203.968C82.4512 205.178 83.4327 206.16 84.6434 206.16Z" fill="#3F3D56"/>
<path d="M93.7285 196.901C93.1859 196.981 92.6398 197.038 92.0919 197.076C92.6022 196.629 93.0757 196.143 93.5077 195.62C93.2024 194.7 92.7561 193.834 92.1847 193.051C91.6414 193.356 91.0407 193.545 90.4205 193.607C89.8779 193.686 89.3318 193.743 88.784 193.783C89.5227 193.087 90.2222 192.351 90.8791 191.578C89.2481 190.099 87.1454 189.246 84.945 189.172C82.7446 189.098 80.5892 189.806 78.862 191.171C77.1348 192.536 75.9478 194.47 75.5121 196.628C75.0764 198.786 75.4203 201.029 76.4826 202.957C77.5448 204.886 79.2566 206.375 81.3135 207.16C83.3705 207.945 85.6391 207.975 87.7161 207.245C89.7931 206.515 91.5438 205.071 92.6568 203.172C93.7698 201.272 94.173 199.039 93.7947 196.871L93.7285 196.901Z" fill="#DA4453"/>
<path d="M101.055 207.792C100.496 208.135 99.8651 208.345 99.2115 208.405C98.6689 208.484 98.1228 208.546 97.575 208.581C98.1562 208.06 98.6987 207.497 99.198 206.896C97.8763 206.552 96.4736 206.712 95.264 207.347C94.0545 207.981 93.1251 209.044 92.6576 210.328C92.1901 211.611 92.218 213.023 92.736 214.287C93.254 215.551 94.2247 216.576 95.4585 217.162C96.6922 217.748 98.1002 217.853 99.4072 217.456C100.714 217.06 101.826 216.19 102.526 215.017C103.226 213.844 103.463 212.452 103.191 211.113C102.919 209.775 102.157 208.586 101.055 207.779L101.055 207.792Z" fill="#DA4453"/>
<path d="M81.3563 218.215C82.5671 218.215 83.5486 217.233 83.5486 216.022C83.5486 214.812 82.5671 213.83 81.3563 213.83C80.1456 213.83 79.1641 214.812 79.1641 216.022C79.1641 217.233 80.1456 218.215 81.3563 218.215Z" fill="#11101C"/>
<path d="M79.1649 217.121C80.3756 217.121 81.3571 216.139 81.3571 214.929C81.3571 213.718 80.3756 212.736 79.1649 212.736C77.9542 212.736 76.9727 213.718 76.9727 214.929C76.9727 216.139 77.9542 217.121 79.1649 217.121Z" fill="#11101C"/>
<path d="M76.9735 216.022C78.1842 216.022 79.1657 215.041 79.1657 213.83C79.1657 212.619 78.1842 211.638 76.9735 211.638C75.7628 211.638 74.7812 212.619 74.7812 213.83C74.7812 215.041 75.7628 216.022 76.9735 216.022Z" fill="#11101C"/>
<path d="M68.2349 207.792C68.7941 208.136 69.4253 208.346 70.0792 208.405C70.6218 208.484 71.1679 208.546 71.7157 208.581C71.1334 208.061 70.5908 207.498 70.0927 206.896C71.4144 206.552 72.8171 206.712 74.0267 207.347C75.2362 207.981 76.1656 209.044 76.6331 210.328C77.1006 211.611 77.0727 213.023 76.5547 214.287C76.0367 215.551 75.066 216.576 73.8323 217.162C72.5985 217.748 71.1905 217.853 69.8835 217.456C68.5765 217.06 67.4645 216.19 66.7648 215.017C66.0651 213.844 65.8281 212.452 66.1002 211.113C66.3722 209.775 67.1337 208.586 68.2358 207.779L68.2349 207.792Z" fill="#DA4453"/>
<path d="M83.068 229.175H88.4093C91.3337 229.175 94.1384 230.337 96.2064 232.405C98.2743 234.472 99.4361 237.277 99.4362 240.202V254.7C99.4362 255.196 99.2392 255.671 98.8885 256.022C98.5378 256.373 98.0622 256.57 97.5663 256.57H73.911C73.4153 256.569 72.94 256.372 72.5895 256.021C72.2389 255.671 72.0417 255.196 72.041 254.7V240.202C72.041 238.754 72.3262 237.32 72.8804 235.982C73.4346 234.644 74.2468 233.428 75.2707 232.404C76.2947 231.38 77.5103 230.568 78.8482 230.014C80.186 229.46 81.6199 229.175 83.068 229.175V229.175Z" fill="#11101C"/>
<g opacity="0.1">
<path opacity="0.1" d="M93.8954 197.501C93.6734 197.738 93.4377 197.962 93.1895 198.172C93.4404 198.163 93.6907 198.141 93.9394 198.106C93.9402 197.903 93.9255 197.701 93.8954 197.501Z" fill="black"/>
<path opacity="0.1" d="M89.9004 194.881C90.4517 194.846 90.9943 194.788 91.5413 194.707C92.0319 194.645 92.5114 194.514 92.9658 194.319C92.7437 193.877 92.4872 193.454 92.1985 193.053C91.9241 193.22 91.6269 193.346 91.3162 193.428C90.8837 193.949 90.4102 194.434 89.9004 194.879V194.881Z" fill="black"/>
<path opacity="0.1" d="M76.4257 199.588C76.4225 197.915 76.8703 196.273 77.722 194.834C78.5736 193.395 79.7976 192.212 81.265 191.41C82.7324 190.609 84.3889 190.217 86.0601 190.278C87.7312 190.338 89.3551 190.848 90.7607 191.754L90.9018 191.604C89.9861 190.778 88.9154 190.143 87.752 189.734C86.5885 189.325 85.3554 189.152 84.1244 189.224C82.8933 189.296 81.6889 189.612 80.581 190.154C79.4732 190.695 78.484 191.451 77.6709 192.379C76.8578 193.306 76.2371 194.385 75.8448 195.554C75.4525 196.723 75.2965 197.959 75.3857 199.189C75.475 200.418 75.8078 201.618 76.3647 202.719C76.9217 203.819 77.6918 204.797 78.6302 205.597C77.2045 203.92 76.423 201.789 76.4257 199.588Z" fill="black"/>
</g>
<g opacity="0.1">
<path opacity="0.1" d="M97.5762 209.675C98.1231 209.639 98.6701 209.582 99.2127 209.5C99.8666 209.439 100.498 209.228 101.057 208.883C101.676 209.339 102.192 209.92 102.572 210.589C102.952 211.258 103.187 211.999 103.262 212.764C103.283 212.573 103.294 212.38 103.293 212.187C103.297 211.33 103.1 210.484 102.716 209.718C102.333 208.952 101.775 208.287 101.088 207.776C100.528 208.119 99.8972 208.329 99.2437 208.389L98.8025 208.447C98.4261 208.886 98.0161 209.296 97.5762 209.673V209.675Z" fill="black"/>
<path opacity="0.1" d="M97.7955 207.805C97.9785 207.807 98.1611 207.82 98.3425 207.844C98.629 207.54 98.9117 207.214 99.1982 206.896C98.3874 206.679 97.5375 206.652 96.7145 206.817C95.8915 206.981 95.1174 207.333 94.4521 207.845C93.7868 208.357 93.2483 209.015 92.8781 209.768C92.508 210.521 92.3162 211.35 92.3175 212.189C92.3131 212.372 92.3219 212.554 92.3441 212.736C92.4797 211.384 93.1127 210.131 94.1201 209.22C95.1275 208.309 96.4376 207.804 97.796 207.805H97.7955Z" fill="black"/>
</g>
<g opacity="0.1">
<path opacity="0.1" d="M71.7148 209.675C71.1678 209.639 70.6208 209.582 70.0782 209.5C69.4242 209.44 68.7931 209.228 68.2343 208.883C67.6151 209.339 67.0987 209.92 66.7187 210.589C66.3388 211.258 66.1038 211.999 66.029 212.764C66.0076 212.573 65.9973 212.38 65.9981 212.187C65.994 211.33 66.1914 210.484 66.5745 209.718C66.9576 208.952 67.5156 208.287 68.2034 207.776C68.7625 208.12 69.3936 208.33 70.0473 208.389L70.4884 208.447C70.8625 208.889 71.2727 209.299 71.7148 209.673V209.675Z" fill="black"/>
<path opacity="0.1" d="M71.4945 207.805C71.3101 207.807 71.126 207.82 70.9432 207.844C70.661 207.54 70.377 207.214 70.0918 206.896C70.9027 206.679 71.7525 206.652 72.5756 206.817C73.3986 206.981 74.1727 207.333 74.8379 207.845C75.5032 208.357 76.0417 209.015 76.4119 209.768C76.782 210.521 76.9739 211.349 76.9725 212.189C76.977 212.372 76.9681 212.554 76.9459 212.736C76.8103 211.384 76.1774 210.131 75.1701 209.22C74.1627 208.309 72.8528 207.805 71.4945 207.805Z" fill="black"/>
</g>
<path d="M193.94 217.107V212.687H200.094V211.616H193.94V207.383H200.842V206.295H192.682V218.195H201.097V217.107H193.94ZM208.355 209.185C206.808 209.185 205.601 209.814 204.955 210.902V209.253H203.799V218.195H205.006V213.503C205.006 211.463 206.213 210.273 208.134 210.273C209.834 210.273 210.82 211.242 210.82 213.129V218.195H212.027V213.01C212.027 210.443 210.531 209.185 208.355 209.185ZM219.588 216.784C219.248 217.09 218.755 217.243 218.262 217.243C217.259 217.243 216.715 216.665 216.715 215.611V210.273H219.435V209.253H216.715V207.298H215.508V209.253H213.91V210.273H215.508V215.679C215.508 217.328 216.443 218.28 218.126 218.28C218.823 218.28 219.537 218.076 220.013 217.651L219.588 216.784ZM223.366 211.004V209.253H222.21V218.195H223.417V213.639C223.417 211.531 224.556 210.341 226.426 210.341C226.511 210.341 226.613 210.358 226.715 210.358V209.185C225.066 209.185 223.927 209.814 223.366 211.004ZM236.621 213.724C236.621 211.038 234.802 209.185 232.286 209.185C229.77 209.185 227.917 211.072 227.917 213.724C227.917 216.376 229.821 218.28 232.609 218.28C234.02 218.28 235.261 217.77 236.06 216.818L235.38 216.036C234.7 216.818 233.731 217.209 232.643 217.209C230.688 217.209 229.26 215.968 229.124 214.098H236.604C236.604 213.962 236.621 213.826 236.621 213.724ZM232.286 210.222C234.037 210.222 235.312 211.446 235.465 213.197H229.124C229.277 211.446 230.552 210.222 232.286 210.222ZM243.685 209.185C242.206 209.185 240.965 209.831 240.234 211.021V209.253H239.078V221.493H240.285V216.512C241.033 217.668 242.257 218.28 243.685 218.28C246.235 218.28 248.139 216.444 248.139 213.724C248.139 211.021 246.235 209.185 243.685 209.185ZM243.6 217.209C241.696 217.209 240.268 215.815 240.268 213.724C240.268 211.65 241.696 210.239 243.6 210.239C245.487 210.239 246.932 211.65 246.932 213.724C246.932 215.815 245.487 217.209 243.6 217.209ZM251.755 211.004V209.253H250.599V218.195H251.806V213.639C251.806 211.531 252.945 210.341 254.815 210.341C254.9 210.341 255.002 210.358 255.104 210.358V209.185C253.455 209.185 252.316 209.814 251.755 211.004ZM265.009 213.724C265.009 211.038 263.19 209.185 260.674 209.185C258.158 209.185 256.305 211.072 256.305 213.724C256.305 216.376 258.209 218.28 260.997 218.28C262.408 218.28 263.649 217.77 264.448 216.818L263.768 216.036C263.088 216.818 262.119 217.209 261.031 217.209C259.076 217.209 257.648 215.968 257.512 214.098H264.992C264.992 213.962 265.009 213.826 265.009 213.724ZM260.674 210.222C262.425 210.222 263.7 211.446 263.853 213.197H257.512C257.665 211.446 258.94 210.222 260.674 210.222ZM272.022 209.185C270.475 209.185 269.268 209.814 268.622 210.902V209.253H267.466V218.195H268.673V213.503C268.673 211.463 269.88 210.273 271.801 210.273C273.501 210.273 274.487 211.242 274.487 213.129V218.195H275.694V213.01C275.694 210.443 274.198 209.185 272.022 209.185ZM286.807 213.724C286.807 211.038 284.988 209.185 282.472 209.185C279.956 209.185 278.103 211.072 278.103 213.724C278.103 216.376 280.007 218.28 282.795 218.28C284.206 218.28 285.447 217.77 286.246 216.818L285.566 216.036C284.886 216.818 283.917 217.209 282.829 217.209C280.874 217.209 279.446 215.968 279.31 214.098H286.79C286.79 213.962 286.807 213.826 286.807 213.724ZM282.472 210.222C284.223 210.222 285.498 211.446 285.651 213.197H279.31C279.463 211.446 280.738 210.222 282.472 210.222ZM296.115 209.253V213.945C296.115 215.985 294.942 217.192 293.072 217.192C291.372 217.192 290.386 216.223 290.386 214.319V209.253H289.179V214.438C289.179 217.005 290.675 218.28 292.953 218.28C294.381 218.28 295.537 217.651 296.166 216.563V218.195H297.322V209.253H296.115ZM301.859 211.004V209.253H300.703V218.195H301.91V213.639C301.91 211.531 303.049 210.341 304.919 210.341C305.004 210.341 305.106 210.358 305.208 210.358V209.185C303.559 209.185 302.42 209.814 301.859 211.004Z" fill="white"/>
</svg>
