<svg width="700" height="659" viewBox="0 0 700 659" fill="none" xmlns="http://www.w3.org/2000/svg">
<g clip-path="url(#clip0)">
<path d="M252.11 431.8C254.03 430.6 255.965 429.335 257.859 428.057L259.145 429.963C257.229 431.256 255.274 432.529 253.332 433.748L252.11 431.8Z" fill="#E6E6E6"/>
<path d="M90.166 90.7414C92.728 89.0124 95.35 87.3264 97.96 85.7294L99.16 87.6914C95.251 90.0824 91.339 92.6624 87.581 95.3264L86.252 93.4494C87.542 92.5347 88.8467 91.6321 90.166 90.7414ZM75.09 101.941L76.544 103.722C72.97 106.638 69.46 109.71 66.107 112.85L64.535 111.172C67.926 108 71.476 104.89 75.09 101.94V101.941ZM110.161 78.8194C114.296 76.6614 118.55 74.6194 122.807 72.7594L123.728 74.8664C119.521 76.7084 115.314 78.7244 111.228 80.8594L110.161 78.8194ZM54.639 121.107L56.323 122.674C53.188 126.044 50.131 129.568 47.237 133.147L45.449 131.702C48.377 128.081 51.469 124.516 54.64 121.102L54.639 121.107ZM135.839 67.5834C140.221 66.0154 144.716 64.5834 149.199 63.3184L149.823 65.5304C145.389 66.7804 140.945 68.1994 136.612 69.7484L135.839 67.5834ZM37.013 142.9L38.897 144.218C36.258 147.988 33.717 151.896 31.347 155.831L29.378 154.644C31.775 150.669 34.343 146.718 37.013 142.9ZM162.845 59.9744C167.415 59.0234 172.07 58.2204 176.682 57.5884L176.994 59.8674C172.434 60.4924 167.831 61.2854 163.313 62.2264L162.845 59.9744ZM22.565 166.893L24.611 167.942C22.511 172.042 20.531 176.26 18.722 180.486L16.607 179.581C18.439 175.306 20.444 171.038 22.565 166.893ZM190.646 56.1634C195.3 55.8484 200.019 55.6914 204.672 55.6964V57.9964C200.072 57.9964 195.405 58.1464 190.803 58.4574L190.646 56.1634ZM11.532 192.647L13.702 193.406C12.182 197.752 10.793 202.206 9.57402 206.641L7.35701 206.033C8.59001 201.545 9.99401 197.041 11.532 192.647ZM218.696 56.1904C223.339 56.5134 228.034 57.0004 232.65 57.6384L232.334 59.9154C227.77 59.2844 223.128 58.8024 218.534 58.4834L218.696 56.1904ZM4.10402 219.675L6.35701 220.132C5.44301 224.645 4.67102 229.247 4.06502 233.812L1.78502 233.512C2.39802 228.896 3.17801 224.242 4.10301 219.679L4.10402 219.675ZM246.471 60.0344C251.031 60.9864 255.615 62.1074 260.095 63.3654L259.473 65.5784C255.044 64.3344 250.511 63.2264 246.002 62.2854L246.471 60.0344ZM0.417022 247.472L2.71101 247.619C2.41801 252.21 2.28001 256.876 2.30101 261.486L0.00102169 261.496C-0.0209783 256.834 0.119015 252.115 0.416015 247.472H0.417022ZM273.457 67.6154C277.844 69.1774 282.231 70.9154 286.495 72.7664L285.578 74.8754C281.361 73.0404 277.024 71.3264 272.685 69.7804L273.457 67.6154ZM0.549011 275.521L2.84102 275.353C3.17802 279.953 3.68002 284.592 4.33202 289.153L2.05601 289.478C1.39701 284.866 0.889011 280.171 0.549011 275.521ZM299.149 78.7944C303.278 80.9384 307.385 83.2544 311.355 85.6754L310.155 87.6374C306.23 85.2444 302.17 82.9544 298.087 80.8374L299.149 78.7944ZM4.52101 303.3L6.76901 302.817C7.73601 307.325 8.86901 311.857 10.146 316.288L7.93602 316.923C6.64702 312.444 5.49801 307.859 4.52101 303.3ZM323.051 93.3754C326.851 96.0684 330.604 98.9284 334.207 101.875L332.751 103.655C329.189 100.741 325.479 97.9144 321.721 95.2554L323.051 93.3754ZM12.28 330.262L14.441 329.475C16.017 333.802 17.764 338.128 19.632 342.332L17.532 343.265C15.642 339.013 13.875 334.639 12.28 330.262ZM344.749 111.127C348.14 114.316 351.464 117.665 354.628 121.081L352.941 122.644C349.813 119.266 346.526 115.955 343.174 112.803L344.749 111.127ZM23.663 355.877L25.695 354.802C27.845 358.865 30.167 362.911 32.595 366.829L30.641 368.04C28.185 364.078 25.838 359.986 23.663 355.877ZM363.804 131.689C366.722 135.307 369.558 139.078 372.233 142.897L370.349 144.216C367.704 140.439 364.9 136.716 362.014 133.133L363.804 131.689ZM40.304 378.363C42.99 382.109 45.835 385.806 48.761 389.352L46.988 390.815C44.028 387.229 41.151 383.491 38.435 379.703L40.304 378.363ZM57.947 399.739C61.12 403.085 64.447 406.358 67.827 409.469L66.271 411.161C62.849 408.016 59.487 404.705 56.279 401.32L57.947 399.739ZM78.353 418.494C81.946 421.365 85.684 424.147 89.464 426.763L88.156 428.654C84.333 426.008 80.556 423.194 76.919 420.29L78.353 418.494ZM101.122 434.248C105.081 436.601 109.169 438.848 113.27 440.916L112.234 442.969C108.085 440.869 103.951 438.605 99.947 436.225L101.122 434.248ZM125.851 446.736C130.098 448.527 134.456 450.191 138.801 451.684L138.055 453.858C133.655 452.349 129.255 450.666 124.955 448.858L125.851 446.736ZM152.063 455.736C156.508 456.936 161.052 457.988 165.57 458.878L165.126 461.134C160.557 460.234 155.961 459.165 151.465 457.957L152.063 455.736ZM179.263 461.092C183.837 461.672 188.485 462.102 193.077 462.369L192.944 464.669C188.3 464.399 183.599 463.969 178.974 463.378L179.263 461.092ZM206.946 462.702C211.559 462.653 216.223 462.445 220.808 462.082L220.99 464.374C216.352 464.74 211.635 464.951 206.969 465L206.946 462.702ZM234.598 460.512C239.159 459.834 243.751 458.987 248.248 457.997L248.742 460.242C244.194 461.242 239.548 462.1 234.935 462.787L234.598 460.512ZM261.698 454.545C266.115 453.245 270.543 451.777 274.859 450.177L275.659 452.333C271.293 453.951 266.814 455.433 262.347 456.751L261.698 454.545ZM287.688 444.911C291.88 443.019 296.064 440.955 300.124 438.777L301.204 440.8C297.098 443 292.866 445.09 288.628 447L287.688 444.911Z" fill="#E6E6E6"/>
<path d="M318.089 156.126L320.059 154.94C321.259 156.929 322.426 158.948 323.536 160.94L321.528 162.059C320.43 160.089 319.273 158.092 318.089 156.126Z" fill="#E6E6E6"/>
<path d="M417.609 659C573.353 659 699.609 651.389 699.609 642C699.609 632.611 573.353 625 417.609 625C261.865 625 135.609 632.611 135.609 642C135.609 651.389 261.865 659 417.609 659Z" fill="#5F8137"/>
<path d="M468.156 154.8C468.156 154.8 476.056 257.518 464.995 260.679C453.934 263.84 414.426 287.544 351.215 281.223C351.215 281.223 289.584 314.409 299.066 282.803C308.548 251.197 351.215 259.103 351.215 259.103C351.215 259.103 427.068 243.303 430.229 232.238C433.39 221.173 420.747 175.348 425.488 173.768C430.229 172.188 468.156 154.8 468.156 154.8Z" fill="#F3C78F"/>
<path d="M308.161 257.242L329.38 252.328C330.404 252.091 331.478 252.21 332.426 252.664C333.373 253.118 334.138 253.882 334.595 254.828L356.33 299.9C356.567 300.392 356.694 300.929 356.701 301.475C356.708 302.021 356.596 302.562 356.373 303.06C356.149 303.557 355.819 304 355.406 304.357C354.993 304.714 354.507 304.976 353.982 305.125L332.418 311.252C331.263 311.58 330.029 311.477 328.945 310.962C327.86 310.447 327.001 309.555 326.526 308.452L312.657 276.238L312.234 276.472L309.594 270.372L310.033 270.148L306.162 261.156C305.996 260.771 305.917 260.354 305.931 259.935C305.945 259.515 306.051 259.104 306.242 258.731C306.433 258.358 306.705 258.031 307.036 257.774C307.368 257.518 307.752 257.337 308.162 257.246L308.161 257.242Z" fill="#3F3D56"/>
<path d="M326.824 254L329.301 253.426C330.012 253.262 330.759 253.345 331.416 253.663C332.073 253.98 332.602 254.514 332.915 255.173L354.13 299.958C354.252 300.216 354.317 300.497 354.321 300.783C354.324 301.068 354.266 301.351 354.15 301.611C354.035 301.872 353.864 302.105 353.65 302.294C353.436 302.482 353.184 302.623 352.911 302.705L331.498 309.166C330.894 309.348 330.244 309.302 329.672 309.035C329.101 308.769 328.647 308.301 328.398 307.721L308.324 261C308.194 260.698 308.132 260.371 308.142 260.042C308.153 259.713 308.235 259.39 308.384 259.096C308.533 258.803 308.744 258.545 309.003 258.342C309.262 258.139 309.562 257.996 309.883 257.921L312.233 257.377C312.461 257.325 312.699 257.348 312.912 257.445C313.124 257.541 313.299 257.705 313.409 257.911C313.506 258.093 313.661 258.238 313.848 258.323C314.036 258.408 314.246 258.429 314.447 258.382L325.604 255.8C325.997 255.709 326.341 255.473 326.567 255.139C326.793 254.806 326.885 254.399 326.824 254Z" fill="#E6E9EE"/>
<path d="M373.504 333.888C373.504 333.888 379.665 482.288 389.146 504.409C397.046 522.837 401.652 582.931 402.972 602.492C403.237 606.415 403.372 608.707 403.372 608.707C403.372 608.707 428.656 608.707 430.237 602.386C431.818 596.065 436.558 526.533 430.237 504.409C423.916 482.285 438.299 329.147 438.299 329.147L373.504 333.888Z" fill="black"/>
<path d="M409.685 600.806C409.685 600.806 393.885 605.546 390.722 611.867C387.559 618.188 335.412 629.25 351.215 637.151C367.018 645.052 414.426 630.831 414.426 630.831C414.426 630.831 439.71 629.25 438.126 619.768C436.542 610.286 430.791 598.604 430.791 598.604L409.685 600.806Z" fill="#2F2E41"/>
<path d="M453.933 617.82C453.933 617.82 438.133 622.561 434.97 628.882C431.807 635.203 379.66 646.265 395.463 654.166C411.266 662.067 458.674 647.845 458.674 647.845C458.674 647.845 483.958 646.265 482.374 636.783C480.79 627.301 475.039 615.618 475.039 615.618L453.933 617.82Z" fill="#2F2E41"/>
<path d="M387.561 330.209L409.685 368.136L446.604 500C446.604 500 442.867 620.981 447.604 620.981C452.341 620.981 477.629 628.881 479.21 620.981C480.545 614.307 498.244 550.37 489.422 507.814C483.683 480.918 479.992 453.625 478.379 426.171L474.469 352.333C474.469 352.333 490.269 323.888 472.889 319.147C455.509 314.406 387.561 330.209 387.561 330.209Z" fill="black"/>
<path d="M408.106 10.9922C415.607 10.9922 422.94 13.2166 429.177 17.384C435.414 21.5515 440.275 27.4749 443.146 34.4052C446.017 41.3354 446.768 48.9613 445.304 56.3184C443.841 63.6755 440.229 70.4334 434.924 75.7376C429.62 81.0418 422.862 84.654 415.505 86.1174C408.148 87.5809 400.522 86.8298 393.592 83.9592C386.662 81.0886 380.738 76.2274 376.571 69.9903C372.403 63.7532 370.179 56.4204 370.179 48.9192C370.179 38.8603 374.175 29.2134 381.288 22.1007C388.4 14.9881 398.047 10.9922 408.106 10.9922V10.9922Z" fill="#F3C78F"/>
<path d="M403.364 74.1995C403.364 74.1995 409.685 124.769 408.105 127.93C406.525 131.091 446.032 93.1635 446.032 93.1635C446.032 93.1635 431.809 71.0395 434.97 59.9775L403.364 74.1995Z" fill="#F3C78F"/>
<path d="M491.86 124.773C491.86 124.773 447.612 93.1667 446.032 86.8457L412.846 115.291L407.207 108.579C407.207 108.579 381.24 134.255 381.24 145.317C381.24 156.379 379.66 189.565 384.401 199.047C389.142 208.529 370.178 328.63 370.178 328.63C370.178 328.63 385.978 342.853 387.561 344.43C389.144 346.007 452.353 334.948 452.353 334.948C452.353 334.948 483.959 331.787 483.959 327.048C483.959 322.309 474.477 251.195 477.638 232.231C480.799 213.267 491.86 124.773 491.86 124.773Z" fill="#003366"/>
<path d="M501.341 169.02C501.341 169.02 509.241 271.738 498.18 274.899C487.119 278.06 447.611 301.764 384.4 295.443C384.4 295.443 322.769 328.629 332.251 297.023C341.733 265.417 384.4 273.323 384.4 273.323C384.4 273.323 460.253 257.523 463.414 246.458C466.575 235.393 453.932 189.568 458.673 187.988C463.414 186.408 501.341 169.02 501.341 169.02Z" fill="#F3C78F"/>
<path d="M391.904 29.973C397.088 28.128 402.804 27.18 408.094 28.71C415.575 30.875 420.757 37.4329 426.345 42.8569C431.933 48.2809 439.771 53.088 447.129 50.537C446.685 47.3472 447.522 44.1114 449.457 41.537C450.276 40.459 451.317 39.437 451.524 38.097C451.838 36.066 450.13 34.314 449.618 32.323C448.718 28.834 451.181 24.059 448.156 22.104C447.356 21.588 446.346 21.47 445.567 20.926C442.508 18.788 445.905 13.471 443.883 10.335C443.277 9.52484 442.489 8.86823 441.583 8.41796C426.919 -0.138044 408.983 -0.162043 392.01 0.0539566C389.647 0.0839566 386.356 1.25396 387.023 3.52496C383.815 1.22496 379.614 4.45596 377.023 7.44096L371.73 13.55C369.243 16.2068 367.072 19.143 365.262 22.3C363.645 25.392 363.288 30.146 366.505 31.494C364.113 30.494 361.21 44.6629 372.239 42.3309C378.654 40.9759 384.935 32.453 391.904 29.973Z" fill="black"/>
<path d="M466.575 127.933L491.859 124.772C491.859 124.772 517.143 173.761 502.921 181.662C488.699 189.563 452.352 195.885 452.352 192.724C452.352 189.563 466.575 127.933 466.575 127.933Z" fill="#003366"/>
<path d="M598.031 632.094C597.767 631.663 591.546 621.276 589.39 599.706C587.412 579.917 588.684 546.562 605.982 500.034C638.754 411.89 598.43 340.77 598.018 340.062L600.007 338.908C600.107 339.088 610.517 357.22 616.663 386.094C624.785 424.374 621.827 464.177 608.137 500.836C575.422 588.83 599.744 630.485 599.993 630.896L598.031 632.094Z" fill="#3F3D56"/>
<path d="M585.216 334.886C593.47 334.886 600.161 328.195 600.161 319.941C600.161 311.687 593.47 304.996 585.216 304.996C576.962 304.996 570.271 311.687 570.271 319.941C570.271 328.195 576.962 334.886 585.216 334.886Z" fill="#8CC051"/>
<path d="M632.352 390.069C640.606 390.069 647.297 383.378 647.297 375.124C647.297 366.87 640.606 360.179 632.352 360.179C624.098 360.179 617.407 366.87 617.407 375.124C617.407 383.378 624.098 390.069 632.352 390.069Z" fill="#8CC051"/>
<path d="M600.162 426.857C608.416 426.857 615.107 420.166 615.107 411.912C615.107 403.658 608.416 396.967 600.162 396.967C591.908 396.967 585.217 403.658 585.217 411.912C585.217 420.166 591.908 426.857 600.162 426.857Z" fill="#8CC051"/>
<path d="M639.25 457.898C647.504 457.898 654.195 451.207 654.195 442.953C654.195 434.699 647.504 428.008 639.25 428.008C630.996 428.008 624.305 434.699 624.305 442.953C624.305 451.207 630.996 457.898 639.25 457.898Z" fill="#8CC051"/>
<path d="M588.665 506.183C596.919 506.183 603.61 499.492 603.61 491.238C603.61 482.984 596.919 476.293 588.665 476.293C580.411 476.293 573.72 482.984 573.72 491.238C573.72 499.492 580.411 506.183 588.665 506.183Z" fill="#8CC051"/>
<path d="M607.06 632.644C607.06 632.644 592.115 595.855 636.951 568.264L607.06 632.644Z" fill="#37BB9B"/>
<path d="M588.679 631.977C588.679 631.977 581.879 592.855 529.233 593.191L588.679 631.977Z" fill="#37BB9B"/>
<path d="M228.759 327C221.441 327 214.288 329.17 208.203 333.236C202.118 337.301 197.376 343.08 194.575 349.841C191.775 356.602 191.042 364.041 192.47 371.218C193.898 378.396 197.422 384.988 202.596 390.163C207.771 395.338 214.363 398.861 221.541 400.289C228.718 401.717 236.157 400.984 242.918 398.184C249.679 395.383 255.458 390.641 259.523 384.556C263.589 378.471 265.759 371.318 265.759 364C265.759 354.187 261.861 344.776 254.922 337.837C247.983 330.898 238.572 327 228.759 327ZM247.045 354.616C247.064 355.016 247.074 355.425 247.074 355.834C247.074 368.317 237.583 382.71 220.208 382.71C215.082 382.721 210.063 381.238 205.766 378.442C206.513 378.532 207.265 378.577 208.017 378.578C212.268 378.586 216.398 377.161 219.74 374.534C217.77 374.497 215.86 373.845 214.279 372.669C212.698 371.493 211.524 369.852 210.921 367.976C211.505 368.094 212.099 368.152 212.695 368.151C213.534 368.151 214.369 368.04 215.178 367.82C213.042 367.388 211.121 366.23 209.741 364.542C208.361 362.855 207.607 360.742 207.608 358.562V358.445C208.92 359.182 210.392 359.587 211.896 359.624C209.895 358.29 208.477 356.243 207.932 353.9C207.387 351.557 207.756 349.095 208.963 347.014C211.329 349.934 214.284 352.322 217.636 354.023C220.987 355.724 224.659 356.699 228.413 356.885C228.247 356.179 228.166 355.456 228.169 354.731C228.167 352.838 228.735 350.988 229.799 349.421C230.863 347.855 232.373 346.646 234.134 345.95C235.895 345.254 237.824 345.104 239.672 345.519C241.519 345.935 243.198 346.897 244.491 348.28C246.605 347.867 248.633 347.092 250.484 345.99C249.78 348.177 248.305 350.033 246.333 351.213C248.203 350.986 250.029 350.484 251.751 349.722C250.485 351.619 248.891 353.276 247.044 354.614L247.045 354.616Z" fill="#3CAEDA"/>
<path d="M111.01 267.91C114.455 267.91 117.247 265.117 117.247 261.673C117.247 258.228 114.455 255.436 111.01 255.436C107.565 255.436 104.773 258.228 104.773 261.673C104.773 265.117 107.565 267.91 111.01 267.91Z" fill="#FF0202"/>
<path d="M118.804 246.081H103.213C101.146 246.086 99.1649 246.91 97.7032 248.371C96.2415 249.833 95.4181 251.814 95.4131 253.881V269.472C95.4181 271.539 96.2415 273.52 97.7032 274.982C99.1649 276.444 101.146 277.267 103.213 277.272H118.804C120.871 277.267 122.852 276.444 124.314 274.982C125.776 273.52 126.599 271.539 126.604 269.472V253.877C126.599 251.81 125.776 249.829 124.314 248.367C122.852 246.906 120.871 246.082 118.804 246.077V246.081ZM111.004 271.027C109.154 271.027 107.345 270.479 105.807 269.451C104.268 268.423 103.069 266.962 102.361 265.252C101.653 263.543 101.468 261.662 101.829 259.847C102.19 258.032 103.081 256.365 104.389 255.057C105.697 253.749 107.364 252.858 109.179 252.497C110.994 252.136 112.875 252.321 114.584 253.029C116.293 253.737 117.755 254.936 118.782 256.475C119.81 258.013 120.359 259.822 120.359 261.672C120.359 264.153 119.373 266.533 117.619 268.287C115.865 270.042 113.485 271.027 111.004 271.027ZM121.138 253.876C120.599 253.875 120.076 253.687 119.66 253.343C119.243 253 118.959 252.523 118.855 251.994C118.75 251.465 118.833 250.916 119.088 250.44C119.343 249.965 119.755 249.592 120.254 249.387C120.752 249.181 121.307 249.154 121.823 249.311C122.339 249.468 122.785 249.8 123.085 250.248C123.384 250.697 123.518 251.236 123.465 251.773C123.412 252.31 123.175 252.812 122.793 253.193C122.576 253.41 122.317 253.582 122.034 253.699C121.75 253.816 121.445 253.877 121.138 253.876Z" fill="#E086C0"/>
<path d="M110.604 225C103.286 225 96.1325 227.17 90.0479 231.236C83.9633 235.301 79.2209 241.08 76.4205 247.841C73.62 254.602 72.8873 262.041 74.315 269.218C75.7426 276.396 79.2665 282.988 84.4411 288.163C89.6156 293.338 96.2084 296.861 103.386 298.289C110.563 299.717 118.002 298.984 124.763 296.184C131.524 293.383 137.303 288.641 141.368 282.556C145.434 276.471 147.604 269.318 147.604 262C147.604 252.187 143.706 242.776 136.767 235.837C129.828 228.898 120.417 225 110.604 225ZM129.714 269.468C129.706 272.359 128.554 275.13 126.509 277.175C124.465 279.219 121.695 280.372 118.804 280.382H103.213C100.321 280.374 97.5499 279.221 95.505 277.176C93.46 275.131 92.3074 272.36 92.299 269.468V253.877C92.3074 250.985 93.46 248.214 95.505 246.169C97.5499 244.124 100.321 242.971 103.213 242.963H118.804C121.696 242.971 124.467 244.124 126.512 246.169C128.557 248.214 129.71 250.985 129.718 253.877L129.714 269.468Z" fill="#CD6DAB"/>
<path d="M220.604 120C213.286 120 206.133 122.17 200.048 126.236C193.963 130.301 189.221 136.08 186.42 142.841C183.62 149.602 182.887 157.041 184.315 164.218C185.743 171.396 189.267 177.988 194.441 183.163C199.616 188.338 206.208 191.861 213.386 193.289C220.563 194.717 228.002 193.984 234.763 191.184C241.524 188.383 247.303 183.641 251.368 177.556C255.434 171.471 257.604 164.318 257.604 157C257.604 147.187 253.706 137.776 246.767 130.837C239.828 123.898 230.417 120 220.604 120ZM220.826 178.608C218.731 178.605 216.647 178.302 214.638 177.708C215.588 176.262 216.327 174.687 216.831 173.031C217.104 172.056 218.371 167.031 218.371 167.031C218.962 167.893 219.759 168.593 220.69 169.068C221.621 169.543 222.656 169.777 223.701 169.75C230.717 169.75 235.482 163.357 235.482 154.792C235.482 148.322 229.996 142.292 221.664 142.292C211.296 142.292 206.064 149.727 206.064 155.925C206.064 159.686 207.487 163.019 210.537 164.266C210.643 164.322 210.76 164.351 210.879 164.353C210.998 164.354 211.116 164.327 211.223 164.273C211.33 164.22 211.422 164.142 211.492 164.046C211.563 163.95 211.609 163.838 211.628 163.72C211.735 163.33 211.969 162.365 212.076 161.966C212.16 161.756 212.175 161.525 212.118 161.306C212.062 161.087 211.938 160.892 211.764 160.748C210.771 159.549 210.257 158.025 210.322 156.47C210.306 155.067 210.575 153.676 211.113 152.381C211.651 151.086 212.447 149.913 213.452 148.935C214.457 147.957 215.651 147.194 216.961 146.692C218.27 146.19 219.668 145.959 221.07 146.014C226.927 146.014 230.152 149.59 230.152 154.375C230.152 160.675 227.365 165.981 223.233 165.981C222.705 166.009 222.177 165.912 221.693 165.699C221.209 165.486 220.782 165.162 220.446 164.753C220.111 164.344 219.876 163.862 219.761 163.346C219.645 162.83 219.653 162.294 219.783 161.781C220.436 159.014 221.712 156.032 221.712 154.034C221.712 152.251 220.757 150.76 218.769 150.76C216.43 150.76 214.559 153.177 214.559 156.412C214.544 157.599 214.783 158.775 215.259 159.862C215.259 159.862 212.872 169.987 212.453 171.762C212.109 173.408 211.981 175.092 212.073 176.771C207.134 174.601 203.175 170.678 200.96 165.759C198.746 160.84 198.433 155.275 200.082 150.139C201.731 145.003 205.226 140.66 209.89 137.95C214.555 135.24 220.058 134.355 225.337 135.467C230.615 136.578 235.295 139.606 238.471 143.966C241.647 148.326 243.095 153.709 242.534 159.074C241.972 164.44 239.443 169.406 235.433 173.015C231.423 176.624 226.218 178.618 220.824 178.613L220.826 178.608Z" fill="#DA4553"/>
<path d="M231.136 220.43C241.891 220.43 250.61 211.615 250.61 200.742C250.61 189.868 241.891 181.054 231.136 181.054C220.381 181.054 211.662 189.868 211.662 200.742C211.662 211.615 220.381 220.43 231.136 220.43Z" fill="#3F3D56"/>
<path d="M235.03 211.241H231.065V196.133C229.602 197.511 227.852 198.548 225.941 199.171V195.533C227.168 195.082 228.308 194.423 229.313 193.586C230.451 192.735 231.319 191.573 231.813 190.24H235.031L235.03 211.241Z" fill="#3F3D56"/>
<path d="M231.136 220.43C241.891 220.43 250.61 211.615 250.61 200.742C250.61 189.868 241.891 181.054 231.136 181.054C220.381 181.054 211.662 189.868 211.662 200.742C211.662 211.615 220.381 220.43 231.136 220.43Z" fill="#106CE6"/>
<path d="M235.03 211.241H231.065V196.133C229.602 197.511 227.852 198.548 225.941 199.171V195.533C227.168 195.082 228.308 194.423 229.313 193.586C230.451 192.735 231.319 191.573 231.813 190.24H235.031L235.03 211.241Z" fill="white"/>
<path d="M110.751 327.674C121.624 327.674 130.439 318.859 130.439 307.986C130.439 297.112 121.624 288.298 110.751 288.298C99.8776 288.298 91.063 297.112 91.063 307.986C91.063 318.859 99.8776 327.674 110.751 327.674Z" fill="#3F3D56"/>
<path d="M108.411 311.2C108.344 312.257 108.642 313.304 109.256 314.167C109.474 314.48 109.762 314.737 110.097 314.919C110.432 315.1 110.805 315.201 111.186 315.213C111.523 315.216 111.856 315.141 112.159 314.992C112.462 314.843 112.725 314.626 112.929 314.357C113.467 313.525 113.713 312.538 113.629 311.551C113.713 310.515 113.448 309.481 112.878 308.612C112.662 308.326 112.383 308.093 112.063 307.932C111.743 307.77 111.39 307.684 111.032 307.68C110.673 307.676 110.318 307.754 109.995 307.908C109.671 308.062 109.387 308.288 109.164 308.569C108.612 309.33 108.347 310.262 108.414 311.2H108.411ZM116.951 302.6L113.304 303.022C113.275 302.38 113.028 301.767 112.604 301.283C112.411 301.095 112.183 300.949 111.931 300.852C111.68 300.756 111.412 300.711 111.143 300.722C110.74 300.728 110.345 300.833 109.993 301.029C109.641 301.225 109.343 301.505 109.125 301.844C108.575 302.593 108.229 304.15 108.086 306.517C108.492 305.973 109.02 305.531 109.628 305.229C110.236 304.926 110.907 304.771 111.586 304.775C112.357 304.772 113.118 304.939 113.817 305.264C114.515 305.59 115.133 306.065 115.627 306.656C116.783 308.002 117.384 309.737 117.31 311.509C117.4 313.363 116.766 315.179 115.541 316.573C114.918 317.218 114.164 317.721 113.33 318.048C112.495 318.376 111.6 318.52 110.705 318.471C109.81 318.423 108.936 318.182 108.142 317.766C107.349 317.35 106.653 316.768 106.104 316.06C104.825 314.447 104.186 311.803 104.186 308.128C104.186 304.359 104.853 301.642 106.186 299.977C106.792 299.18 107.578 298.538 108.48 298.103C109.381 297.669 110.373 297.454 111.374 297.477C112.731 297.428 114.056 297.897 115.081 298.788C116.13 299.8 116.791 301.147 116.952 302.596L116.951 302.6Z" fill="#3F3D56"/>
<path d="M110.751 327.674C121.624 327.674 130.439 318.859 130.439 307.986C130.439 297.112 121.624 288.298 110.751 288.298C99.8776 288.298 91.063 297.112 91.063 307.986C91.063 318.859 99.8776 327.674 110.751 327.674Z" fill="#106CE6"/>
<path d="M108.411 311.2C108.344 312.257 108.642 313.304 109.256 314.167C109.474 314.48 109.762 314.737 110.097 314.919C110.432 315.1 110.805 315.201 111.186 315.213C111.523 315.216 111.856 315.141 112.159 314.992C112.462 314.843 112.725 314.626 112.929 314.357C113.467 313.525 113.713 312.538 113.629 311.551C113.713 310.515 113.448 309.481 112.878 308.612C112.662 308.326 112.383 308.093 112.063 307.932C111.743 307.77 111.39 307.684 111.032 307.68C110.673 307.676 110.318 307.754 109.995 307.908C109.671 308.062 109.387 308.288 109.164 308.569C108.612 309.33 108.347 310.262 108.414 311.2H108.411ZM116.951 302.6L113.304 303.022C113.275 302.38 113.028 301.767 112.604 301.283C112.411 301.095 112.183 300.949 111.931 300.852C111.68 300.756 111.412 300.711 111.143 300.722C110.74 300.728 110.345 300.833 109.993 301.029C109.641 301.225 109.343 301.505 109.125 301.844C108.575 302.593 108.229 304.15 108.086 306.517C108.492 305.973 109.02 305.531 109.628 305.229C110.236 304.926 110.907 304.771 111.586 304.775C112.357 304.772 113.118 304.939 113.817 305.264C114.515 305.59 115.133 306.065 115.627 306.656C116.783 308.002 117.384 309.737 117.31 311.509C117.4 313.363 116.766 315.179 115.541 316.573C114.918 317.218 114.164 317.721 113.33 318.048C112.495 318.376 111.6 318.52 110.705 318.471C109.81 318.423 108.936 318.182 108.142 317.766C107.349 317.35 106.653 316.768 106.104 316.06C104.825 314.447 104.186 311.803 104.186 308.128C104.186 304.359 104.853 301.642 106.186 299.977C106.792 299.18 107.578 298.538 108.48 298.103C109.381 297.669 110.373 297.454 111.374 297.477C112.731 297.428 114.056 297.897 115.081 298.788C116.13 299.8 116.791 301.147 116.952 302.596L116.951 302.6Z" fill="white"/>
<path d="M228.507 428.358C239.38 428.358 248.195 419.544 248.195 408.67C248.195 397.797 239.38 388.982 228.507 388.982C217.634 388.982 208.819 397.797 208.819 408.67C208.819 419.544 217.634 428.358 228.507 428.358Z" fill="#3F3D56"/>
<path d="M226.069 403.75C226.049 404.084 226.095 404.418 226.207 404.733C226.318 405.049 226.491 405.338 226.716 405.585C226.942 405.808 227.211 405.981 227.508 406.095C227.804 406.208 228.12 406.259 228.437 406.244C228.757 406.26 229.078 406.208 229.377 406.094C229.677 405.979 229.95 405.804 230.179 405.579C230.405 405.331 230.58 405.041 230.692 404.724C230.805 404.407 230.852 404.072 230.833 403.736C230.848 403.413 230.799 403.089 230.688 402.784C230.577 402.48 230.407 402.2 230.187 401.962C229.964 401.739 229.697 401.565 229.402 401.45C229.108 401.336 228.793 401.284 228.478 401.297C228.155 401.282 227.832 401.334 227.529 401.449C227.227 401.565 226.952 401.743 226.722 401.97C226.5 402.209 226.328 402.489 226.216 402.795C226.103 403.101 226.053 403.426 226.068 403.751L226.069 403.75ZM225.715 412.55C225.66 413.467 225.948 414.372 226.525 415.086C226.774 415.378 227.084 415.611 227.434 415.768C227.783 415.926 228.163 416.004 228.546 415.997C228.917 416.006 229.286 415.931 229.625 415.78C229.964 415.628 230.265 415.403 230.506 415.12C231.068 414.402 231.344 413.501 231.282 412.59C231.324 411.745 231.042 410.916 230.493 410.271C230.244 409.987 229.936 409.761 229.591 409.61C229.245 409.458 228.87 409.384 228.493 409.393C228.088 409.367 227.683 409.445 227.317 409.62C226.951 409.795 226.636 410.062 226.403 410.393C225.955 411.024 225.715 411.779 225.716 412.552L225.715 412.55ZM225.28 407.713C224.39 407.367 223.634 406.745 223.122 405.939C222.674 405.193 222.441 404.337 222.449 403.466C222.428 402.759 222.556 402.055 222.824 401.401C223.092 400.746 223.495 400.155 224.007 399.666C225.277 398.694 226.832 398.167 228.432 398.167C230.032 398.167 231.587 398.694 232.857 399.666C233.372 400.153 233.778 400.743 234.049 401.398C234.32 402.053 234.45 402.758 234.429 403.466C234.448 404.368 234.196 405.255 233.706 406.012C233.215 406.77 232.509 407.362 231.678 407.713C232.7 408.094 233.577 408.785 234.186 409.691C234.794 410.596 235.103 411.669 235.069 412.759C235.116 413.617 234.982 414.476 234.673 415.278C234.365 416.08 233.891 416.807 233.281 417.413C232.671 418.018 231.94 418.487 231.136 418.79C230.332 419.092 229.473 419.221 228.615 419.167C226.978 419.226 225.372 418.705 224.081 417.696C223.378 417.123 222.818 416.394 222.447 415.566C222.076 414.738 221.904 413.835 221.944 412.928C221.933 411.855 222.209 410.798 222.744 409.867C223.33 408.892 224.22 408.136 225.277 407.714L225.28 407.713Z" fill="#3F3D56"/>
<path d="M228.507 428.358C239.38 428.358 248.195 419.544 248.195 408.67C248.195 397.797 239.38 388.982 228.507 388.982C217.634 388.982 208.819 397.797 208.819 408.67C208.819 419.544 217.634 428.358 228.507 428.358Z" fill="#106CE6"/>
<path d="M226.069 403.75C226.049 404.084 226.095 404.418 226.207 404.733C226.318 405.049 226.491 405.338 226.716 405.585C226.942 405.808 227.211 405.981 227.508 406.095C227.804 406.208 228.12 406.259 228.437 406.244C228.757 406.26 229.078 406.208 229.377 406.094C229.677 405.979 229.95 405.804 230.179 405.579C230.405 405.331 230.58 405.041 230.692 404.724C230.805 404.407 230.852 404.072 230.833 403.736C230.848 403.413 230.799 403.089 230.688 402.784C230.577 402.48 230.407 402.2 230.187 401.962C229.964 401.739 229.697 401.565 229.402 401.45C229.108 401.336 228.793 401.284 228.478 401.297C228.155 401.282 227.832 401.334 227.529 401.449C227.227 401.565 226.952 401.743 226.722 401.97C226.5 402.209 226.328 402.489 226.216 402.795C226.103 403.101 226.053 403.426 226.068 403.751L226.069 403.75ZM225.715 412.55C225.66 413.467 225.948 414.372 226.525 415.086C226.774 415.378 227.084 415.611 227.434 415.768C227.783 415.926 228.163 416.004 228.546 415.997C228.917 416.006 229.286 415.931 229.625 415.78C229.964 415.628 230.265 415.403 230.506 415.12C231.068 414.402 231.344 413.501 231.282 412.59C231.324 411.745 231.042 410.916 230.493 410.271C230.244 409.987 229.936 409.761 229.591 409.61C229.245 409.458 228.87 409.384 228.493 409.393C228.088 409.367 227.683 409.445 227.317 409.62C226.951 409.795 226.636 410.062 226.403 410.393C225.955 411.024 225.715 411.779 225.716 412.552L225.715 412.55ZM225.28 407.713C224.39 407.367 223.634 406.745 223.122 405.939C222.674 405.193 222.441 404.337 222.449 403.466C222.428 402.759 222.556 402.055 222.824 401.401C223.092 400.746 223.495 400.155 224.007 399.666C225.277 398.694 226.832 398.167 228.432 398.167C230.032 398.167 231.587 398.694 232.857 399.666C233.372 400.153 233.778 400.743 234.049 401.398C234.32 402.053 234.45 402.758 234.429 403.466C234.448 404.368 234.196 405.255 233.706 406.012C233.215 406.77 232.509 407.362 231.678 407.713C232.7 408.094 233.577 408.785 234.186 409.691C234.794 410.596 235.103 411.669 235.069 412.759C235.116 413.617 234.982 414.476 234.673 415.278C234.365 416.08 233.891 416.807 233.281 417.413C232.671 418.018 231.94 418.487 231.136 418.79C230.332 419.092 229.473 419.221 228.615 419.167C226.978 419.226 225.372 418.705 224.081 417.696C223.378 417.123 222.818 416.394 222.447 415.566C222.076 414.738 221.904 413.835 221.944 412.928C221.933 411.855 222.209 410.798 222.744 409.867C223.33 408.892 224.22 408.136 225.277 407.714L225.28 407.713Z" fill="white"/>
</g>
<defs>
<clipPath id="clip0">
<rect width="699.609" height="659" fill="white"/>
</clipPath>
</defs>
</svg>
