<svg width="826" height="662" viewBox="0 0 826 662" fill="none" xmlns="http://www.w3.org/2000/svg">
<g clip-path="url(#clip0)">
<path d="M614.846 661.108C720.333 661.108 805.846 653.945 805.846 645.108C805.846 636.271 720.333 629.108 614.846 629.108C509.36 629.108 423.846 636.271 423.846 645.108C423.846 653.945 509.36 661.108 614.846 661.108Z" fill="#3F3D56"/>
<path d="M804.847 466.127C804.847 544.533 758.236 571.909 700.739 571.909C643.242 571.909 596.63 544.532 596.63 466.127C596.63 387.722 700.739 287.977 700.739 287.977C700.739 287.977 804.847 387.721 804.847 466.127Z" fill="#F2F2F2"/>
<path d="M696.946 559.915L698.012 494.296L742.385 413.117L698.179 484.003L698.658 454.498L729.24 395.765L698.785 446.69L699.647 393.624L732.395 346.866L699.783 385.28L700.321 287.98L696.933 416.789L697.211 411.475L663.916 360.511L696.677 421.676L693.578 480.945L693.486 479.372L655.102 425.74L693.37 484.929L692.982 492.34L692.912 492.452L692.944 493.06L685.073 643.417H695.589L696.851 565.753L735.024 506.709L696.946 559.915Z" fill="#3F3D56"/>
<path d="M772.32 607.22C772.32 629.689 758.964 637.534 742.486 637.534C742.104 637.534 741.723 637.53 741.343 637.521C740.58 637.505 739.823 637.468 739.076 637.421C724.205 636.369 712.652 628.121 712.652 607.221C712.652 585.596 740.286 558.309 742.362 556.289L742.482 556.173C742.482 556.173 772.32 584.751 772.32 607.22Z" fill="#D64545"/>
<path d="M741.399 634.096L752.311 618.849L741.372 635.77L741.343 637.52C740.58 637.504 739.823 637.467 739.076 637.42L740.252 614.941L740.243 614.767L740.263 614.734L740.374 612.611L729.408 595.648L740.408 611.018L740.433 611.469L741.322 594.484L731.939 576.953L741.439 591.5L742.364 556.288V556.168V556.284L742.21 584.051L751.557 573.043L742.172 586.443L741.925 601.65L750.652 587.056L741.889 603.888L741.751 612.342L754.422 592.027L741.705 615.29L741.399 634.096Z" fill="#3F3D56"/>
<path d="M225.14 257.055C251.596 257.055 273.044 235.608 273.044 209.151C273.044 182.694 251.596 161.247 225.14 161.247C198.683 161.247 177.236 182.694 177.236 209.151C177.236 235.608 198.683 257.055 225.14 257.055Z" fill="#F2F2F2"/>
<path d="M235.051 242.739C261.508 242.739 282.955 221.292 282.955 194.835C282.955 168.378 261.508 146.931 235.051 146.931C208.594 146.931 187.147 168.378 187.147 194.835C187.147 221.292 208.594 242.739 235.051 242.739Z" stroke="#3F3D56" stroke-width="2" stroke-miterlimit="10"/>
<path d="M168.427 119.401L129.859 54.801C134.486 48.9276 136.819 41.5714 136.422 34.1047C136.025 26.638 132.926 19.5706 127.702 14.221C122.478 8.87135 115.486 5.60482 108.03 5.03075C100.575 4.45667 93.1658 6.61425 87.1843 11.101C81.2027 15.5878 77.0576 22.0973 75.5221 29.4152C73.9867 36.7331 75.1659 44.3598 78.8396 50.8724C82.5133 57.3849 88.4307 62.3387 95.4879 64.8096C102.545 67.2805 110.26 67.0997 117.194 64.301L168.427 119.401Z" fill="#3F3D56"/>
<path d="M105.656 50.023C113.562 50.023 119.972 43.6135 119.972 35.707C119.972 27.8005 113.562 21.391 105.656 21.391C97.7493 21.391 91.3398 27.8005 91.3398 35.707C91.3398 43.6135 97.7493 50.023 105.656 50.023Z" fill="#D64545"/>
<path d="M292.127 111.94L345.479 58.89C352.298 61.9585 360 62.4418 367.148 60.2496C374.297 58.0575 380.404 53.3397 384.331 46.9763C388.257 40.6128 389.734 33.0384 388.487 25.6659C387.24 18.2933 383.353 11.6262 377.553 6.90828C371.752 2.19031 364.433 -0.256323 356.961 0.02478C349.489 0.305883 342.374 3.29553 336.944 8.43601C331.514 13.5765 328.14 20.5168 327.45 27.9622C326.76 35.4075 328.803 42.8496 333.196 48.9L292.127 111.94Z" fill="#3F3D56"/>
<path d="M358.149 45.103C366.056 45.103 372.465 38.6935 372.465 30.787C372.465 22.8805 366.056 16.471 358.149 16.471C350.242 16.471 343.833 22.8805 343.833 30.787C343.833 38.6935 350.242 45.103 358.149 45.103Z" fill="#D64545"/>
<path d="M329.292 230.162L393.674 269.095C392.346 276.453 393.74 284.044 397.597 290.45C401.453 296.856 407.508 301.64 414.632 303.911C421.757 306.181 429.464 305.782 436.315 302.789C443.167 299.795 448.696 294.411 451.871 287.641C455.045 280.871 455.649 273.178 453.568 265.996C451.488 258.814 446.866 252.634 440.565 248.608C434.264 244.583 426.713 242.988 419.322 244.12C411.931 245.252 405.204 249.033 400.396 254.76L329.292 230.162Z" fill="#3F3D56"/>
<path d="M424.006 288.905C431.912 288.905 438.322 282.496 438.322 274.589C438.322 266.683 431.912 260.273 424.006 260.273C416.099 260.273 409.69 266.683 409.69 274.589C409.69 282.496 416.099 288.905 424.006 288.905Z" fill="#D64545"/>
<path d="M223.573 294.827L201.373 366.715C193.912 367.207 186.885 370.396 181.602 375.688C176.319 380.98 173.142 388.013 172.663 395.475C172.184 402.936 174.435 410.318 178.998 416.242C183.56 422.166 190.122 426.228 197.459 427.67C204.796 429.112 212.407 427.836 218.872 424.08C225.337 420.324 230.215 414.344 232.596 407.256C234.977 400.168 234.699 392.456 231.812 385.558C228.926 378.661 223.629 373.049 216.909 369.769L223.573 294.827Z" fill="#3F3D56"/>
<path d="M203.377 411.787C211.284 411.787 217.693 405.378 217.693 397.471C217.693 389.564 211.284 383.155 203.377 383.155C195.471 383.155 189.061 389.564 189.061 397.471C189.061 405.378 195.471 411.787 203.377 411.787Z" fill="#D64545"/>
<path d="M135.257 207.887L60.134 203.737C57.8495 196.617 53.053 190.572 46.6393 186.728C40.2255 182.885 32.6326 181.505 25.2769 182.848C17.9212 184.19 11.305 188.163 6.66252 194.024C2.02007 199.886 -0.331597 207.236 0.0462025 214.704C0.424002 222.171 3.50546 229.247 8.71577 234.61C13.9261 239.973 20.9094 243.257 28.3631 243.85C35.8167 244.444 43.2317 242.305 49.2248 237.834C55.2178 233.363 59.3797 226.864 60.9341 219.55L135.257 207.887Z" fill="#3F3D56"/>
<path d="M30.7711 227.441C38.6776 227.441 45.0871 221.032 45.0871 213.125C45.0871 205.218 38.6776 198.809 30.7711 198.809C22.8646 198.809 16.4551 205.218 16.4551 213.125C16.4551 221.032 22.8646 227.441 30.7711 227.441Z" fill="#D64545"/>
<path d="M810.389 63.217C818.538 63.217 825.145 56.6105 825.145 48.461C825.145 40.3115 818.538 33.705 810.389 33.705C802.239 33.705 795.633 40.3115 795.633 48.461C795.633 56.6105 802.239 63.217 810.389 63.217Z" fill="#F2F2F2"/>
<path d="M804.389 58.217C812.538 58.217 819.145 51.6105 819.145 43.461C819.145 35.3115 812.538 28.705 804.389 28.705C796.239 28.705 789.633 35.3115 789.633 43.461C789.633 51.6105 796.239 58.217 804.389 58.217Z" stroke="#3F3D56" stroke-width="2" stroke-miterlimit="10"/>
<path d="M717.179 51.775H683.846V85.108H717.179V51.775Z" fill="#D64545"/>
<path d="M723.846 45.108H690.513V78.441H723.846V45.108Z" stroke="#3F3D56" stroke-width="2" stroke-miterlimit="10"/>
<path d="M607.347 586.609C607.347 586.609 604.347 605.609 599.347 608.609C594.347 611.609 625.347 618.609 625.347 618.609L630.347 588.609L607.347 586.609Z" fill="#FBBEBE"/>
<path d="M644.347 369.609L655.347 382.609L650.347 427.609L646.347 516.609C646.347 516.609 654.347 593.609 646.347 595.609C638.347 597.609 602.347 596.609 603.347 591.609C604.347 586.609 605.347 582.609 607.347 575.609C609.347 568.609 605.347 543.609 605.347 543.609L610.347 515.609L592.347 394.609L644.347 369.609Z" fill="#2F2E41"/>
<path d="M608.347 605.609C608.347 605.609 597.347 603.609 596.347 605.609C595.347 607.609 576.347 628.609 573.347 628.609C570.347 628.609 548.347 648.609 571.347 649.609C594.347 650.609 632.347 632.609 632.347 632.609C632.347 632.609 626.755 607.163 627.047 608.386C627.339 609.609 608.347 610.609 608.347 605.609Z" fill="#2F2E41"/>
<path d="M596.347 559.609C596.347 559.609 624.347 590.609 625.347 593.609C626.347 596.609 641.347 593.609 641.347 593.609L647.347 573.609L642.347 566.609L614.347 543.609L596.347 559.609Z" fill="#FBBEBE"/>
<path d="M636.347 582.609L621.847 596.257C621.847 596.257 640.347 624.609 640.347 627.609C640.347 630.609 641.347 655.609 651.347 651.609C661.347 647.609 662.347 607.609 662.347 607.609C662.347 607.609 661.347 566.609 655.347 563.609C649.347 560.609 636.197 561.557 636.197 561.557C636.197 561.557 644.347 581.609 636.347 582.609Z" fill="#2F2E41"/>
<path d="M553.347 280.609C553.347 280.609 548.347 296.609 547.347 300.609C546.347 304.609 540.347 315.609 540.347 332.609C540.347 349.609 542.347 369.609 540.347 371.609C538.347 373.609 506.347 485.609 520.347 497.609C534.347 509.609 580.347 549.609 583.347 554.609C586.347 559.609 587.347 571.609 593.347 569.609C599.347 567.609 622.347 547.609 623.347 543.609C624.347 539.609 610.347 532.609 610.347 532.609C610.347 532.609 582.347 491.609 575.347 492.609C568.347 493.609 569.347 487.609 570.347 484.609C571.347 481.609 573.347 479.609 570.347 479.609C567.347 479.609 569.347 471.609 570.347 467.609C571.347 463.609 594.347 409.609 594.347 409.609L655.347 382.609C655.347 382.609 652.347 309.609 630.347 289.609L625.347 277.609C625.347 277.609 569.347 273.609 553.347 280.609Z" fill="#2F2E41"/>
<path d="M578.347 122.609C578.347 122.609 583.347 157.609 571.347 159.609C559.347 161.609 549.347 160.609 549.347 161.609C549.347 162.609 579.347 193.609 579.347 193.609L607.347 191.609L632.347 164.609C632.347 164.609 609.347 160.609 609.347 146.609C609.347 132.609 608.347 122.609 608.347 122.609H578.347Z" fill="#FCD4D4"/>
<path opacity="0.1" d="M581.347 111.609C581.347 111.609 586.347 146.609 574.347 148.609C562.347 150.609 552.347 149.609 552.347 150.609C552.347 151.609 582.347 182.609 582.347 182.609L610.347 180.609L635.347 153.609C635.347 153.609 612.347 149.609 612.347 135.609C612.347 121.609 611.347 111.609 611.347 111.609H581.347Z" fill="black"/>
<path d="M593.846 137.108C610.967 137.108 624.846 123.229 624.846 106.108C624.846 88.9872 610.967 75.108 593.846 75.108C576.725 75.108 562.846 88.9872 562.846 106.108C562.846 123.229 576.725 137.108 593.846 137.108Z" fill="#FCD4D4"/>
<path d="M566.347 156.609C566.347 156.609 527.347 161.609 524.347 174.609C521.347 187.609 544.347 268.609 547.347 275.609C550.347 282.609 549.347 287.609 549.347 287.609C553.872 284.225 559.069 281.849 564.588 280.642C570.108 279.434 575.822 279.423 581.347 280.609C600.347 284.609 627.347 282.609 627.347 282.609C627.347 282.609 636.347 245.609 638.347 241.609C640.347 237.609 648.347 215.609 648.347 209.609C648.347 203.609 660.347 178.609 660.347 178.609C660.347 178.609 654.347 160.609 632.347 161.609C632.347 161.609 622.747 157.309 620.047 160.461C617.347 163.613 602.347 177.609 583.347 171.609C564.347 165.609 566.347 156.609 566.347 156.609Z" fill="#3F3D56"/>
<path d="M535.347 173.609H524.347L518.347 252.609C518.347 252.609 540.347 258.609 543.347 254.609C546.347 250.609 535.347 173.609 535.347 173.609Z" fill="#3F3D56"/>
<path d="M521.347 244.609L518.347 252.609C518.347 252.609 516.347 278.609 528.347 277.609C540.347 276.609 547.347 261.609 547.347 261.609C547.347 261.609 540.347 242.609 532.347 244.609C524.347 246.609 521.347 244.609 521.347 244.609Z" fill="#3F3D56"/>
<path d="M641.347 173.609L660.347 178.609C660.347 178.609 674.347 229.609 675.347 230.609C676.347 231.609 677.347 237.609 677.347 237.609C677.347 237.609 677.347 238.609 679.347 241.609C681.347 244.609 684.347 242.609 682.347 246.609C680.347 250.609 677.347 248.609 679.347 252.609C681.347 256.609 680.347 267.609 680.347 267.609C680.347 267.609 675.347 248.609 657.347 253.609L645.347 199.609L641.347 173.609Z" fill="#3F3D56"/>
<path d="M558.539 80.566C552.239 91.642 550.815 104.761 549.945 117.475C549.572 122.928 549.291 128.525 550.909 133.745C552.614 139.25 556.409 144.845 554.463 150.268C552.581 155.515 546.287 157.614 542.773 161.941C539.794 165.607 539.046 170.631 539.305 175.347C539.564 180.063 540.705 184.694 541.043 189.406C541.734 199.754 538.54 209.989 532.084 218.106C547.146 217.525 563.25 210.846 569.602 197.177C571.502 193.091 572.425 188.618 574.138 184.451C576.076 179.736 579.002 175.469 580.838 170.714C583.608 163.539 583.758 155.66 583.873 147.97C583.942 143.37 583.991 138.64 582.398 134.321C578.891 124.812 567.985 118.668 566.898 108.591C566.711 107.525 566.869 106.428 567.348 105.458C567.857 104.749 568.474 104.126 569.177 103.609C575.987 97.598 574.864 84.873 582.971 80.776C586.609 78.937 590.994 79.584 594.9 80.748C599.238 82.04 603.565 84.042 606.388 87.581C612.071 94.707 609.828 105 608.07 113.943C605.521 126.915 604.618 140.157 605.38 153.355C605.429 155.466 605.741 157.563 606.307 159.597C607.351 162.897 609.577 165.671 611.258 168.697C614.683 174.919 615.794 182.152 614.395 189.115C613.155 195.174 610.073 201.628 612.786 207.186C613.98 209.333 615.643 211.182 617.652 212.596C626.514 219.542 637.764 223.846 644.352 232.976C645.487 225.518 643.322 218.013 641.724 210.64C640.126 203.267 639.153 195.24 642.438 188.45C643.879 185.471 646.081 182.878 647.259 179.786C649.979 172.643 646.737 164.809 644.768 157.424C643.361 151.624 642.345 145.737 641.727 139.801L639.696 123.779C638.017 110.534 636.261 97.019 630.445 85.001C619.484 62.354 594.681 53.942 572.472 66.492C566.652 69.852 561.84 74.7124 558.539 80.566Z" fill="#D8B270"/>
<path d="M531.347 249.609C531.347 249.609 525.347 267.609 532.347 267.609C539.347 267.609 552.347 256.609 553.347 247.609C554.347 238.609 572.347 204.609 559.347 207.609C546.347 210.609 540.347 235.609 540.347 235.609L531.347 249.609Z" fill="#FCD4D4"/>
<path d="M632.346 173.608L599.346 280.608L644.346 290.608L677.346 186.608L632.346 173.608Z" fill="#D64545"/>
<path d="M674.347 250.609L680.594 261.049C680.594 261.049 683.347 280.609 669.347 280.609C655.347 280.609 635.347 261.609 635.347 261.609C635.347 261.609 625.347 257.609 619.347 258.609C613.347 259.609 580.347 258.609 594.347 241.609C608.347 224.609 632.347 241.609 632.347 241.609L657.347 253.609L670.347 246.609L674.347 250.609Z" fill="#FCD4D4"/>
<path d="M665.847 237.109L655.847 253.109C655.847 253.109 678.847 256.109 680.847 261.109C682.847 266.109 671.847 235.109 671.847 235.109L665.847 237.109Z" fill="#3F3D56"/>
</g>
<defs>
<clipPath id="clip0">
<rect width="825.144" height="661.108" fill="white"/>
</clipPath>
</defs>
</svg>
