<svg width="714" height="780" viewBox="0 0 714 780" fill="none" xmlns="http://www.w3.org/2000/svg">
<g clip-path="url(#clip0)">
<path d="M629.432 705.925L400.217 706.684C339.407 688.412 289.584 624.948 289.27 529.797C289.209 515.463 290.292 501.147 292.508 486.985L477.13 445.507L619.554 413.512C630.049 422.91 639.828 433.078 648.81 443.931L512.62 515.844L448.373 549.77L520.567 524.863L670.41 473.169C679.755 487.455 688.081 502.382 695.327 517.838L650.116 564.563L701.26 531.081C701.479 531.594 701.696 532.107 701.913 532.622C734.327 609.575 694.11 705.711 629.432 705.925Z" fill="#F2F2F2"/>
<path d="M591.764 391.976C557.101 401.931 514.485 414.509 470.669 427.583C407.318 446.491 341.46 466.444 293.514 481.03L293.545 480.859C295.317 470.625 299.484 460.955 305.705 452.638C341.222 406.459 386.448 374.199 436.782 362.219C450.935 358.843 465.431 357.114 479.982 357.065C520.033 356.929 557.965 369.489 591.764 391.976Z" fill="#F2F2F2"/>
<path d="M360.217 725.536C486.138 725.536 588.217 717.925 588.217 708.536C588.217 699.147 486.138 691.536 360.217 691.536C234.296 691.536 132.217 699.147 132.217 708.536C132.217 717.925 234.296 725.536 360.217 725.536Z" fill="#3F3D56"/>
<path d="M326.217 428.798C326.217 551.637 253.191 594.528 163.109 594.528C73.027 594.528 0 551.638 0 428.798C0 305.958 163.109 149.687 163.109 149.687C163.109 149.687 326.217 305.959 326.217 428.798Z" fill="#F2F2F2"/>
<path d="M157.167 575.737L158.837 472.937L228.358 345.752L159.1 456.8L159.851 410.574L207.764 318.557L160.049 398.341L161.4 315.202L212.707 241.945L161.607 302.128L162.451 149.681L157.151 351.494L157.587 343.168L105.423 263.323L156.75 359.15L151.89 452.002L151.745 449.537L91.6104 365.517L151.564 458.25L150.956 469.862L150.847 470.036L150.897 470.99L138.566 706.562H155.041L157.018 584.884L216.825 492.384L157.167 575.737Z" fill="#A0D468"/>
<path d="M520.903 29.13V677.33C520.896 685.052 517.823 692.454 512.362 697.913C506.9 703.371 499.495 706.438 491.773 706.44H228.623C224.798 706.447 221.008 705.699 217.472 704.238C213.936 702.778 210.723 700.634 208.017 697.93C205.311 695.226 203.165 692.014 201.703 688.479C200.24 684.945 199.489 681.156 199.493 677.33V29.13C199.493 25.3044 200.246 21.5162 201.71 17.9817C203.174 14.4472 205.32 11.2358 208.025 8.53073C210.731 5.82568 213.942 3.68004 217.477 2.21633C221.011 0.75262 224.8 -0.000478198 228.625 4.71678e-05H268.003V5.05005C268.003 11.4109 270.53 17.5112 275.027 22.0097C279.524 26.5081 285.623 29.0362 291.984 29.038H425.824C430.944 29.049 435.931 27.4077 440.044 24.358C440.876 23.7533 441.664 23.0917 442.404 22.378C444.747 20.1411 446.611 17.4515 447.883 14.4726C449.155 11.4936 449.809 8.28725 449.804 5.04805V-0.00195173H491.774C495.6 -0.00313428 499.388 0.749529 502.923 2.21303C506.458 3.67653 509.67 5.82218 512.375 8.52739C515.08 11.2326 517.226 14.4443 518.689 17.9791C520.153 21.5138 520.905 25.3023 520.904 29.128L520.903 29.13Z" fill="#3F3D56"/>
<path d="M348.227 253.801C348.236 271.89 337.485 278.211 324.221 278.217C323.913 278.217 323.607 278.214 323.301 278.207C322.687 278.194 322.078 278.167 321.476 278.124C309.504 277.282 300.199 270.647 300.191 253.824C300.183 236.414 322.423 214.433 324.091 212.807L324.191 212.714C324.191 212.714 348.218 235.713 348.227 253.801Z" fill="#37BC9B"/>
<path d="M323.345 275.45L332.124 263.172L323.324 276.797L323.301 278.206C322.686 278.193 322.078 278.166 321.476 278.123L322.414 260.023L322.407 259.883L322.423 259.856L322.512 258.146L313.677 244.495L322.538 256.865L322.56 257.228L323.268 243.555L315.703 229.448L323.36 241.148L324.091 212.8V212.706V212.799L323.978 235.155L331.496 226.289L323.946 237.081L323.753 249.324L330.775 237.572L323.726 251.124L323.619 257.932L333.809 241.573L323.584 260.312L323.345 275.45Z" fill="#3F3D56"/>
<path d="M474.2 482.7H246.2V557.993L265.289 538.905H474.2V482.7Z" fill="#6C63FF"/>
<path d="M425.331 496.348H297.064V506.748H425.331V496.348Z" fill="white"/>
<path d="M425.331 511.948H297.064V522.348H425.331V511.948Z" fill="white"/>
<path d="M246.2 382.2H474.2V457.493L455.11 438.406H246.2V382.2Z" fill="#37BC9B"/>
<path d="M413.331 396.848H285.064V407.248H413.331V396.848Z" fill="white"/>
<path d="M413.331 412.448H285.064V422.848H413.331V412.448Z" fill="white"/>
<path d="M237.199 146.446V330.038H483.199V146.446H237.199ZM268.899 148.757C269.683 148.757 270.449 148.989 271.1 149.425C271.752 149.86 272.26 150.479 272.56 151.203C272.86 151.927 272.938 152.723 272.785 153.492C272.632 154.261 272.255 154.967 271.701 155.521C271.147 156.075 270.441 156.452 269.672 156.605C268.904 156.758 268.107 156.679 267.383 156.379C266.659 156.08 266.04 155.572 265.605 154.92C265.17 154.269 264.937 153.503 264.937 152.719C264.937 151.668 265.355 150.661 266.098 149.917C266.841 149.174 267.848 148.757 268.899 148.757ZM245.124 156.682C244.341 156.682 243.575 156.45 242.923 156.014C242.271 155.579 241.764 154.96 241.464 154.236C241.164 153.512 241.085 152.716 241.238 151.947C241.391 151.179 241.769 150.473 242.323 149.918C242.877 149.364 243.583 148.987 244.351 148.834C245.12 148.681 245.916 148.76 246.64 149.06C247.364 149.36 247.983 149.867 248.418 150.519C248.854 151.17 249.086 151.936 249.086 152.72C249.086 153.771 248.669 154.779 247.926 155.522C247.183 156.265 246.175 156.682 245.124 156.682ZM253.049 152.72C253.049 151.936 253.282 151.17 253.717 150.519C254.152 149.867 254.771 149.36 255.495 149.06C256.219 148.76 257.016 148.681 257.784 148.834C258.553 148.987 259.259 149.364 259.813 149.918C260.367 150.473 260.744 151.179 260.897 151.947C261.05 152.716 260.971 153.512 260.672 154.236C260.372 154.96 259.864 155.579 259.212 156.014C258.561 156.45 257.795 156.682 257.011 156.682C255.96 156.682 254.953 156.265 254.21 155.522C253.467 154.779 253.049 153.771 253.049 152.72ZM389.421 278.527H257.011V180.127H389.421V278.527Z" fill="#F2F2F2"/>
<path d="M477.915 149.748H469.99V150.739H477.915V149.748Z" fill="white"/>
<path d="M477.915 152.719H469.99V153.71H477.915V152.719Z" fill="white"/>
<path d="M477.915 155.691H469.99V156.682H477.915V155.691Z" fill="white"/>
<path d="M469.99 178.475H410.224V181.447H469.99V178.475Z" fill="white"/>
<path d="M469.99 188.711H410.224V191.683H469.99V188.711Z" fill="white"/>
<path d="M469.99 198.948H410.224V201.92H469.99V198.948Z" fill="white"/>
<path d="M469.99 209.184H410.224V212.156H469.99V209.184Z" fill="white"/>
<path d="M469.99 219.42H410.224V222.392H469.99V219.42Z" fill="white"/>
<path d="M469.99 229.656H410.224V232.628H469.99V229.656Z" fill="white"/>
<path d="M469.99 239.893H410.224V242.865H469.99V239.893Z" fill="white"/>
<path d="M469.99 250.129H410.224V253.101H469.99V250.129Z" fill="white"/>
<path d="M469.99 260.365H410.224V263.337H469.99V260.365Z" fill="white"/>
<path d="M469.99 270.602H410.224V273.574H469.99V270.602Z" fill="white"/>
<path d="M264.935 289.422C267.123 289.422 268.897 287.648 268.897 285.46C268.897 283.272 267.123 281.498 264.935 281.498C262.747 281.498 260.973 283.272 260.973 285.46C260.973 287.648 262.747 289.422 264.935 289.422Z" fill="white"/>
<path d="M278.473 289.422C280.661 289.422 282.435 287.648 282.435 285.46C282.435 283.272 280.661 281.498 278.473 281.498C276.285 281.498 274.511 283.272 274.511 285.46C274.511 287.648 276.285 289.422 278.473 289.422Z" fill="white"/>
<path d="M292.011 289.422C294.199 289.422 295.973 287.648 295.973 285.46C295.973 283.272 294.199 281.498 292.011 281.498C289.823 281.498 288.049 283.272 288.049 285.46C288.049 287.648 289.823 289.422 292.011 289.422Z" fill="white"/>
<path d="M469.99 304.942H410.224V321.782H469.99V304.942Z" fill="#6C63FF"/>
<path d="M144.907 533.52L142.716 610.2L119.347 700.026C119.347 700.026 124.459 715.362 120.808 719.013C117.157 722.664 100.359 729.238 100.359 729.238L114.234 537.902L144.907 533.52Z" fill="#2F2E41"/>
<path d="M94.1698 718.638C94.1698 718.638 85.8358 736.972 97.5038 738.638C109.172 740.304 163.063 744.749 159.73 735.304C156.397 725.859 115.838 716.97 115.838 716.97L94.1698 718.638Z" fill="#2F2E41"/>
<path d="M63.1152 465.603C63.1152 465.603 71.8782 513.072 77.7212 521.103C83.5642 529.134 74.8002 587.559 74.8002 587.559C74.8002 587.559 61.6552 671.542 67.5002 684.687C73.3452 697.832 71.8822 693.45 71.1512 700.753C70.4202 708.056 68.9602 713.898 71.1512 720.471C73.3422 727.044 73.3422 726.313 74.0722 729.965C74.8022 733.617 74.0722 753.334 74.0722 753.334C74.0722 753.334 105.472 764.288 110.586 748.222C110.586 748.222 103.286 737.998 105.474 729.965C107.758 721.881 108.986 713.535 109.125 705.135V689.802L142.718 564.192L150.751 518.914C150.751 518.914 148.56 472.906 140.527 468.524C132.494 464.142 63.1152 465.603 63.1152 465.603Z" fill="#2F2E41"/>
<path d="M76.2599 749.686C76.2599 749.686 65.306 773.786 80.642 775.976C95.978 778.166 166.816 784.009 162.434 771.594C158.052 759.179 104.741 747.494 104.741 747.494L76.2599 749.686Z" fill="#2F2E41"/>
<path d="M90.1427 255.311C106.276 255.311 119.355 242.232 119.355 226.099C119.355 209.966 106.276 196.887 90.1427 196.887C74.0093 196.887 60.9307 209.966 60.9307 226.099C60.9307 242.232 74.0093 255.311 90.1427 255.311Z" fill="#FFB9B9"/>
<path d="M69.6162 239.008L70.1602 276.313L105.974 276.434C105.974 276.434 96.8852 247.234 100.956 241.124C105.027 235.014 69.6162 239.008 69.6162 239.008Z" fill="#FFB9B9"/>
<path d="M122.998 296.907C122.998 296.907 97.4382 264.044 77.7202 277.919C58.0022 291.794 50.6992 324.657 50.6992 324.657L55.0812 416.673C55.0812 416.673 66.0352 429.818 59.4632 438.582C52.8912 447.346 49.2392 445.155 54.3512 451.727C59.4632 458.299 65.3052 463.412 63.1142 465.602C60.9232 467.792 65.3052 469.253 65.3052 469.253L142.716 471.444C142.716 471.444 140.525 468.523 147.098 459.759C153.671 450.995 145.637 439.311 147.098 434.929C148.559 430.547 150.019 435.659 150.749 425.435C151.479 415.211 122.998 296.907 122.998 296.907Z" fill="#3F3D56"/>
<path d="M115.695 485.321C115.695 485.321 117.156 503.578 128.11 506.499C132.218 507.599 135.299 505.506 137.545 502.468C139.643 499.556 140.819 496.083 140.921 492.496C141.023 488.909 140.047 485.373 138.118 482.347L135.412 478.018L115.695 485.321Z" fill="#FFB9B9"/>
<path d="M48.1437 260.027C48.1437 260.027 47.4137 274.633 48.1437 276.827C48.8737 279.021 49.6047 281.209 48.1437 283.4C46.6827 285.591 47.4137 292.894 48.8737 293.624C50.3337 294.354 45.9527 300.924 47.4127 305.309C48.8727 309.694 50.3337 311.151 51.0637 312.609C51.7937 314.067 52.9707 316.686 52.9707 316.686C52.9707 316.686 74.4337 270.986 91.9597 281.936C109.486 292.886 123.36 296.542 123.36 296.542C123.36 296.542 113.87 245.421 48.1437 260.027Z" fill="#3F3D56"/>
<path d="M79.9105 293.986C79.9105 293.986 56.5415 296.177 58.0015 326.849C59.4615 357.521 55.8105 405.72 55.8105 405.72C55.8105 405.72 95.9765 467.064 102.549 471.446C109.121 475.828 109.849 475.097 109.122 478.746C108.395 482.395 107.661 485.319 110.583 488.24C112.307 489.976 114.275 491.453 116.425 492.622C116.425 492.622 139.794 484.589 137.603 477.286C135.412 469.983 125.188 458.299 125.188 458.299C125.188 458.299 107.661 429.818 106.931 425.436C106.201 421.054 106.201 421.785 104.01 419.594C101.819 417.403 95.9765 408.64 95.9765 404.258V390.384L102.1 316.233C102.377 313.213 102.013 310.168 101.031 307.299C100.048 304.43 98.4701 301.801 96.3995 299.585C92.9235 295.949 87.6705 293.055 79.9105 293.986Z" fill="#3F3D56"/>
<path d="M108.984 203.572C110.887 204.1 112.892 204.145 114.818 203.704C116.744 203.263 118.529 202.35 120.014 201.047C122.869 198.334 123.828 193.635 121.797 190.261C120.043 187.348 116.632 185.923 113.386 184.91C106.225 182.678 98.769 181.54 91.2688 181.536C87.6928 181.536 83.9598 181.836 80.8998 183.69C79.3858 184.605 78.0998 185.863 76.6068 186.806C73.8548 188.54 70.5498 189.117 67.5278 190.322C64.4379 191.578 61.6539 193.483 59.364 195.908C57.074 198.333 55.3317 201.221 54.2548 204.378C53.5618 206.518 53.1287 208.734 52.9648 210.978C52.4709 217.126 53.5573 223.299 56.1208 228.909C60.1958 237.794 67.9518 245.265 69.0468 254.978C73.2218 251.478 74.4468 245.595 77.6788 241.206C80.086 237.961 83.5225 235.629 87.4268 234.59C88.5179 234.446 89.5435 233.987 90.3788 233.271C90.9409 232.494 91.2622 231.569 91.3028 230.611L93.3028 216.18C93.7108 213.243 94.2618 210.033 96.5158 208.107C97.9296 207.055 99.5676 206.344 101.302 206.03C105.403 205.01 109.581 204.329 113.794 203.993" fill="#2F2E41"/>
<path opacity="0.1" d="M59.3643 416.152L100.364 469.352C100.364 469.352 62.6103 437.797 59.3643 416.152Z" fill="black"/>
<path opacity="0.1" d="M98.7132 357.249L98.3252 407.493L122.135 443.208L102.654 403.164L98.7132 357.249Z" fill="black"/>
<path d="M541.784 690.261L537.039 686.736C537.039 686.736 533.898 704.28 537.403 706.908C540.908 709.536 554.05 713.917 554.05 719.174C554.05 724.431 583.839 731.44 584.716 723.555C585.593 715.67 582.088 711.289 582.088 711.289C582.088 711.289 568.073 697.27 566.321 694.638C564.569 692.006 560.188 686.753 560.188 686.753L541.784 690.261Z" fill="#2F2E41"/>
<path d="M611.884 472.097C611.884 472.097 611.753 472.868 611.525 474.279C611.315 475.532 611.025 477.302 610.675 479.479C606.995 501.935 596.262 568.041 596.989 570.223C597.865 572.851 603.998 582.489 596.989 585.118C596.038 585.67 595.277 586.498 594.807 587.492C593.302 590.285 592.061 593.212 591.101 596.236C586.922 608.362 582.453 627.769 579.869 641.209C578.739 647.114 577.969 651.863 577.74 654.351C577.661 654.926 577.652 655.509 577.714 656.086C578.59 659.586 572.457 671.857 569.829 675.361C567.201 678.865 562.82 682.37 563.696 685.875C564.572 689.38 541.796 699.017 539.164 692.884C536.532 686.751 536.536 683.246 535.664 681.494C534.792 679.742 533.912 667.475 538.292 665.723C542.672 663.971 540.044 633.305 544.425 627.172C545.888 625.131 548.125 618.218 550.462 609.903C551.382 606.644 552.311 603.174 553.222 599.696C556.922 585.441 560.196 571.096 560.196 571.096L559.32 468.585L607.509 462.452L608.744 465.177L611.206 470.583L611.884 472.097Z" fill="#2F2E41"/>
<path d="M614.51 640.32C614.51 640.32 621.519 633.311 625.024 640.32C628.529 647.329 632.033 674.49 638.166 680.62C644.299 686.75 652.185 717.42 643.423 719.171C634.661 720.922 625.023 716.543 624.147 711.286C623.271 706.029 604.871 678.868 604.871 676.24C604.871 673.612 617.137 663.974 617.137 663.974L614.51 640.32Z" fill="#2F2E41"/>
<path d="M506.742 425.908C506.742 425.908 518.132 528.419 520.761 538.056C523.39 547.693 537.408 584.492 541.789 590.626C546.17 596.76 574.207 646.7 577.712 649.326C581.217 651.952 588.226 658.964 588.226 658.964C588.226 658.964 601.368 672.106 603.121 674.735C604.874 677.364 619.768 669.478 620.644 664.221C621.52 658.964 619.768 650.202 618.892 646.698C618.016 643.194 620.644 637.936 618.016 635.308C615.388 632.68 602.245 619.537 602.245 613.408C602.245 607.279 579.465 571.352 570.703 563.467C561.941 555.582 563.694 542.439 563.694 542.439V488.992L611.884 474.097C611.884 474.097 609.256 432.041 603.122 432.041C596.988 432.041 516.384 418.023 506.742 425.908Z" fill="#2F2E41"/>
<path d="M577.71 279.589C593.678 279.589 606.623 266.644 606.623 250.676C606.623 234.708 593.678 221.763 577.71 221.763C561.742 221.763 548.797 234.708 548.797 250.676C548.797 266.644 561.742 279.589 577.71 279.589Z" fill="#9F616A"/>
<path d="M568.073 273.456C568.073 273.456 564.573 286.598 560.188 290.103C555.803 293.608 571.578 308.503 571.578 308.503L601.367 310.255L606.624 293.608C606.624 293.608 596.986 274.332 599.615 262.066C602.244 249.8 568.073 273.456 568.073 273.456Z" fill="#9F616A"/>
<path d="M555.807 288.351C555.807 288.351 563.692 289.227 565.445 291.851C567.198 294.475 579.464 302.365 589.101 300.613C598.738 298.861 604.872 296.232 606.624 297.113C608.376 297.994 611.884 316.388 611.884 316.388L602.246 344.425L603.998 421.525L606.626 442.553C606.626 442.553 611.883 435.544 590.855 439.925C569.827 444.306 542.666 436.425 533.905 435.544C525.144 434.663 510.249 432.044 509.373 426.782C508.497 421.52 512.001 402.25 512.001 402.25L526.02 343.55L534.782 312.008L555.807 288.351Z" fill="#000409"/>
<path d="M564.094 284.397C564.094 284.397 556.683 280.466 554.054 283.971C551.425 287.476 518.131 292.733 518.131 295.361C518.131 297.989 511.122 368.961 512.874 375.092C514.626 381.223 509.374 388.234 509.374 388.234L503.241 414.519C503.241 414.519 486.594 464.46 493.603 466.212C500.612 467.964 506.745 466.212 509.374 466.212C512.003 466.212 511.126 432.918 518.136 424.156C525.146 415.394 534.783 393.49 536.536 389.11C538.289 384.73 560.192 324.274 559.316 317.265C558.44 310.256 564.094 284.397 564.094 284.397Z" fill="#D0CDE1"/>
<path d="M600.491 288.351C600.491 288.351 607.5 288.351 608.376 290.103C609.252 291.855 618.014 303.245 621.518 305.874C625.022 308.503 637.289 319.893 637.289 322.521C637.289 325.149 611.88 344.421 611.88 344.421C611.88 344.421 601.367 396.119 606.624 413.638C611.881 431.157 619.766 473.217 616.262 475.845C612.758 478.473 604.872 479.345 604.872 475.845C604.872 472.345 599.615 434.665 595.234 426.78C590.853 418.895 577.711 368.958 582.968 354.938C588.225 340.918 600.491 288.351 600.491 288.351Z" fill="#D0CDE1"/>
<path d="M484.838 375.091C484.838 375.091 483.962 402.252 493.6 416.271C499.851 425.642 505.135 435.622 509.371 446.06C509.371 446.06 525.142 441.679 527.771 436.422C530.4 431.165 547.047 435.546 547.047 433.794C547.047 432.042 526.895 423.28 525.147 421.528C523.399 419.776 517.262 419.776 513.757 416.271C510.252 412.766 509.376 404.881 509.376 404.881L505.876 382.101L484.838 375.091Z" fill="#9F616A"/>
<path d="M557.797 232.849C555.558 232.795 553.353 232.29 551.313 231.364C546.913 228.989 545.74 222.224 549.093 218.509C550.018 217.564 551.052 216.732 552.173 216.032L558.833 211.499C561.779 209.499 564.794 207.456 568.233 206.511C571.382 205.794 574.628 205.603 577.839 205.944C584.102 206.165 590.299 207.292 596.239 209.29C602.112 211.446 607.591 215.053 611.148 220.199C616.787 228.358 616.864 239.362 613.759 248.781C610.654 258.2 604.754 266.402 598.941 274.438L595.925 259.721C595.656 258.41 595.309 256.974 594.219 256.198C591.509 254.27 588.195 258.229 584.869 258.203C582.732 258.187 580.938 256.429 580.128 254.451C579.465 252.415 579.111 250.292 579.078 248.151C578.678 243.642 577.105 237.369 572.836 234.883C568.852 232.571 562.269 233.255 557.797 232.849Z" fill="#2F2E41"/>
<path opacity="0.1" d="M559.419 472.804C559.419 472.804 562.378 558.399 564.13 561.027C565.882 563.655 564.13 472.535 564.13 472.535L559.419 472.804Z" fill="black"/>
<path d="M525.141 295.36H518.132C518.132 295.36 488.343 335.66 491.847 338.292C495.351 340.924 491.847 347.93 491.847 347.93L484.838 361.072C484.838 361.072 476.076 368.957 478.705 370.71C481.334 372.463 484.838 379.472 484.838 379.472C484.838 379.472 502.361 376.844 507.618 387.357L518.984 373.011L525.141 295.36Z" fill="#D0CDE1"/>
<path d="M604.872 370.71C604.872 370.71 585.596 371.586 563.692 357.568L541.792 347.93C541.792 347.93 522.513 318.138 520.76 323.398C519.007 328.658 523.384 339.168 523.384 339.168C523.384 339.168 494.684 344.638 496.267 353.019C496.593 354.745 511.122 350.558 511.122 350.558C511.122 350.558 508.494 367.205 523.388 368.081C538.282 368.957 542.664 365.453 542.664 365.453C542.664 365.453 605.748 418.023 616.264 401.376C626.78 384.729 604.872 370.71 604.872 370.71Z" fill="#9F616A"/>
<path d="M627.652 319.017L637.29 322.517V348.802L640.79 354.059C640.79 354.059 639.914 364.573 637.29 367.201C634.666 369.829 629.405 368.953 631.157 375.086C632.21 379.085 632.507 383.245 632.033 387.352C632.033 387.352 616.262 407.504 615.386 404.875C614.51 402.246 602.243 369.838 600.491 369.838C598.739 369.838 618.014 319.021 618.014 319.021L627.652 319.017Z" fill="#D0CDE1"/>
<path d="M512.437 449.755C512.437 449.755 503.378 440.993 507.907 440.555C512.436 440.117 528.207 431.355 530.836 435.736C533.465 440.117 512.437 449.755 512.437 449.755Z" fill="#2F2E41"/>
<path d="M210.69 682.647C210.69 705.116 197.334 712.961 180.856 712.961C180.474 712.961 180.093 712.957 179.713 712.948C178.95 712.932 178.193 712.895 177.446 712.848C162.575 711.796 151.022 703.548 151.022 682.648C151.022 661.023 178.656 633.736 180.732 631.716L180.852 631.6C180.852 631.6 210.69 660.179 210.69 682.647Z" fill="#37BC9B"/>
<path d="M179.769 709.524L190.684 694.277L179.742 711.198L179.713 712.948C178.95 712.932 178.193 712.895 177.446 712.848L178.622 690.369L178.613 690.195L178.633 690.162L178.744 688.039L167.778 671.076L178.778 686.446L178.803 686.897L179.692 669.912L170.304 652.384L179.804 666.931L180.729 631.719V631.599V631.715L180.574 659.482L189.921 648.474L180.536 661.874L180.289 677.081L189.016 662.487L180.253 679.319L180.115 687.773L192.784 667.46L180.067 690.723L179.769 709.524Z" fill="#3F3D56"/>
</g>
<defs>
<clipPath id="clip0">
<rect width="713.367" height="779.275" fill="white"/>
</clipPath>
</defs>
</svg>
