<svg width="530" height="375" viewBox="0 0 530 375" fill="none" xmlns="http://www.w3.org/2000/svg">
<g clip-path="url(#clip0)">
<path opacity="0.129" d="M264.971 248.89C411.311 248.89 529.942 276.975 529.942 311.619C529.942 346.263 411.31 374.348 264.971 374.348C118.632 374.348 0 346.263 0 311.619C0 276.975 118.632 248.89 264.971 248.89Z" fill="#535461"/>
<path d="M64.8272 140.606C64.8272 140.606 89.5072 165.286 75.5772 201.924C61.6472 238.562 99.4612 299.448 99.4612 299.448C99.4612 299.448 99.0552 299.391 98.3052 299.255C47.6172 290.296 22.4262 232.325 50.6152 189.255C61.0942 173.241 69.6732 154.458 64.8272 140.606Z" fill="#FF0E0E"/>
<path d="M64.8272 140.606C64.8272 140.606 78.7582 170.856 64.8272 195.537C50.8962 220.218 62.4382 289.485 99.4612 299.437" stroke="#535461" stroke-width="2" stroke-miterlimit="10"/>
<path d="M20.8701 240.447C20.8701 240.447 49.0331 235.96 51.5841 261.202C54.1351 286.444 105.724 289.938 105.724 289.938C105.724 289.938 105.386 290.167 104.756 290.584C62.1941 318.533 21.4751 308.377 27.6121 271.25C29.8921 257.443 29.7091 243.57 20.8701 240.447Z" fill="#FF0E0E"/>
<path opacity="0.2" d="M20.8701 240.447C20.8701 240.447 49.0331 235.96 51.5841 261.202C54.1351 286.444 105.724 289.938 105.724 289.938C105.724 289.938 105.386 290.167 104.756 290.584C62.1941 318.533 21.4751 308.377 27.6121 271.25C29.8921 257.443 29.7091 243.57 20.8701 240.447Z" fill="#F5F5F5"/>
<path d="M20.8701 240.446C20.8701 240.446 42.7341 245.246 40.9331 265.121C39.1321 284.996 73.3961 308.849 105.749 289.937" stroke="#535461" stroke-width="2" stroke-miterlimit="10"/>
<path d="M315.54 287.698C315.54 287.698 336.94 285.998 343.094 293.362C349.248 300.726 371.236 317.6 362.163 321.362C353.09 325.124 304.379 310.112 304.379 310.112L315.54 287.698Z" fill="#FFB9B9"/>
<path d="M227.578 31.4669C227.396 29.0079 226.404 26.6784 224.757 24.8428C223.111 23.0071 220.903 21.7686 218.478 21.3209C215.219 20.7999 211.578 21.721 208.778 19.968C207.587 19.0654 206.515 18.0161 205.587 16.8449C201.587 12.5709 195.587 10.5979 189.736 10.4259C183.885 10.2539 178.117 11.67 172.495 13.289C161.271 16.522 149.413 21.2639 143.442 31.3009C134.363 46.5799 142.742 67.1739 135.561 83.4309C132.438 90.5309 126.482 96.3309 124.546 103.848C121.946 113.89 127.076 124.077 131.027 133.666C134.571 142.266 137.264 151.193 139.065 160.319C140.653 168.377 141.538 176.753 139.747 184.786C138.961 188.3 137.665 191.876 138.362 195.406C139.403 200.747 144.567 204.115 149.262 206.859L150.485 207.577C157.252 211.533 164.212 215.577 171.964 216.552C176.799 217.275 181.738 216.388 186.019 214.027C188.133 212.825 189.933 211.138 191.27 209.106C192.606 207.073 193.442 204.753 193.708 202.335C194.108 196.864 191.058 191.741 190.402 186.291C190.251 185.47 190.314 184.624 190.584 183.834C191.133 182.841 191.953 182.023 192.947 181.476C199.575 176.707 204.733 170.175 207.836 162.622C210.939 155.07 211.862 146.798 210.501 138.747C208.492 127.847 202.245 117.008 205.269 106.341C206.94 100.448 211.245 95.6739 213.661 90.0469C216.214 84.0373 216.534 77.3124 214.561 71.0879C213.181 66.7879 210.683 62.4929 211.542 58.0739C213.057 50.2239 223.515 47.7199 227.466 40.7649C228.852 38.1248 229.235 35.0724 228.547 32.1713C227.858 29.2702 226.143 26.7163 223.718 24.981" fill="#B96B6B"/>
<path opacity="0.1" d="M227.578 31.4669C227.396 29.0079 226.404 26.6784 224.757 24.8428C223.111 23.0071 220.903 21.7686 218.478 21.3209C215.219 20.7999 211.578 21.721 208.778 19.968C207.587 19.0654 206.515 18.0161 205.587 16.8449C201.587 12.5709 195.587 10.5979 189.736 10.4259C183.885 10.2539 178.117 11.67 172.495 13.289C161.271 16.522 149.413 21.2639 143.442 31.3009C134.363 46.5799 142.742 67.1739 135.561 83.4309C132.438 90.5309 126.482 96.3309 124.546 103.848C121.946 113.89 127.076 124.077 131.027 133.666C134.571 142.266 137.264 151.193 139.065 160.319C140.653 168.377 141.538 176.753 139.747 184.786C138.961 188.3 137.665 191.876 138.362 195.406C139.403 200.747 144.567 204.115 149.262 206.859L150.485 207.577C157.252 211.533 164.212 215.577 171.964 216.552C176.799 217.275 181.738 216.388 186.019 214.027C188.133 212.825 189.933 211.138 191.27 209.106C192.606 207.073 193.442 204.753 193.708 202.335C194.108 196.864 191.058 191.741 190.402 186.291C190.251 185.47 190.314 184.624 190.584 183.834C191.133 182.841 191.953 182.023 192.947 181.476C199.575 176.707 204.733 170.175 207.836 162.622C210.939 155.07 211.862 146.798 210.501 138.747C208.492 127.847 202.245 117.008 205.269 106.341C206.94 100.448 211.245 95.6739 213.661 90.0469C216.214 84.0373 216.534 77.3124 214.561 71.0879C213.181 66.7879 210.683 62.4929 211.542 58.0739C213.057 50.2239 223.515 47.7199 227.466 40.7649C228.852 38.1248 229.235 35.0724 228.547 32.1713C227.858 29.2702 226.143 26.7163 223.718 24.981" fill="black"/>
<path d="M249.094 304.335H137.171V244.465L199.64 268.411L249.094 244.465V304.335Z" fill="#777B9B"/>
<path opacity="0.1" d="M249.094 304.335H137.171V244.465L199.64 268.411L249.094 244.465V304.335Z" fill="black"/>
<path d="M235.559 310.083C235.559 310.083 215.259 314.935 213.174 323.826C211.089 332.717 225.147 331.91 225.147 331.91C225.147 331.91 244.929 327.865 247.532 311.696C250.135 295.527 235.559 310.083 235.559 310.083Z" fill="#FFB9B9"/>
<path opacity="0.1" d="M235.559 310.083C235.559 310.083 215.259 314.935 213.174 323.826C211.089 332.717 225.147 331.91 225.147 331.91C225.147 331.91 244.929 327.865 247.532 311.696C250.135 295.527 235.559 310.083 235.559 310.083Z" fill="black"/>
<path d="M181.04 337.184C181.04 337.184 161.899 338.428 161.64 353.957C161.604 356.039 181.578 356.643 205.29 343.894C229.002 331.145 230.614 329.801 230.614 329.801C230.614 329.801 221.452 315.038 214.997 313.028C208.542 311.018 181.04 337.184 181.04 337.184Z" fill="#CBCDDA"/>
<path d="M68.976 277.776C68.976 277.776 47.112 295.996 87.717 321.504C128.322 347.012 167.365 342.327 167.365 342.327C167.365 342.327 209.719 337.314 216.132 317.433C222.545 297.552 184.544 280.899 184.544 280.899C184.544 280.899 142.898 280.899 124.158 268.926C105.418 256.953 68.976 277.776 68.976 277.776Z" fill="#777B9B"/>
<path d="M187.146 246.542C187.146 246.542 205.887 257.474 231.395 246.542C251.021 238.13 294.072 241.43 312.88 243.419C317.203 243.838 321.301 245.541 324.648 248.308C327.995 251.075 330.438 254.781 331.662 258.948C333.63 265.908 332.183 274.461 320.407 282.478C294.378 300.178 276.158 305.383 269.391 312.671C262.624 319.959 243.362 323.603 243.362 323.603C243.362 323.603 218.895 319.959 218.895 314.753C218.895 309.547 241.285 284.039 241.285 284.039C241.285 284.039 208.485 314.232 174.652 273.628C140.819 233.024 187.146 246.542 187.146 246.542Z" fill="#777B9B"/>
<path d="M177.776 173.141L111.663 127.851C111.663 127.851 143.376 106.347 146.103 87.128C146.722 83.3812 145.954 79.5375 143.943 76.3159C130.929 55.4929 189.753 76.3159 189.753 76.3159C190.133 81.7382 190.872 87.1294 191.965 92.4539C194.521 105.13 199.914 122.012 211.096 130.454C230.353 145.028 177.776 173.141 177.776 173.141Z" fill="#FFB9B9"/>
<path opacity="0.1" d="M191.962 92.4279C184.769 96.6122 176.416 98.357 168.15 97.4017C159.884 96.4465 152.148 92.8424 146.1 87.128C146.718 83.3812 145.95 79.5375 143.94 76.3159C130.926 55.4929 189.75 76.3159 189.75 76.3159C190.131 81.7312 190.87 87.1153 191.962 92.433V92.4279Z" fill="black"/>
<path d="M172.569 96.6219C193.844 96.6219 211.091 79.375 211.091 58.0999C211.091 36.8248 193.844 19.5779 172.569 19.5779C151.294 19.5779 134.047 36.8248 134.047 58.0999C134.047 79.375 151.294 96.6219 172.569 96.6219Z" fill="#FFB9B9"/>
<path opacity="0.1" d="M196.517 109.112C196.517 109.112 188.708 154.922 175.694 152.319C162.68 149.716 122.075 103.906 122.075 103.906C122.075 103.906 79.909 117.961 86.675 152.319C93.441 186.677 100.21 215.829 86.154 226.761C72.098 237.693 63.249 288.709 63.249 288.709C63.249 288.709 108.018 269.968 131.444 277.256C154.87 284.544 178.816 280.9 184.544 274.133C190.272 267.366 198.599 252.789 198.599 252.789C198.599 252.789 186.626 235.089 192.352 226.24C198.078 217.391 205.366 216.87 209.531 191.882C213.696 166.894 246.492 158.045 240.245 143.989C233.998 129.933 222.025 109.112 196.517 109.112Z" fill="black"/>
<path d="M196.517 107.029C196.517 107.029 188.708 152.839 175.694 150.236C162.68 147.633 122.075 101.823 122.075 101.823C122.075 101.823 79.909 115.878 86.675 150.236C93.441 184.594 100.21 213.746 86.154 224.678C72.098 235.61 63.249 286.626 63.249 286.626C63.249 286.626 108.018 267.885 131.444 275.173C154.87 282.461 178.816 278.817 184.544 272.05C190.272 265.283 198.599 250.707 198.599 250.707C198.599 250.707 186.626 233.007 192.352 224.158C198.078 215.309 205.366 214.788 209.531 189.8C213.696 164.812 246.492 155.963 240.245 141.907C233.998 127.851 222.025 107.029 196.517 107.029Z" fill="#CBCDDA"/>
<path d="M227.75 294.955C227.75 294.955 248.573 289.749 255.861 295.996C263.149 302.243 287.616 315.257 279.287 320.463C270.958 325.669 220.462 318.901 220.462 318.901L227.75 294.955Z" fill="#FFB9B9"/>
<g opacity="0.05">
<path opacity="0.05" d="M170.488 150.236C171.705 150.465 172.963 150.282 174.064 149.715C159.602 144.134 122.074 101.822 122.074 101.822C122.074 101.822 120.596 102.317 118.232 103.342C125.406 111.313 158.895 147.92 170.488 150.236Z" fill="black"/>
<path opacity="0.05" d="M235.039 141.907C249.396 136.384 208.49 164.812 204.325 189.8C200.16 214.788 192.872 215.308 187.146 224.158C181.42 233.008 193.393 250.707 193.393 250.707C193.393 250.707 185.064 265.283 179.338 272.051C176.058 275.929 166.797 278.772 155.085 279.131C169.213 279.579 180.791 276.481 184.544 272.051C190.27 265.284 198.599 250.707 198.599 250.707C198.599 250.707 186.626 233.007 192.352 224.158C198.078 215.309 205.366 214.788 209.531 189.8C213.696 164.812 231.655 143.209 235.039 141.907Z" fill="black"/>
<path opacity="0.05" d="M63.651 284.456C63.386 285.846 63.251 286.632 63.251 286.632C63.251 286.632 92.361 274.445 115.923 273.55C97.738 272.795 74.239 280.53 63.651 284.456Z" fill="black"/>
</g>
<path opacity="0.1" d="M93.1821 227.021C93.1821 227.021 133.266 231.706 142.116 244.2C150.966 256.694 191.961 236.943 191.961 236.943" fill="black"/>
<path opacity="0.1" d="M132.486 155.963C132.486 155.963 149.665 218.952 155.912 226.763C162.159 234.574 210.572 298.602 233.477 294.437C233.477 294.437 226.71 323.589 222.024 324.63C222.024 324.63 174.652 277.778 158.514 278.299C158.514 278.299 128.841 253.832 125.714 241.859C122.587 229.886 97.6029 190.843 97.6029 190.843C97.6029 190.843 85.1089 163.253 90.3149 151.28C95.5209 139.307 123.115 144.51 132.486 155.963Z" fill="black"/>
<path d="M133.007 154.922C133.007 154.922 150.186 217.911 156.433 225.722C162.68 233.533 211.093 297.561 233.998 293.396C233.998 293.396 227.231 322.548 222.545 323.589C222.545 323.589 175.173 276.737 159.035 277.258C159.035 277.258 129.362 252.791 126.235 240.818C123.108 228.845 98.1239 189.802 98.1239 189.802C98.1239 189.802 85.6299 162.212 90.8359 150.238C96.0419 138.264 123.636 143.469 133.007 154.922Z" fill="#CBCDDA"/>
<path opacity="0.1" d="M200.508 21.5769C200.326 19.1179 199.334 16.7884 197.687 14.9528C196.041 13.1171 193.833 11.8786 191.408 11.4309C188.149 10.9099 184.508 11.8309 181.708 10.0769C180.517 9.17433 179.445 8.12504 178.517 6.95394C174.517 2.67994 168.517 0.706952 162.666 0.534952C156.815 0.362952 151.047 1.77894 145.425 3.39794C134.201 6.63094 122.343 11.373 116.372 21.41C107.293 36.689 115.672 57.2829 108.491 73.5399C105.368 80.6399 99.412 86.4399 97.476 93.9569C94.876 103.999 100.006 114.186 103.957 123.775C107.502 132.375 110.194 141.302 111.995 150.428C113.583 158.486 114.468 166.862 112.677 174.895C111.891 178.409 110.595 181.985 111.292 185.515C112.333 190.856 117.497 194.224 122.192 196.968L123.415 197.686C130.182 201.642 137.142 205.686 144.894 206.661C149.729 207.384 154.668 206.497 158.949 204.136C161.064 202.934 162.863 201.247 164.2 199.215C165.536 197.182 166.372 194.862 166.638 192.444C167.038 186.973 163.988 181.85 163.332 176.4C163.181 175.579 163.244 174.733 163.514 173.943C164.064 172.95 164.883 172.132 165.877 171.585C172.505 166.816 177.663 160.284 180.766 152.731C183.869 145.179 184.792 136.907 183.431 128.856C181.422 117.956 175.175 107.117 178.199 96.4499C179.87 90.5569 184.175 85.7829 186.591 80.1559C189.144 74.1463 189.464 67.4214 187.491 61.1969C186.111 56.8969 183.613 52.6019 184.472 48.1829C185.987 40.333 196.445 37.8289 200.396 30.8739C201.782 28.2338 202.166 25.1814 201.477 22.2803C200.788 19.3792 199.073 16.8253 196.648 15.0899" fill="black"/>
<path d="M199.467 21.0559C199.285 18.5969 198.293 16.2674 196.646 14.4318C195 12.5961 192.792 11.3576 190.367 10.91C187.108 10.389 183.467 11.3099 180.667 9.55595C179.476 8.65335 178.404 7.60406 177.476 6.43295C173.476 2.15895 167.476 0.185956 161.625 0.0139564C155.774 -0.158044 150.006 1.25795 144.384 2.87695C133.16 6.10995 121.302 10.852 115.331 20.889C106.252 36.168 114.631 56.7619 107.45 73.0189C104.327 80.1189 98.371 85.919 96.435 93.436C93.835 103.478 98.965 113.665 102.916 123.254C106.461 131.854 109.153 140.781 110.954 149.907C112.542 157.965 113.427 166.341 111.636 174.374C110.85 177.888 109.554 181.464 110.251 184.994C111.292 190.335 116.456 193.703 121.151 196.447L122.374 197.165C129.141 201.121 136.101 205.165 143.853 206.14C148.688 206.863 153.627 205.976 157.908 203.615C160.023 202.413 161.822 200.726 163.159 198.694C164.495 196.661 165.331 194.341 165.597 191.923C165.997 186.452 162.947 181.329 162.291 175.879C162.14 175.058 162.203 174.212 162.473 173.422C163.023 172.429 163.842 171.611 164.836 171.064C171.464 166.295 176.622 159.763 179.725 152.21C182.828 144.658 183.751 136.386 182.39 128.335C180.381 117.435 174.134 106.596 177.158 95.9289C178.829 90.0359 183.134 85.2619 185.55 79.6349C188.103 73.6253 188.423 66.9004 186.45 60.6759C185.071 56.3759 182.572 52.081 183.431 47.662C184.946 39.812 195.404 37.3079 199.355 30.3529C200.741 27.7128 201.125 24.6604 200.436 21.7593C199.747 18.8582 198.032 16.3043 195.607 14.5689" fill="#B96B6B"/>
<path d="M234.882 351.849C235.836 351.071 236.532 350.022 236.876 348.84C237.031 348.246 236.976 347.617 236.721 347.058C236.466 346.5 236.026 346.046 235.476 345.774C234.195 345.285 232.826 346.174 231.79 347.074C230.754 347.974 229.562 348.995 228.203 348.802C228.901 348.169 229.424 347.366 229.72 346.471C230.015 345.576 230.074 344.619 229.89 343.695C229.831 343.312 229.669 342.952 229.421 342.654C228.708 341.894 227.421 342.222 226.568 342.821C223.861 344.726 223.106 348.402 223.091 351.712C222.944 350.503 222.926 349.281 223.039 348.068C223.091 347.457 222.993 346.843 222.754 346.278C222.514 345.714 222.141 345.217 221.665 344.83C221.026 344.486 220.308 344.316 219.583 344.335C218.98 344.248 218.366 344.29 217.78 344.457C217.194 344.623 216.65 344.912 216.183 345.303C215.142 346.403 215.418 348.265 216.318 349.468C217.327 350.599 218.518 351.552 219.842 352.289C220.852 352.889 221.713 353.71 222.362 354.689C222.438 354.825 222.501 354.968 222.549 355.116H230.165C231.877 354.246 233.464 353.148 234.881 351.852L234.882 351.849Z" fill="#FF0E0E"/>
<path opacity="0.1" d="M76.3681 56.096C87.1006 56.096 95.8011 47.3955 95.8011 36.663C95.8011 25.9304 87.1006 17.23 76.3681 17.23C65.6355 17.23 56.9351 25.9304 56.9351 36.663C56.9351 47.3955 65.6355 56.096 76.3681 56.096Z" fill="#FF0E0E"/>
<path d="M76.368 53.1549C85.4763 53.1549 92.86 45.7712 92.86 36.6629C92.86 27.5546 85.4763 20.1709 76.368 20.1709C67.2597 20.1709 59.876 27.5546 59.876 36.6629C59.876 45.7712 67.2597 53.1549 76.368 53.1549Z" fill="#FF0E0E"/>
<path opacity="0.1" d="M76.3669 37.8389C77.0164 37.8389 77.5429 37.3124 77.5429 36.6629C77.5429 36.0135 77.0164 35.4869 76.3669 35.4869C75.7174 35.4869 75.1909 36.0135 75.1909 36.6629C75.1909 37.3124 75.7174 37.8389 76.3669 37.8389Z" fill="#FF0E0E"/>
<path opacity="0.1" d="M83.4372 24.2999L76.9512 35.6479" stroke="#FF0E0E" stroke-miterlimit="10"/>
<path opacity="0.1" d="M83.7292 40.495L77.4302 37.179" stroke="#FF0E0E" stroke-miterlimit="10"/>
<path d="M300.576 324.92H248.081C245.696 324.92 243.763 326.853 243.763 329.238C243.763 331.623 245.696 333.556 248.081 333.556H300.576C302.961 333.556 304.894 331.623 304.894 329.238C304.894 326.853 302.961 324.92 300.576 324.92Z" fill="#535461"/>
<g opacity="0.7">
<path opacity="0.7" d="M404.678 228.619H309.189C293.603 228.619 280.969 241.253 280.969 256.839V305.45C280.969 321.035 293.603 333.67 309.189 333.67H404.678C420.263 333.67 432.898 321.035 432.898 305.45V256.839C432.898 241.253 420.263 228.619 404.678 228.619Z" fill="url(#paint0_linear)"/>
</g>
<path d="M400.764 230.556H310.521C295.698 230.556 283.681 242.573 283.681 257.396V306.826C283.681 321.649 295.698 333.666 310.521 333.666H400.764C415.587 333.666 427.604 321.649 427.604 306.826V257.396C427.604 242.573 415.587 230.556 400.764 230.556Z" fill="#3E3F49"/>
<path d="M402.757 230.556H312.514C297.691 230.556 285.674 242.573 285.674 257.396V306.826C285.674 321.649 297.691 333.666 312.514 333.666H402.757C417.58 333.666 429.597 321.649 429.597 306.826V257.396C429.597 242.573 417.58 230.556 402.757 230.556Z" fill="#535461"/>
<path d="M364.359 286.049C366.927 286.049 369.008 283.968 369.008 281.4C369.008 278.832 366.927 276.751 364.359 276.751C361.791 276.751 359.71 278.832 359.71 281.4C359.71 283.968 361.791 286.049 364.359 286.049Z" fill="#E0E0E0"/>
<path d="M115.858 327.445C115.858 327.445 107.591 324.645 103.614 331.927C102.565 333.902 102.031 336.109 102.062 338.345C102.093 340.581 102.688 342.773 103.791 344.718C106.391 349.44 111.791 355.572 122.011 355.025C130.663 354.562 133.542 347.961 134.323 341.818C134.623 339.515 134.326 337.173 133.462 335.017C132.597 332.861 131.194 330.964 129.385 329.506C127.577 328.048 125.425 327.079 123.135 326.691C120.845 326.304 118.494 326.51 116.306 327.292L115.858 327.445Z" fill="#FF0E0E"/>
<path opacity="0.1" d="M105.536 345.373C104.433 343.428 103.838 341.236 103.807 339.001C103.776 336.765 104.31 334.558 105.359 332.583C109.336 325.295 117.603 328.101 117.603 328.101L118.025 327.95C121.177 326.81 124.642 326.888 127.739 328.169C126.03 327.151 124.116 326.525 122.135 326.336C120.155 326.147 118.157 326.4 116.286 327.076L115.864 327.227C115.864 327.227 107.597 324.427 103.62 331.709C102.571 333.684 102.037 335.891 102.068 338.127C102.099 340.363 102.693 342.555 103.797 344.5C105.844 348.414 109.143 351.53 113.167 353.35C109.941 351.44 107.301 348.682 105.535 345.375L105.536 345.373Z" fill="white"/>
<path opacity="0.2" d="M111.59 330.948C111.59 330.948 114.656 333.358 122.095 330.948H111.59Z" fill="black"/>
<path d="M110.934 313.436C110.934 313.436 116.187 327.663 115.749 331.385L119.914 330.948C119.914 330.948 112.907 318.454 114.661 313.436H110.934Z" fill="#FF0E0E"/>
<path opacity="0.2" d="M110.934 313.436C110.934 313.436 116.187 327.663 115.749 331.385L119.914 330.948C119.914 330.948 112.907 318.454 114.661 313.436H110.934Z" fill="black"/>
<path d="M132.376 314.628C132.376 314.628 124.109 310.401 120.403 313.894C116.697 317.387 116.134 326.315 116.134 326.315C116.134 326.315 129.622 328.168 132.376 314.628Z" fill="#FF0E0E"/>
<path opacity="0.1" d="M132.376 314.628C132.376 314.628 124.109 310.401 120.403 313.894C116.697 317.387 116.134 326.315 116.134 326.315C116.134 326.315 129.622 328.168 132.376 314.628Z" fill="white"/>
<path d="M116.14 326.315C116.14 326.315 118.311 315.95 132.377 314.628" stroke="#FF0E0E" stroke-miterlimit="10"/>
</g>
<defs>
<linearGradient id="paint0_linear" x1="356.933" y1="333.67" x2="356.933" y2="228.619" gradientUnits="userSpaceOnUse">
<stop stop-color="#808080" stop-opacity="0.251"/>
<stop offset="0.54" stop-color="#808080" stop-opacity="0.122"/>
<stop offset="1" stop-color="#808080" stop-opacity="0.102"/>
</linearGradient>
<clipPath id="clip0">
<rect width="529.942" height="374.348" fill="white"/>
</clipPath>
</defs>
</svg>
