<svg width="966" height="691" viewBox="0 0 966 691" fill="none" xmlns="http://www.w3.org/2000/svg">
<g clip-path="url(#clip0)">
<path d="M103.352 576.32C103.352 615.238 80.216 628.827 51.676 628.827C23.136 628.827 0 615.238 0 576.32C0 537.402 51.676 487.891 51.676 487.891C51.676 487.891 103.352 537.401 103.352 576.32Z" fill="#F2F2F2"/>
<path d="M49.794 622.874L50.323 590.303L72.349 550.008L50.406 585.193L50.644 570.548L65.824 541.4L50.707 566.672L51.135 540.331L67.39 517.123L51.2 536.19L51.467 487.89L49.787 551.828L49.925 549.191L33.4 523.9L49.661 554.26L48.121 583.678L48.076 582.897L29.024 556.272L48.024 585.651L47.831 589.33L47.797 589.385L47.813 589.685L43.9 664.322H49.12L49.746 625.772L68.694 596.464L49.794 622.874Z" fill="#8CC152"/>
<path d="M510.795 76.265C646.47 184.373 668.816 382.001 560.707 517.673C452.598 653.345 123.339 741.017 119.299 567.584C115.233 393.041 25.418 229.473 69.387 126.176C137.33 -33.444 375.121 -31.844 510.795 76.265Z" fill="#F2F2F2"/>
<path d="M150.353 690.003C229.882 690.003 294.353 679.258 294.353 666.003C294.353 652.748 229.882 642.003 150.353 642.003C70.824 642.003 6.35303 652.748 6.35303 666.003C6.35303 679.258 70.824 690.003 150.353 690.003Z" fill="#AAB2AB"/>
<path d="M886.762 669.775C925.927 669.775 957.676 664.483 957.676 657.956C957.676 651.429 925.927 646.137 886.762 646.137C847.597 646.137 815.848 651.429 815.848 657.956C815.848 664.483 847.597 669.775 886.762 669.775Z" fill="#3F3D56"/>
<path d="M965.353 160.003H143.353V604.003H965.353V160.003Z" fill="#3F3D56"/>
<path d="M965.353 124.003H143.353V165.003H965.353V124.003Z" fill="#3F3D56"/>
<path d="M163.353 149.003C167.219 149.003 170.353 145.869 170.353 142.003C170.353 138.137 167.219 135.003 163.353 135.003C159.487 135.003 156.353 138.137 156.353 142.003C156.353 145.869 159.487 149.003 163.353 149.003Z" fill="white"/>
<path d="M183.353 149.003C187.219 149.003 190.353 145.869 190.353 142.003C190.353 138.137 187.219 135.003 183.353 135.003C179.487 135.003 176.353 138.137 176.353 142.003C176.353 145.869 179.487 149.003 183.353 149.003Z" fill="white"/>
<path d="M203.353 149.003C207.219 149.003 210.353 145.869 210.353 142.003C210.353 138.137 207.219 135.003 203.353 135.003C199.487 135.003 196.353 138.137 196.353 142.003C196.353 145.869 199.487 149.003 203.353 149.003Z" fill="white"/>
<path opacity="0.1" d="M965.353 160.003H143.353V165.003H965.353V160.003Z" fill="black"/>
<path opacity="0.3" d="M352.853 230.503H190.853V403.503H352.853V230.503Z" fill="#6C63FF"/>
<path d="M201.853 218.503H363.853V391.503H201.853V218.503Z" fill="#4A89DC"/>
<path opacity="0.3" d="M909.396 227.728H784.853V360.728H909.396V227.728Z" fill="#6C63FF"/>
<path d="M917.852 218.503H793.309V351.503H917.852V218.503Z" fill="#4A89DC"/>
<path opacity="0.3" d="M909.396 412.503H784.853V545.503H909.396V412.503Z" fill="#6C63FF"/>
<path d="M793.309 403.277H917.852V536.277H793.309V403.277Z" fill="#4A89DC"/>
<path d="M729.853 218.503H420.853V230.503H729.853V218.503Z" fill="#64C7CC"/>
<path d="M729.853 253.503H420.853V265.503H729.853V253.503Z" fill="#64C7CC"/>
<path d="M729.853 288.503H420.853V300.503H729.853V288.503Z" fill="#64C7CC"/>
<path d="M729.853 323.503H420.853V335.503H729.853V323.503Z" fill="#64C7CC"/>
<path d="M729.853 358.503H420.853V370.503H729.853V358.503Z" fill="#64C7CC"/>
<path d="M729.853 393.503H420.853V405.503H729.853V393.503Z" fill="#64C7CC"/>
<path d="M729.853 428.503H420.853V440.503H729.853V428.503Z" fill="#64C7CC"/>
<path d="M729.853 463.503H420.853V475.503H729.853V463.503Z" fill="#64C7CC"/>
<path d="M729.853 498.503H420.853V510.503H729.853V498.503Z" fill="#64C7CC"/>
<path d="M729.853 533.503H420.853V545.503H729.853V533.503Z" fill="#64C7CC"/>
<path d="M126.339 312.882C138.213 312.882 147.839 303.256 147.839 291.382C147.839 279.508 138.213 269.882 126.339 269.882C114.465 269.882 104.839 279.508 104.839 291.382C104.839 303.256 114.465 312.882 126.339 312.882Z" fill="#A0616A"/>
<path d="M112.427 301.501C112.427 301.501 112.427 324.266 108.633 326.795C104.839 329.324 138.986 331.854 138.986 331.854V302.764L112.427 301.501Z" fill="#A0616A"/>
<path d="M70.691 427.97C70.691 427.97 94.721 455.794 99.779 455.794C104.837 455.794 109.897 436.823 109.897 436.823L85.867 419.117L70.691 427.97Z" fill="#A0616A"/>
<path d="M190.839 302.764L194.633 276.205C194.633 276.205 197.162 239.528 204.751 248.381C212.34 257.234 207.28 277.469 207.28 277.469C207.28 277.469 211.074 306.557 207.28 310.351C203.486 314.145 190.839 302.764 190.839 302.764Z" fill="#A0616A"/>
<path d="M169.339 445.676L101.045 439.352C101.045 439.352 92.192 481.087 94.721 497.529C97.25 513.971 98.515 560.765 98.515 560.765C98.515 560.765 101.044 645.501 104.839 650.559C108.634 655.617 121.28 654.353 125.074 656.883C128.868 659.413 135.192 651.824 135.192 650.559C135.192 649.294 127.604 649.294 131.398 641.706C135.192 634.118 121.276 612.618 125.076 602.501C128.876 592.384 135.194 578.472 131.4 573.413C127.606 568.354 133.929 503.854 133.929 503.854C133.929 503.854 165.547 549.384 165.547 569.619C165.547 589.854 163.018 636.649 161.753 641.708C160.488 646.767 159.224 648.032 161.753 651.826C164.282 655.62 166.812 659.414 165.547 660.679C164.282 661.944 188.312 660.679 188.312 653.091C188.312 645.503 187.047 645.503 189.577 639.179C192.107 632.855 193.371 556.973 193.371 556.973L169.339 445.676Z" fill="#2F2E41"/>
<path d="M108.633 317.94L104.839 325.528C104.839 325.528 64.368 338.175 63.104 364.734L97.251 421.646C97.251 421.646 99.78 425.44 98.516 427.97C97.252 430.5 95.987 429.235 97.251 433.029C98.515 436.823 98.516 435.558 98.516 438.088C98.516 440.618 94.722 439.353 98.516 440.617C102.31 441.881 97.251 440.617 111.163 444.411C125.075 448.205 166.81 446.94 166.81 446.94L159.222 373.587L166.81 358.411L156.692 328.058C156.692 328.058 150.368 326.793 146.574 329.323C142.78 331.853 137.721 326.794 137.721 326.794C137.721 326.794 131.398 317.94 108.633 317.94Z" fill="#575A89"/>
<path d="M150.368 329.323L156.692 328.058C156.692 328.058 181.986 320.47 183.251 314.146C184.516 307.822 190.839 300.234 190.839 300.234C190.839 300.234 211.074 295.175 209.81 311.616C208.546 328.057 203.486 333.116 200.957 335.646C198.428 338.176 170.604 358.411 165.545 358.411C160.486 358.411 150.368 329.323 150.368 329.323Z" fill="#575A89"/>
<path d="M65.633 359.676L63.104 364.735L61.839 410.265C61.839 410.265 54.251 415.324 58.045 417.853C61.839 420.382 70.692 431.765 73.222 431.765C75.752 431.765 89.663 425.441 89.663 422.912C89.663 420.383 87.134 397.618 87.134 397.618L65.633 359.676Z" fill="#575A89"/>
<path d="M112.427 650.559C112.427 650.559 112.427 663.206 111.162 665.736C109.897 668.266 107.368 680.913 114.956 680.913C119.303 680.975 123.614 680.113 127.603 678.384C127.603 678.384 127.603 670.796 131.397 669.531C135.191 668.266 144.044 658.149 140.25 655.619C136.456 653.089 128.868 650.56 128.868 650.56L112.427 650.559Z" fill="#2F2E41"/>
<path d="M166.81 656.883C166.81 656.883 159.222 674.589 166.81 675.854C174.398 677.119 184.516 675.854 185.781 673.325C187.046 670.796 189.575 668.266 192.105 669.531C194.635 670.796 216.134 655.619 208.546 653.09C204.032 651.578 199.148 651.578 194.634 653.09L187.046 649.296L166.81 656.883Z" fill="#2F2E41"/>
<path d="M129.057 315.079C129.416 315.057 129.766 314.96 130.086 314.795C130.601 314.38 130.943 313.788 131.045 313.135L133.628 303.984C134.608 300.512 136.182 296.456 139.715 295.722C140.456 295.673 141.18 295.48 141.847 295.155C142.234 294.791 142.538 294.347 142.737 293.855C142.937 293.362 143.028 292.832 143.004 292.301L144.111 280.473C144.411 277.273 144.694 273.95 143.579 270.938C141.934 266.495 137.422 263.57 132.76 262.729C128.098 261.888 123.295 262.829 118.76 264.188C111.876 266.25 104.747 269.801 101.76 276.335C100.028 280.118 99.922 284.435 100.153 288.586C100.391 292.863 100.986 297.224 102.953 301.03C104.046 302.998 105.315 304.863 106.744 306.602C108.879 309.365 111.498 314.768 115.031 315.802C119.005 316.962 125.02 315.601 129.057 315.079Z" fill="#2F2E41"/>
<path d="M830.105 583.572C830.105 621.601 853.962 652.372 883.446 652.372L830.105 583.572Z" fill="#2F2E41"/>
<path d="M883.445 652.374C883.445 613.918 910.068 582.799 942.97 582.799L883.445 652.374Z" fill="#6C63FF"/>
<path d="M849.431 587.019C849.431 623.143 864.644 652.373 883.445 652.373L849.431 587.019Z" fill="#6C63FF"/>
<path d="M883.445 652.374C883.445 603.235 914.218 563.474 952.245 563.474L883.445 652.374Z" fill="#2F2E41"/>
<path d="M872.224 652.859C872.224 652.859 879.789 652.626 882.068 651.003C884.347 649.38 893.704 647.441 894.268 650.045C894.832 652.649 905.636 662.994 897.096 663.063C888.556 663.132 877.252 661.733 874.977 660.347C872.702 658.961 872.224 652.859 872.224 652.859Z" fill="#A8A8A8"/>
<path opacity="0.2" d="M897.25 662.156C888.71 662.225 877.406 660.826 875.131 659.44C873.398 658.384 872.708 654.597 872.477 652.85L872.224 652.86C872.224 652.86 872.703 658.96 874.979 660.347C877.255 661.734 888.558 663.132 897.098 663.063C899.563 663.043 900.415 662.163 900.368 660.863C900.025 661.651 899.085 662.141 897.25 662.156Z" fill="black"/>
</g>
<defs>
<clipPath id="clip0">
<rect width="965.353" height="690.003" fill="white"/>
</clipPath>
</defs>
</svg>
